<?xml version="1.0" encoding="UTF-8" standalone="no"?>
<svg
   xmlns:dc="http://purl.org/dc/elements/1.1/"
   xmlns:cc="http://creativecommons.org/ns#"
   xmlns:rdf="http://www.w3.org/1999/02/22-rdf-syntax-ns#"
   xmlns:svg="http://www.w3.org/2000/svg"
   xmlns="http://www.w3.org/2000/svg"
   xmlns:sodipodi="http://sodipodi.sourceforge.net/DTD/sodipodi-0.dtd"
   xmlns:inkscape="http://www.inkscape.org/namespaces/inkscape"
   width="500"
   height="500"
   viewBox="0 0 507.99998 285.75001"
   version="1.1"
   id="svg8"
   sodipodi:docname="Icon-With-Title.svg"
   inkscape:version="0.92.5 (2060ec1f9f, 2020-04-08)"
   inkscape:export-filename="/home/amirihusayn/Documents/blue.png"
   inkscape:export-xdpi="96.209999"
   inkscape:export-ydpi="96.209999">
  <title
     id="title13">ceit-uut-icon-title</title>
  <defs
     id="defs2" />
  <sodipodi:namedview
     id="base"
     pagecolor="#ffffff"
     bordercolor="#666666"
     borderopacity="1.0"
     inkscape:pageopacity="0.0"
     inkscape:pageshadow="2"
     inkscape:zoom="0.64"
     inkscape:cx="473.6792"
     inkscape:cy="212.80872"
     inkscape:document-units="px"
     inkscape:current-layer="layer1"
     inkscape:document-rotation="0"
     showgrid="false"
     units="px"
     inkscape:snap-bbox="true"
     inkscape:snap-bbox-midpoints="true"
     inkscape:snap-object-midpoints="true"
     inkscape:snap-center="false"
     inkscape:window-width="1306"
     inkscape:window-height="697"
     inkscape:window-x="60"
     inkscape:window-y="34"
     inkscape:window-maximized="1"
     inkscape:bbox-paths="true"
     inkscape:bbox-nodes="true"
     inkscape:snap-bbox-edge-midpoints="true"
     inkscape:snap-nodes="true"
     inkscape:snap-global="true"
     inkscape:pagecheckerboard="0"
     showguides="true"
     inkscape:guide-bbox="true"
     width="500px"
     inkscape:snap-page="true" />
  <metadata
     id="metadata5">
    <rdf:RDF>
      <cc:Work
         rdf:about="">
        <dc:format>image/svg+xml</dc:format>
        <dc:type
           rdf:resource="http://purl.org/dc/dcmitype/StillImage" />
        <dc:title>ceit-uut-icon-title</dc:title>
        <dc:creator>
          <cc:Agent>
            <dc:title>amirihusayn</dc:title>
          </cc:Agent>
        </dc:creator>
        <dc:rights>
          <cc:Agent>
            <dc:title>ceit-uut</dc:title>
          </cc:Agent>
        </dc:rights>
        <dc:publisher>
          <cc:Agent>
            <dc:title>ceit-uut</dc:title>
          </cc:Agent>
        </dc:publisher>
        <dc:contributor>
          <cc:Agent>
            <dc:title>amirihusayn</dc:title>
          </cc:Agent>
        </dc:contributor>
        <dc:description>This is ceituut icon with title.</dc:description>
      </cc:Work>
    </rdf:RDF>
  </metadata>
  <g
     inkscape:label="Layer 1"
     inkscape:groupmode="layer"
     id="layer1">
    <g
       id="g3994"
       transform="matrix(3.7499982,0,0,3.7499982,-698.49954,-392.906)">
      <path
         d="m 203.00085,88.571785 c -1.32439,0 -2.3906,1.06622 -2.3906,2.3906 0,1.32437 1.06621,2.39059 2.3906,2.39059 1.32439,0 2.3906,-1.06622 2.3906,-2.39059 0,-1.32438 -1.06621,-2.3906 -2.3906,-2.3906 z m 7.1718,0 v 4.78119 h 87.65463 v -4.78119 z m 94.82643,0 c -1.32438,0 -2.39059,1.06622 -2.39059,2.3906 0,1.32436 1.06621,2.39059 2.39059,2.39059 1.32441,0 2.39062,-1.06623 2.39062,-2.39059 0,-1.32438 -1.06621,-2.3906 -2.39062,-2.3906 z M 194.63374,100.52479 c -1.98659,0 -3.5859,1.59932 -3.5859,3.58589 0,1.98659 1.59931,3.58591 3.5859,3.58591 1.98657,0 3.5859,-1.59932 3.5859,-3.58591 0,-1.98657 -1.59933,-3.58589 -3.5859,-3.58589 z m 11.95301,0 c -1.98659,0 -3.5859,1.59932 -3.5859,3.58589 0,1.98658 1.59931,3.58591 3.5859,3.58591 h 3.5859 v -3.58591 -3.58589 z m 91.24053,0 v 7.1718 h 3.58592 c 1.98657,0 3.58588,-1.59933 3.58588,-3.58591 0,-1.98657 -1.59931,-3.58589 -3.58588,-3.58589 z m 15.53892,0 c -1.98657,0 -3.58591,1.59932 -3.58591,3.58589 0,1.98658 1.59934,3.58591 3.58591,3.58591 1.98659,0 3.58589,-1.59933 3.58589,-3.58591 0,-1.98657 -1.5993,-3.58589 -3.58589,-3.58589 z m -122.31836,14.3436 c -2.64877,0 -4.7812,2.13243 -4.7812,4.7812 0,2.64877 2.13243,4.7812 4.7812,4.7812 2.64877,0 4.7812,-2.13243 4.7812,-4.7812 0,-2.64877 -2.13243,-4.7812 -4.7812,-4.7812 z m 14.34361,0 c -2.64878,0 -4.7812,2.13243 -4.7812,4.7812 0,2.64877 2.13242,4.7812 4.7812,4.7812 h 4.7812 v -9.5624 z m 92.43583,0 v 9.5624 h 4.78121 c 2.6488,0 4.78121,-2.13243 4.78121,-4.78121 0,-2.64877 -2.13241,-4.7812 -4.78121,-4.7812 z m 19.12481,0 c -2.64877,0 -4.78121,2.13243 -4.78121,4.7812 0,2.64877 2.13244,4.7812 4.78121,4.7812 2.64877,0 4.78122,-2.13243 4.78122,-4.7812 0,-2.64877 -2.13245,-4.7812 -4.78122,-4.7812 z M 194.63374,131.6026 c -1.98659,0 -3.5859,1.5993 -3.5859,3.58591 0,1.98656 1.59931,3.58589 3.5859,3.58589 1.98657,0 3.5859,-1.59933 3.5859,-3.58589 0,-1.98661 -1.59933,-3.58591 -3.5859,-3.58591 z m 11.95301,0 c -1.98659,0 -3.5859,1.59933 -3.5859,3.58591 0,1.98658 1.59931,3.58589 3.5859,3.58589 h 3.5859 v -7.17179 z m 91.24053,0 v 7.1718 h 3.58592 c 1.98657,0 3.58588,-1.59932 3.58588,-3.5859 0,-1.98658 -1.59931,-3.5859 -3.58588,-3.5859 z m 15.53892,0 c -1.98657,0 -3.58591,1.59933 -3.58591,3.58591 0,1.98658 1.59934,3.58589 3.58591,3.58589 1.98659,0 3.58589,-1.59931 3.58589,-3.58589 0,-1.98658 -1.5993,-3.58591 -3.58589,-3.58591 z m -110.36535,14.34361 c -1.32439,0 -2.3906,1.06621 -2.3906,2.3906 0,1.32437 1.06621,2.3906 2.3906,2.3906 1.32439,0 2.3906,-1.06622 2.3906,-2.3906 0,-1.32439 -1.06621,-2.3906 -2.3906,-2.3906 z m 7.1718,0 v 4.7812 h 87.65463 v -4.7812 z m 94.82643,0 c -1.32438,0 -2.39059,1.06621 -2.39059,2.3906 0,1.32437 1.06621,2.3906 2.39059,2.3906 1.32441,0 2.39062,-1.06622 2.39062,-2.3906 0,-1.32439 -1.06621,-2.3906 -2.39062,-2.3906 z m -65.23156,8.47769 v 4.55946 h 28.46489 v -4.55946 z"
         style="fill:#ffffff;fill-opacity:1;stroke-width:0.221761"
         id="rect2610"
         inkscape:connector-curvature="0" />
      <path
         d="m 238.4924,174.85836 -0.6718,0.6723 0.6718,0.66663 0.66714,-0.66663 z m 54.29177,0.0791 c -0.007,0 -0.0246,0.0115 -0.0543,0.0346 l -0.96893,0.89918 c 0.14493,0.58632 0.21756,1.71799 0.21756,3.39462 0,0.45127 -0.23861,0.67696 -0.71624,0.67696 h -0.75602 v 0.005 h -0.10852 c -0.22399,0 -0.39049,-0.0842 -0.4992,-0.25219 l -0.31109,-0.69659 c -0.24705,-0.5501 -0.61798,-0.82527 -1.11208,-0.82527 -0.36892,0 -0.67505,0.1614 -0.91881,0.48421 -0.22397,0.29646 -0.32295,0.60956 -0.29662,0.93896 0.0131,0.14163 -0.01,0.23228 -0.0692,0.27182 -0.0725,0.0494 -0.25002,0.0739 -0.5333,0.0739 h -0.29663 -0.84026 c -0.79714,0 -1.42283,0.2308 -1.8774,0.69195 -0.34587,0.34916 -0.51883,0.70478 -0.51883,1.06712 0,0.23717 0.17296,0.40503 0.51883,0.50383 0.17787,0.0527 0.49744,0.0957 0.9586,0.12869 0.34257,0.0263 0.51366,0.0675 0.51366,0.12351 0,0.11528 -0.25018,0.21562 -0.75086,0.30127 -0.41504,0.0725 -0.7494,0.10852 -1.00304,0.10852 -0.74444,0 -1.28271,-0.0559 -1.6154,-0.16795 -0.54021,-0.18118 -0.81029,-0.54189 -0.81029,-1.0821 0,-0.20752 0.0457,-0.43644 0.13798,-0.68678 0.0922,-0.25034 0.13849,-0.38673 0.13849,-0.4098 0,-0.13834 -0.0772,-0.20774 -0.23203,-0.20774 -0.11858,0 -0.28185,0.22756 -0.48937,0.68213 -0.2174,0.47434 -0.32608,0.87757 -0.32608,1.21026 0,1.22207 0.83523,1.83297 2.50527,1.83297 0.80373,0 1.46548,-0.1068 1.98593,-0.32091 0.73785,-0.30634 1.10691,-0.80398 1.10691,-1.49242 0,-0.20422 -0.0958,-0.35219 -0.28681,-0.44443 -0.14823,-0.0725 -0.40996,-0.13162 -0.78548,-0.17775 -0.29975,-0.0363 -0.52544,-0.0626 -0.67696,-0.0791 -0.17458,-0.0231 -0.26148,-0.0693 -0.26148,-0.13849 0,-0.1153 0.0971,-0.20272 0.29145,-0.262 0.13506,-0.0395 0.27655,-0.0594 0.42478,-0.0594 0.17788,0 0.44285,0.025 0.7953,0.0744 0.32492,0.0451 0.57484,0.0695 0.75138,0.0734 v 5.1e-4 h 0.64234 c 0.40845,0 0.71781,-0.20255 0.92862,-0.60771 0.30305,0.47763 0.66565,0.71675 1.08727,0.71675 0.47434,0 0.80682,-0.25392 0.99787,-0.76119 0.0692,0.17787 0.18109,0.33094 0.3359,0.4594 0.15812,0.12846 0.32785,0.19275 0.50901,0.19275 h 0.75603 c 0.0889,0 0.18094,-0.0162 0.27647,-0.0491 0.0955,-0.0329 0.18618,-0.0778 0.27182,-0.13384 0.0889,-0.056 0.1699,-0.12165 0.24236,-0.19741 0.0757,-0.0757 0.13629,-0.15671 0.18242,-0.24236 0.033,0.0857 0.0824,0.16661 0.14831,0.24236 0.0692,0.0758 0.14826,0.14141 0.23719,0.19741 0.0889,0.056 0.18469,0.10091 0.28681,0.13384 0.10541,0.0329 0.21221,0.0491 0.32091,0.0491 h 0.65732 0.37052 c 0.0626,0 0.18929,-0.0129 0.38034,-0.0393 0.19435,-0.0296 0.45473,-0.0727 0.78083,-0.12867 0.37552,-0.0659 0.75749,-0.11998 1.14619,-0.16279 0.38868,-0.0461 0.78921,-0.0827 1.20096,-0.10903 l 0.5581,-1.02733 c 0,0 0,-5.2e-4 0,-5.2e-4 0.0196,-0.0327 0.03,-0.0588 0.03,-0.0786 0,-0.0132 -0.0199,-0.0202 -0.0594,-0.0202 h -0.0346 c -0.0132,0 -0.028,0.002 -0.0444,0.005 -0.18117,0.023 -0.40175,0.0411 -0.66197,0.0543 -0.26022,0.01 -0.56041,0.015 -0.89969,0.015 -0.38869,0 -0.71285,-0.13367 -0.97307,-0.40049 -0.20422,-0.20422 -0.30644,-0.37855 -0.30644,-0.52348 0,-0.0823 0.0347,-0.1582 0.10387,-0.22738 0.0692,-0.0692 0.15982,-0.12836 0.27182,-0.17776 0.11199,-0.0494 0.24005,-0.0874 0.38499,-0.11369 0.14494,-0.0297 0.29154,-0.0444 0.43976,-0.0444 0.39858,0 0.7741,0.0605 1.12655,0.18241 0.089,0.0329 0.15512,0.0496 0.19792,0.0496 0.0428,0 0.0641,-0.0199 0.0641,-0.0594 0,-0.0494 -0.0296,-0.13173 -0.0889,-0.24702 -0.0692,-0.13176 -0.15337,-0.25335 -0.25218,-0.36535 -0.0955,-0.11529 -0.20045,-0.21427 -0.31575,-0.29662 -0.11528,-0.0823 -0.23553,-0.14662 -0.3607,-0.19275 -0.12187,-0.0494 -0.24399,-0.0739 -0.36587,-0.0739 -0.45127,0 -0.89942,0.2335 -1.3441,0.70125 -0.41834,0.4381 -0.62735,0.84185 -0.62735,1.21078 0,0.0593 0.01,0.12868 0.0294,0.20773 0.0231,0.0758 0.0513,0.15111 0.0842,0.22686 0.0362,0.0758 0.0755,0.14705 0.11833,0.21291 0.0461,0.0659 0.0924,0.1167 0.1385,0.15296 h -1.09193 -0.39015 c -0.46446,0 -0.69712,-0.23214 -0.69712,-0.6966 v -4.25451 c 0,-0.0362 -0.008,-0.0543 -0.0243,-0.0543 z m -79.17914,0.005 c -0.0264,0 -0.0694,0.0245 -0.12868,0.0739 l -0.90898,0.75603 0.46922,5.21777 c 0.0264,0.30633 0.0611,0.4594 0.10387,0.4594 0.0264,0 0.0726,-0.0689 0.13849,-0.20722 0.25034,-0.53035 0.37569,-0.91285 0.37569,-1.1467 v -5.04931 c 0,-0.0692 -0.0167,-0.10388 -0.0496,-0.10388 z m 108.07867,0 c -0.0264,0 -0.0694,0.0245 -0.12867,0.0739 l -0.90899,0.75603 0.46922,5.21777 c 0.0264,0.30633 0.0611,0.4594 0.10387,0.4594 0.0264,0 0.0726,-0.0689 0.13849,-0.20722 0.25035,-0.53035 0.37569,-0.91285 0.37569,-1.1467 v -5.04931 c 0,-0.0692 -0.0167,-0.10388 -0.0496,-0.10388 z m -126.7504,0.005 c -0.0165,0 -0.0743,0.0398 -0.17312,0.11887 l -0.81545,0.66197 c -0.0198,0.0197 -0.0295,0.0526 -0.0295,0.0987 v 0.0444 c 0.003,0.0132 0.007,0.028 0.01,0.0444 0.0527,0.28328 0.1073,0.88635 0.16329,1.80867 0.0494,0.81691 0.0739,1.4278 0.0739,1.83297 0,0.25693 0.0315,0.48908 0.0941,0.6966 0.0626,0.20421 0.14949,0.37718 0.26149,0.51882 0.11529,0.14164 0.2522,0.25032 0.41031,0.32608 0.15811,0.0757 0.3343,0.11368 0.52865,0.11368 h 0.44958 0.37052 c 0.0626,0 0.18981,-0.0129 0.38086,-0.0393 0.19434,-0.0296 0.45421,-0.0727 0.78031,-0.12867 0.37551,-0.0659 0.7575,-0.11998 1.14619,-0.16279 0.38868,-0.0461 0.78921,-0.0827 1.20095,-0.10903 l 0.55811,-1.02733 c 0,0 0,-5.2e-4 0,-5.2e-4 0.0196,-0.0327 0.03,-0.0588 0.03,-0.0786 0,-0.0132 -0.0199,-0.0202 -0.0594,-0.0202 h -0.0346 c -0.0132,0 -0.028,0.002 -0.0444,0.005 -0.18117,0.023 -0.40175,0.0411 -0.66198,0.0543 -0.26022,0.01 -0.55989,0.015 -0.89917,0.015 -0.38869,0 -0.71336,-0.13367 -0.97358,-0.40049 -0.20423,-0.20423 -0.30644,-0.37855 -0.30644,-0.52348 0,-0.0823 0.0347,-0.15821 0.10387,-0.22739 0.0692,-0.0692 0.15982,-0.12836 0.27182,-0.17776 0.11199,-0.0494 0.24057,-0.0874 0.3855,-0.11369 0.14494,-0.0297 0.29154,-0.0444 0.43977,-0.0444 0.39857,0 0.77409,0.0605 1.12654,0.18241 0.0889,0.0329 0.15459,0.0496 0.19741,0.0496 0.0428,0 0.0641,-0.0199 0.0641,-0.0594 0,-0.0494 -0.0296,-0.13173 -0.0889,-0.24702 -0.0692,-0.13176 -0.15285,-0.25335 -0.25167,-0.36534 -0.0955,-0.1153 -0.20097,-0.21427 -0.31626,-0.29663 -0.11529,-0.0823 -0.23553,-0.14662 -0.3607,-0.19275 -0.12188,-0.0494 -0.24399,-0.0739 -0.36587,-0.0739 -0.45127,0 -0.89941,0.2335 -1.3441,0.70124 -0.41834,0.4381 -0.62735,0.84185 -0.62735,1.21078 0,0.0593 0.0102,0.12869 0.03,0.20773 0.0231,0.0758 0.0508,0.15111 0.0837,0.22686 0.0362,0.0758 0.076,0.14705 0.11885,0.21291 0.0461,0.0659 0.0919,0.1167 0.13798,0.15296 h -1.38028 c -0.44009,-0.0357 -0.66042,-0.26783 -0.66042,-0.6966 l 0.01,-4.1553 c 0,-0.0856 -0.01,-0.13182 -0.0295,-0.13849 z m 37.2892,0 c -0.0165,0 -0.0743,0.0398 -0.17312,0.11887 l -0.81494,0.66197 c -0.0198,0.0197 -0.03,0.0526 -0.03,0.0987 v 0.0444 c 0.003,0.0132 0.007,0.028 0.0103,0.0444 0.0527,0.28328 0.10678,0.88635 0.16278,1.80867 0.0494,0.81691 0.0744,1.4278 0.0744,1.83297 0,0.25693 0.0309,0.48908 0.0935,0.6966 0.0626,0.20421 0.15001,0.37718 0.26201,0.51882 0.11529,0.14164 0.2522,0.25032 0.41031,0.32608 0.15811,0.0757 0.3343,0.11368 0.52865,0.11368 h 0.44958 0.65216 c 0.25363,0 0.49547,-0.0657 0.72605,-0.1974 0.23058,-0.13505 0.41052,-0.31123 0.53899,-0.52865 0.12846,0.21742 0.30925,0.3936 0.54311,0.52865 0.23717,0.13176 0.48276,0.1974 0.73639,0.1974 h 1.10175 c 0.78067,0 1.35551,-0.12347 1.72444,-0.37052 0.43151,-0.28986 0.6475,-0.85314 0.6475,-1.68981 0,-0.50728 -0.0713,-0.97022 -0.2129,-1.38855 -0.22729,-0.67197 -0.5977,-1.00769 -1.11156,-1.00769 -0.37552,0 -0.68487,0.23725 -0.92863,0.71158 -0.20093,0.39199 -0.30179,0.78689 -0.30179,1.18546 0,0.48422 0.3279,0.72658 0.9834,0.72658 0.1647,0 0.45978,-0.0199 0.8847,-0.0594 0.13176,-0.0132 0.19741,0.0248 0.19741,0.11369 0,0.14496 -0.0592,0.24718 -0.17777,0.30644 -0.26681,0.13507 -0.79216,0.20257 -1.57613,0.20257 h -0.89452 -0.37569 c -0.39857,0 -0.67188,-0.10731 -0.8201,-0.32142 -0.0758,-0.10541 -0.13819,-0.30422 -0.18759,-0.59738 -0.0362,-0.21411 -0.11345,-0.32142 -0.23202,-0.32142 -0.12188,0 -0.20283,0.10731 -0.24237,0.32142 -0.0527,0.28987 -0.12668,0.48868 -0.2222,0.59738 -0.18447,0.21411 -0.51747,0.32142 -0.99839,0.32142 h -0.74311 c -0.43998,-0.0358 -0.65991,-0.26788 -0.65991,-0.6966 l 0.01,-4.1553 c 0,-0.0856 -0.01,-0.13182 -0.0295,-0.13849 z m 40.08127,0 c -0.0165,0 -0.0743,0.0398 -0.17312,0.11887 l -0.81545,0.66197 c -0.0198,0.0197 -0.0295,0.0526 -0.0295,0.0987 v 0.0444 c 0.003,0.0132 0.006,0.028 0.01,0.0444 0.0527,0.28328 0.1073,0.88635 0.1633,1.80867 0.0494,0.81691 0.0739,1.4278 0.0739,1.83297 0,0.25693 0.0315,0.48908 0.0941,0.6966 0.0626,0.20421 0.15,0.37718 0.262,0.51882 0.11529,0.14164 0.25168,0.25032 0.40979,0.32608 0.15811,0.0757 0.3343,0.11368 0.52865,0.11368 h 0.44959 0.43511 c 1.39006,0 2.08515,-0.63726 2.08515,-1.91202 0,-0.38869 -0.12671,-0.77765 -0.38034,-1.16634 -0.18117,-0.27669 -0.47625,-0.61887 -0.8847,-1.02733 1.21877,-0.43151 2.09193,-0.73305 2.61896,-0.90434 l 0.20722,-1.12137 c -1.60746,0.57974 -2.78487,1.01903 -3.5326,1.31878 l -0.24236,1.27486 c 0.31622,0.19764 0.66079,0.50105 1.03301,0.9095 0.40516,0.44469 0.60772,0.77395 0.60772,0.98806 0,0.13506 -0.0958,0.22706 -0.28681,0.27646 -0.24046,0.0626 -0.70986,0.0941 -1.40818,0.0941 h -0.54054 c -0.43998,-0.0358 -0.6599,-0.26788 -0.6599,-0.6966 l 0.01,-4.1553 c 0,-0.0856 -0.0102,-0.13182 -0.03,-0.13849 z m -64.22761,0.005 -0.92397,0.84492 c 0.30305,1.20888 0.45424,2.46537 0.45424,3.76979 v 0.37568 h -1.01751 c -0.54021,0 -0.81029,-0.25714 -0.81029,-0.77101 v -4.04625 c 0,-0.0856 -0.0102,-0.12869 -0.03,-0.12869 -0.0132,0 -0.0506,0.0231 -0.11317,0.0693 l -0.74621,0.58808 c 0.0198,0.27341 0.0294,0.53837 0.0294,0.7953 0,1.30112 -0.23537,2.23669 -0.70641,2.80655 -0.0527,-0.40186 -0.26547,-0.85782 -0.63769,-1.3684 -0.54351,-0.74444 -1.36342,-1.51027 -2.46031,-2.29753 -0.056,-0.0329 -0.0888,-0.0496 -0.0987,-0.0496 -0.0198,0 -0.0364,0.0379 -0.0496,0.1137 -0.0856,0.39197 -0.12868,0.73467 -0.12868,1.02783 0,0.0824 0.13045,0.27011 0.39068,0.56327 0.10869,0.12517 0.21227,0.23844 0.31109,0.34055 0.0988,0.10212 0.19457,0.19599 0.2868,0.28165 l 0.0543,-0.41962 c 0.53692,0.36233 1.01142,0.80027 1.42317,1.31414 0.34257,0.42822 0.51366,0.71121 0.51366,0.84956 0,0.0725 -0.0643,0.17008 -0.19275,0.29196 -0.12517,0.12187 -0.2949,0.25692 -0.50901,0.40514 -0.21082,0.14823 -0.45589,0.30265 -0.73587,0.46406 -0.2767,0.1581 -0.56532,0.30981 -0.86507,0.45475 -0.20752,0.0988 -0.31109,0.16125 -0.31109,0.18759 0,0.0198 0.0578,0.03 0.17312,0.03 0.0264,0 0.0559,-0.002 0.0889,-0.005 0.0362,0 0.0742,-0.002 0.11368,-0.005 1.33077,-0.0725 2.03367,-0.13997 2.10943,-0.20257 0.45787,-0.37881 0.88798,-1.11963 1.28985,-2.22312 0.0132,0.35905 0.0428,0.66705 0.0889,0.92398 0.0494,0.25364 0.11505,0.45942 0.1974,0.61753 0.21027,0.39684 0.56465,0.6152 1.06247,0.65525 v 0.007 h 2.16421 c 0.85314,0 1.56302,-0.1614 2.12959,-0.4842 0.69832,-0.40187 1.04748,-0.9961 1.04748,-1.78336 0,-0.36563 -0.13827,-0.6505 -0.41497,-0.85473 -0.2174,-0.1614 -0.44819,-0.24236 -0.69194,-0.24236 -0.37222,0 -0.83975,0.20767 -1.40302,0.6227 -0.39857,0.29316 -0.73616,0.5942 -1.01286,0.90382 0.0955,-0.67196 0.14315,-1.25786 0.14315,-1.75855 0,-0.36233 -0.0213,-0.78088 -0.0641,-1.25522 0.19434,0.0461 0.30948,0.0693 0.34572,0.0693 0.0329,0 0.0496,-0.0102 0.0496,-0.03 0,-0.0132 -0.0102,-0.0441 -0.03,-0.0935 -0.25364,-0.64562 -0.42473,-1.09699 -0.51367,-1.35392 z m 110.98393,0.73122 -0.6718,0.67181 0.6718,0.6723 0.66714,-0.6723 z m -65.67558,0.10852 -0.60255,0.60307 0.60255,0.60255 0.60823,-0.60255 z m 1.34927,0 -0.60306,0.60307 0.60306,0.60255 0.60772,-0.60255 z m -20.0706,0.33643 -0.6718,0.67178 0.6718,0.67179 0.6723,-0.67179 z m -45.80238,0.57774 -0.60306,0.60305 0.60306,0.60255 0.60255,-0.60255 z m 1.34875,0 -0.60306,0.60305 0.60306,0.60255 0.60772,-0.60255 z m 123.58833,0.79582 c -0.50069,0 -0.94185,0.3852 -1.32395,1.156 -0.056,0.11199 -0.0842,0.23037 -0.0842,0.35553 0,0.11528 0.0624,0.17311 0.18758,0.17311 0.0362,0 0.14866,-0.0971 0.33642,-0.29145 0.19105,-0.19765 0.38339,-0.29663 0.57774,-0.29663 0.36892,0 0.93731,0.13369 1.7048,0.40049 -0.62915,0.36565 -1.09344,0.60289 -1.3932,0.71159 -0.4348,0.15483 -0.95046,0.23203 -1.54667,0.23203 h -0.75086 v 0.005 h -0.10904 c -0.22399,0 -0.38997,-0.0842 -0.49867,-0.25218 l -0.31161,-0.6966 c -0.24705,-0.55009 -0.61746,-0.82527 -1.11156,-0.82527 -0.36893,0 -0.67506,0.16139 -0.91881,0.4842 -0.22397,0.29647 -0.32296,0.60956 -0.29662,0.93896 0.0131,0.14164 -0.01,0.23229 -0.0693,0.27182 -0.0725,0.0494 -0.25054,0.0739 -0.53382,0.0739 h -0.2961 -0.57826 c -0.26681,0 -0.50407,-0.092 -0.71159,-0.27647 -0.12517,-0.11199 -0.2949,-0.32288 -0.50901,-0.63251 -0.0494,-0.0725 -0.092,-0.0725 -0.12816,0 l -0.48937,0.99787 c 0.19434,0.17129 0.41356,0.42469 0.65732,0.76067 0.28658,0.39529 0.42995,0.68526 0.42995,0.86972 0,0.29646 -0.24371,0.53694 -0.73122,0.7214 -0.42493,0.16141 -0.89756,0.24236 -1.418,0.24236 -0.53034,0 -0.93086,-0.0675 -1.20096,-0.20258 -0.37222,-0.18774 -0.55811,-0.51564 -0.55811,-0.98339 0,-0.17788 0.0495,-0.41836 0.14831,-0.7214 0.10212,-0.30306 0.15296,-0.46258 0.15296,-0.47904 0,-0.18446 -0.0662,-0.27699 -0.19792,-0.27699 -0.18776,0 -0.37364,0.29185 -0.5581,0.87488 -0.15811,0.49739 -0.23719,0.87615 -0.2372,1.13637 0,0.51385 0.14984,0.93835 0.44959,1.27434 0.37222,0.41832 0.93873,0.62786 1.69964,0.62786 0.85314,0 1.53207,-0.1665 2.03605,-0.49919 0.5962,-0.39198 0.894,-0.99133 0.894,-1.79834 0,-0.15483 -0.0116,-0.31621 -0.0346,-0.4842 0.13505,0.0791 0.31771,0.11832 0.54829,0.11832 h 0.63251 c 0.40846,0 0.71833,-0.20254 0.92915,-0.60771 0.30304,0.47764 0.66512,0.71675 1.08675,0.71675 0.47434,0 0.80734,-0.25392 0.99839,-0.76119 0.0692,0.17788 0.18108,0.33094 0.3359,0.45941 0.15811,0.12845 0.32784,0.19274 0.50901,0.19274 h 0.60771 c 1.13643,0 2.25277,-0.50733 3.34967,-1.52187 0,1.01454 0.54067,1.52187 1.62109,1.52187 h 0.85473 0.34571 c 0.53362,0 0.92905,-0.23027 1.18598,-0.69143 0.18775,-0.33928 0.28164,-0.75272 0.28164,-1.24023 0,-0.23717 -0.0463,-0.49109 -0.1385,-0.76119 -0.0955,-0.28988 -0.21899,-0.51369 -0.37052,-0.67179 -0.0494,-0.0527 -0.0989,-0.0444 -0.14831,0.0248 l -0.57826,0.80512 c -0.0428,0.0593 -0.0428,0.11199 0,0.15812 0.36893,0.40517 0.55346,0.68545 0.55346,0.84026 0,0.17788 -0.23725,0.26665 -0.71159,0.26665 h -0.41961 -0.76119 c -0.34587,0 -0.59928,-0.0231 -0.76068,-0.0692 -0.29316,-0.0856 -0.43977,-0.25536 -0.43977,-0.50901 0.24046,-0.0988 0.54336,-0.14779 0.90899,-0.14779 l 0.42013,-0.90434 c 0.0197,-0.0461 0.0313,-0.0724 0.0346,-0.0791 0,-0.0231 -0.13045,-0.0346 -0.39067,-0.0346 -0.46116,0 -1.04705,-0.11514 -1.75855,-0.34571 -0.7115,-0.23386 -1.17954,-0.35087 -1.40353,-0.35087 z m -9.94616,0.11832 -0.6718,0.66715 0.6718,0.67179 0.66714,-0.67179 z m -65.54174,0.1385 c 0.11529,0 0.24387,0.0444 0.38551,0.13332 0.19104,0.12188 0.33254,0.29484 0.42478,0.51883 -0.20094,0.0395 -0.38411,0.0594 -0.54881,0.0594 -0.44798,0 -0.67179,-0.11564 -0.67179,-0.34623 0,-0.1021 0.043,-0.18766 0.12867,-0.25682 0.0856,-0.0725 0.17953,-0.10852 0.28164,-0.10852 z m 15.59801,0.0548 c -0.0278,3.5e-4 -0.0559,0.02 -0.0837,0.0589 l -0.57775,0.80512 c -0.0428,0.0593 -0.0428,0.11199 0,0.15812 0.36893,0.40517 0.55346,0.68545 0.55346,0.84026 0,0.17788 -0.23725,0.26665 -0.71158,0.26665 h -0.72141 c -0.41833,0 -0.87481,-0.33623 -1.3689,-1.0082 -0.0263,-0.0297 -0.0457,-0.0444 -0.0589,-0.0444 -0.0197,0 -0.0364,0.0148 -0.0496,0.0444 l -0.51883,1.04748 c 0.12188,0.1054 0.23702,0.21595 0.34572,0.33124 0.1087,0.11529 0.20446,0.22909 0.2868,0.34107 0.0823,0.112 0.14662,0.21556 0.19275,0.31109 0.0494,0.0955 0.0739,0.17651 0.0739,0.24236 0,0.34258 -0.31258,0.74768 -0.93844,1.21543 -0.56327,0.42163 -1.14134,0.74255 -1.73426,0.96325 -0.0395,0.0165 -0.0594,0.0312 -0.0594,0.0444 0,0.0131 0.0231,0.0298 0.0692,0.0496 0.4348,0.168 1.09196,0.25218 1.97145,0.25218 0.0494,0 0.16642,-0.0893 0.35088,-0.26716 0.6061,-0.58633 0.90899,-1.37988 0.90899,-2.38125 0.1264,0.0609 0.28795,0.0997 0.48421,0.1173 v 0.0109 h 0.69143 c 0.53363,0 0.92904,-0.23026 1.18598,-0.69143 0.18775,-0.33928 0.28163,-0.75272 0.28163,-1.24023 0,-0.23716 -0.0463,-0.49109 -0.13849,-0.76118 -0.0955,-0.28989 -0.21899,-0.51369 -0.37052,-0.67181 -0.0216,-0.0231 -0.043,-0.0344 -0.0646,-0.0341 z m -32.35306,0.0243 c -0.4908,0 -0.95322,0.33436 -1.38803,1.00304 -0.38869,0.59622 -0.58342,1.11511 -0.58342,1.5565 -1e-5,0.39529 0.19286,0.66671 0.57825,0.81494 0.15812,0.0626 0.51373,0.1255 1.06712,0.1881 0.3821,0.0461 0.57361,0.14135 0.57361,0.28628 0,0.26681 -0.32654,0.47447 -0.97875,0.6227 -0.48092,0.1087 -0.99148,0.1633 -1.53169,0.1633 -1.25171,0 -1.8774,-0.41668 -1.8774,-1.25005 0,-0.0889 0.0115,-0.19302 0.0346,-0.3116 0.0231,-0.12187 0.061,-0.25828 0.11369,-0.40979 0.0494,-0.15152 0.0874,-0.26718 0.11368,-0.34624 0.0263,-0.0823 0.0393,-0.12665 0.0393,-0.13332 0,-0.18446 -0.0656,-0.27647 -0.1974,-0.27647 -0.19105,0 -0.37746,0.29133 -0.55863,0.87437 -0.15811,0.50067 -0.23719,0.87943 -0.23719,1.13636 0,1.29453 0.78573,1.942 2.35696,1.942 1.07713,0 1.89569,-0.2012 2.45566,-0.60306 0.55998,-0.39857 0.84026,-0.98123 0.84026,-1.74874 0,-0.1614 -0.0153,-0.30019 -0.045,-0.41547 -0.0296,-0.1153 -0.0818,-0.21241 -0.15761,-0.29146 -0.0758,-0.079 -0.17798,-0.14145 -0.30644,-0.18758 -0.12517,-0.0461 -0.28657,-0.0822 -0.48421,-0.10852 -0.39857,-0.056 -0.65572,-0.1023 -0.77101,-0.1385 -0.25034,-0.0725 -0.37569,-0.1876 -0.37569,-0.34571 0,-0.13506 0.11702,-0.31499 0.35088,-0.53899 0.30305,-0.28328 0.66054,-0.42478 1.07229,-0.42478 0.37551,0 0.64881,0.0463 0.8201,0.1385 0.0725,0.0362 0.11876,0.0543 0.1385,0.0543 0.0231,0 0.0346,-0.0263 0.0346,-0.0791 0,-0.0231 -0.003,-0.0513 -0.01,-0.0842 -0.003,-0.0329 -0.008,-0.0722 -0.015,-0.11834 -0.0329,-0.18446 -0.12172,-0.36899 -0.26665,-0.55345 -0.2174,-0.2767 -0.48612,-0.41497 -0.80564,-0.41497 z m -29.1021,0.0295 c -0.007,0 -0.0297,0.025 -0.0693,0.0744 l -0.64751,0.81495 c 0.0856,0.0856 0.19807,0.21933 0.33642,0.40049 0.16799,0.21742 0.25166,0.3557 0.25166,0.41496 0,0.32281 -0.96329,0.4842 -2.89026,0.4842 -0.82679,0 -1.36881,-0.0315 -1.62574,-0.0941 -0.57645,-0.14164 -0.86455,-0.47278 -0.86455,-0.99322 0,-0.0955 0.0245,-0.22035 0.0739,-0.37518 0.0527,-0.15481 0.0791,-0.2487 0.0791,-0.28164 0,-0.13834 -0.0624,-0.20774 -0.18759,-0.20774 -0.10211,0 -0.23068,0.14014 -0.3855,0.42013 -0.17129,0.31293 -0.25683,0.63249 -0.25683,0.9586 0,0.73455 0.32279,1.24511 0.96841,1.53169 0.44139,0.19434 1.08699,0.29145 1.93684,0.29145 1.57122,0 2.62057,-0.17807 3.14761,-0.53381 0.47104,-0.31622 0.70641,-0.83 0.70641,-1.5415 0,-0.47105 -0.16463,-0.90575 -0.49402,-1.30431 -0.0362,-0.0429 -0.0626,-0.0628 -0.0791,-0.0594 z m 36.52335,0.22271 c -0.36563,0 -0.68196,0.27009 -0.94878,0.8103 -0.22069,0.44469 -0.33072,0.84333 -0.33072,1.19578 0,0.16471 0.0231,0.3062 0.0692,0.42478 0.0461,0.1153 0.12197,0.21053 0.22738,0.28629 0.1087,0.0758 0.2502,0.13227 0.42478,0.16847 0.17787,0.0329 0.39709,0.0491 0.65732,0.0491 h 0.13798 c 0.0626,-0.003 0.12688,-0.005 0.19275,-0.005 h 0.18759 c 0.0626,-0.003 0.10882,-0.005 0.13849,-0.005 0,0.32281 -0.30477,0.72605 -0.91416,1.21026 -0.55338,0.4414 -1.12448,0.7693 -1.71411,0.98341 -0.0428,0.0132 -0.0646,0.0299 -0.0646,0.0496 0,0.0132 0.025,0.0294 0.0744,0.0491 0.48752,0.16799 1.14467,0.25218 1.97146,0.25218 0.0494,0 0.16642,-0.099 0.35088,-0.29663 0.58633,-0.62586 0.87902,-1.37043 0.87902,-2.23345 v -0.7705 c 0,-0.51386 -0.0952,-0.97305 -0.28629,-1.37821 -0.24705,-0.52704 -0.59808,-0.79065 -1.05265,-0.79065 z m 15.58407,0 c -0.36564,0 -0.68197,0.27009 -0.94878,0.8103 -0.2207,0.44469 -0.33125,0.84333 -0.33125,1.19578 0,0.16471 0.0231,0.3062 0.0692,0.42478 0.0461,0.1153 0.12197,0.21053 0.22738,0.28629 0.1087,0.0758 0.2502,0.13227 0.42478,0.16847 0.17787,0.0329 0.3971,0.0491 0.65733,0.0491 h 0.13849 c 0.0626,-0.003 0.12689,-0.005 0.19275,-0.005 h 0.18759 c 0.0626,-0.003 0.10882,-0.005 0.13849,-0.005 0,0.32281 -0.30477,0.72605 -0.91416,1.21026 -0.55339,0.4414 -1.125,0.7693 -1.71462,0.98341 -0.0428,0.0132 -0.0641,0.0299 -0.0641,0.0496 0,0.0132 0.0245,0.0294 0.0739,0.0491 0.48751,0.16799 1.14467,0.25218 1.97145,0.25218 0.0494,0 0.16642,-0.099 0.35089,-0.29663 0.58632,-0.62586 0.87953,-1.37043 0.87953,-2.23345 v -0.7705 c 0,-0.51386 -0.0958,-0.97305 -0.2868,-1.37821 -0.24705,-0.52704 -0.59757,-0.79065 -1.05213,-0.79065 z m 24.48739,0.0987 c -0.37222,0 -0.6821,0.15816 -0.92914,0.47439 -0.22727,0.29316 -0.32761,0.60438 -0.30128,0.93379 0.0131,0.14162 -0.01,0.23228 -0.0692,0.27182 -0.0725,0.0494 -0.25002,0.0739 -0.53331,0.0739 h -0.29662 -0.37568 c -0.39857,0 -0.67188,-0.1073 -0.82011,-0.32141 -0.0758,-0.10542 -0.13819,-0.30422 -0.18759,-0.59738 -0.0362,-0.21412 -0.11395,-0.32143 -0.23254,-0.32143 -0.12187,0 -0.20231,0.10731 -0.24185,0.32143 -0.0527,0.28986 -0.12668,0.48868 -0.2222,0.59738 -0.18446,0.21411 -0.51747,0.32141 -0.99839,0.32141 h -0.45424 -0.37569 c -0.39856,0 -0.67187,-0.1073 -0.8201,-0.32141 -0.0758,-0.10542 -0.1387,-0.30422 -0.1881,-0.59738 -0.0362,-0.21412 -0.11344,-0.32143 -0.23203,-0.32143 -0.12187,0 -0.20231,0.10731 -0.24185,0.32143 -0.0527,0.28986 -0.12719,0.48868 -0.22272,0.59738 -0.18446,0.21411 -0.51695,0.32141 -0.99787,0.32141 h -0.45476 -0.72605 c -0.0362,-0.24705 -0.0941,-0.47273 -0.17312,-0.67696 -0.0791,-0.20752 -0.17616,-0.38558 -0.29145,-0.53382 -0.11199,-0.14821 -0.24057,-0.26335 -0.38551,-0.34571 -0.14164,-0.0824 -0.29335,-0.12351 -0.45475,-0.12351 -0.36563,0 -0.68145,0.27195 -0.94826,0.81547 -0.2207,0.44468 -0.33125,0.84145 -0.33125,1.19061 0,0.38211 0.13691,0.64249 0.41031,0.78084 0.19105,0.0988 0.51385,0.14832 0.96842,0.14832 h 0.12351 0.20257 c 0.0725,-0.003 0.13997,-0.005 0.20257,-0.005 h 0.12816 c 0,0.3228 -0.30426,0.72468 -0.91364,1.20561 -0.56986,0.45127 -1.14147,0.78053 -1.71463,0.98805 -0.0428,0.0165 -0.0641,0.0312 -0.0641,0.0444 0,0.0197 0.0245,0.0364 0.0739,0.0496 0.48751,0.16801 1.14466,0.25219 1.97146,0.25219 0.0494,0 0.16454,-0.10222 0.34571,-0.30645 0.56657,-0.64562 0.85008,-1.38372 0.85008,-2.21382 h 0.72605 0.65216 c 0.25364,0 0.49599,-0.0657 0.72657,-0.19739 0.23058,-0.13505 0.41,-0.31124 0.53847,-0.52865 0.12847,0.21741 0.30976,0.3936 0.54364,0.52865 0.23716,0.13175 0.48224,0.19739 0.73587,0.19739 h 0.98857 c 0.25364,0 0.49547,-0.0657 0.72605,-0.19739 0.23058,-0.13505 0.41,-0.31124 0.53847,-0.52865 0.12847,0.21741 0.30976,0.3936 0.54364,0.52865 0.23716,0.13175 0.48275,0.19739 0.73639,0.19739 h 0.63251 c 0.40846,0 0.71781,-0.20254 0.92863,-0.60771 0.30304,0.47764 0.68044,0.71675 1.13171,0.71675 0.33599,0 0.60742,-0.10543 0.81494,-0.31626 0.20752,-0.21411 0.31161,-0.49115 0.31161,-0.83044 0,-0.51056 -0.099,-0.94849 -0.29662,-1.31412 -0.24375,-0.44799 -0.59614,-0.67179 -1.0573,-0.67179 z m -43.5746,0.50384 c -0.0231,0 -0.0425,0.0181 -0.0589,0.0543 l -0.47956,1.01286 c 0.17458,0.13176 0.35724,0.31816 0.54829,0.55861 0.22399,0.28328 0.33641,0.50387 0.33641,0.66199 0,0.3788 -0.308,0.80516 -0.92397,1.2795 -0.53363,0.41174 -1.10712,0.72809 -1.7198,0.94878 -0.0428,0.0165 -0.0641,0.0312 -0.0641,0.0444 0,0.023 0.0245,0.0411 0.0739,0.0543 0.42822,0.168 1.08538,0.25218 1.97146,0.25218 0.0461,0 0.165,-0.10033 0.35605,-0.30127 0.25692,-0.2668 0.46271,-0.56513 0.61753,-0.89451 0.21404,-0.46432 0.32084,-0.96177 0.32091,-1.4919 0,0 0,-5.2e-4 0,-5.2e-4 -1.3e-4,-0.81669 -0.30625,-1.5315 -0.9188,-2.14405 -0.0297,-0.0231 -0.0496,-0.0346 -0.0594,-0.0346 z m 43.61387,0.10386 c 0.17788,0 0.34625,0.14151 0.50436,0.42478 0.13835,0.25036 0.20723,0.47416 0.20723,0.67181 0,0.34256 -0.11837,0.51418 -0.35554,0.51418 -0.19764,0 -0.36924,-0.14985 -0.51418,-0.44959 -0.11858,-0.25035 -0.17777,-0.4876 -0.17777,-0.71159 0,-0.29975 0.11191,-0.44959 0.3359,-0.44959 z m 19.44274,0 c 0.17788,0 0.34626,0.14151 0.50437,0.42478 0.13834,0.25036 0.20722,0.47416 0.20722,0.67181 0,0.34256 -0.11838,0.51418 -0.35554,0.51418 -0.19764,0 -0.36924,-0.14985 -0.51418,-0.44959 -0.11858,-0.25035 -0.17776,-0.4876 -0.17776,-0.71159 0,-0.29975 0.1119,-0.44959 0.33589,-0.44959 z m 20.99924,0 c 0.17788,0 0.34574,0.14151 0.50384,0.42478 0.13835,0.25036 0.20774,0.47416 0.20774,0.67181 0,0.34256 -0.11836,0.51418 -0.35553,0.51418 -0.19764,0 -0.36925,-0.14985 -0.51418,-0.44959 -0.11858,-0.25035 -0.17777,-0.4876 -0.17777,-0.71159 0,-0.29975 0.11191,-0.44959 0.3359,-0.44959 z m -99.442,0.0589 c 0.17129,0 0.34613,0.0611 0.524,0.18295 0.19105,0.13176 0.28629,0.28022 0.28629,0.44493 0,0.17787 -0.2483,0.30645 -0.74569,0.38551 -0.30963,0.0494 -0.63243,0.0739 -0.96842,0.0739 h -0.9095 c 0.66209,-0.72468 1.26652,-1.08727 1.81333,-1.08727 z m 18.65727,0.27182 c 0.0692,0 0.14315,0.0167 0.22221,0.0496 0.079,0.033 0.1549,0.0792 0.22737,0.13849 0.0757,0.0593 0.14514,0.12817 0.20774,0.20724 0.0626,0.0791 0.11159,0.1646 0.14779,0.25682 -0.27339,0.0395 -0.49398,0.0594 -0.66197,0.0594 -0.36893,0 -0.55346,-0.11513 -0.55346,-0.34571 0,-0.0494 0.0116,-0.0957 0.0346,-0.13849 0.0231,-0.0461 0.0545,-0.0854 0.0941,-0.11834 0.0395,-0.0329 0.0839,-0.0593 0.13333,-0.0791 0.0494,-0.0197 0.0989,-0.03 0.14831,-0.03 z m 15.58354,0 c 0.0692,0 0.14367,0.0167 0.22273,0.0496 0.079,0.033 0.15491,0.0792 0.22737,0.13849 0.0757,0.0593 0.14463,0.12817 0.20722,0.20724 0.0626,0.0791 0.11212,0.1646 0.14832,0.25682 -0.2734,0.0395 -0.49399,0.0594 -0.66198,0.0594 -0.36893,0 -0.55345,-0.11513 -0.55345,-0.34571 0,-0.0494 0.0115,-0.0957 0.0346,-0.13849 0.0231,-0.0461 0.054,-0.0854 0.0935,-0.11834 0.0395,-0.0329 0.0845,-0.0593 0.13385,-0.0791 0.0494,-0.0197 0.0984,-0.03 0.14779,-0.03 z m 13.26172,0.17313 c 0.0692,0 0.14316,0.0167 0.22221,0.0496 0.0791,0.033 0.15491,0.0787 0.22738,0.13797 0.0757,0.0593 0.14514,0.13005 0.20774,0.2124 0.0626,0.0791 0.11211,0.16512 0.14831,0.25734 -0.13835,0.0165 -0.26233,0.0294 -0.37104,0.0393 -0.1087,0.01 -0.20581,0.015 -0.29145,0.015 -0.36893,0 -0.55346,-0.11514 -0.55346,-0.34573 0,-0.0494 0.0116,-0.0957 0.0346,-0.13849 0.0231,-0.0461 0.0545,-0.0859 0.0941,-0.11885 0.0395,-0.0329 0.0839,-0.0593 0.13332,-0.0791 0.0494,-0.0198 0.0989,-0.0294 0.14831,-0.0294 z m 6.86315,2.44584 -0.60772,0.60772 0.60772,0.60254 0.60255,-0.60254 z m 1.34876,0 -0.60772,0.60772 0.60772,0.60254 0.60306,-0.60254 z m 48.96031,0.11369 -0.66714,0.67179 0.66714,0.67179 0.6718,-0.67179 z m -53.94554,0.23203 -0.60772,0.60305 0.60772,0.60773 0.60255,-0.60773 z m 1.34876,0 -0.60772,0.60305 0.60772,0.60773 0.60254,-0.60773 z m 2.97449,0.65731 -0.60306,0.60771 0.60306,0.60256 0.60255,-0.60256 z m 29.09487,4.46434 c -1.37364,0.32051 -2.49027,0.61278 -3.34967,0.87694 l -0.17984,0.5917 c 0.88759,-0.26063 2.02551,-0.56165 3.41323,-0.9033 z m -76.09407,0.23771 c -0.0282,0 -0.0741,0.0267 -0.13746,0.0796 l -0.97203,0.80822 0.50178,5.579 c 0.0282,0.32756 0.0653,0.49144 0.1111,0.49144 0.0282,0 0.0774,-0.0743 0.1478,-0.22221 0.26768,-0.56706 0.40152,-0.97517 0.40152,-1.22525 v -5.39967 c 0,-0.074 -0.0175,-0.1111 -0.0527,-0.1111 z m 98.82239,0 c -0.0282,0 -0.0741,0.0267 -0.13746,0.0796 l -0.97203,0.80822 0.50178,5.579 c 0.0282,0.32756 0.0653,0.49144 0.1111,0.49144 0.0282,0 0.0773,-0.0743 0.1478,-0.22221 0.26768,-0.56706 0.40152,-0.97517 0.40152,-1.22525 v -5.39967 c 0,-0.074 -0.0175,-0.1111 -0.0527,-0.1111 z m -33.14164,0.005 c -0.0176,0 -0.0793,0.0426 -0.185,0.12711 l -0.87179,0.70797 c -0.0211,0.0211 -0.0315,0.0561 -0.0315,0.10542 v 0.0475 c 0.004,0.0141 0.007,0.0299 0.0103,0.0475 0.0564,0.30291 0.11479,0.94754 0.17466,1.93374 0.0529,0.87349 0.0791,1.52686 0.0791,1.96008 0,0.27474 0.0333,0.52328 0.10025,0.74519 0.0669,0.21836 0.16033,0.40303 0.28009,0.55448 0.12327,0.15145 0.26967,0.26781 0.43873,0.34882 0.16907,0.081 0.35754,0.12144 0.56534,0.12144 h 0.48059 5.10873 c 0.30642,0 0.63748,-0.0262 0.99322,-0.0791 0.41562,-0.0634 0.6904,-0.14427 0.82424,-0.24288 0.42616,-0.32052 0.65341,-0.77503 0.68161,-1.36323 0.54946,0.61638 0.93515,1.0179 1.15704,1.20457 0.38039,0.32052 0.74149,0.48059 1.08314,0.48059 h 0.67593 5.1356 0.40152 c 0.57412,0 1.00188,-0.24093 1.28365,-0.72346 0.27472,0.48253 0.63747,0.72346 1.0883,0.72346 0.41914,0 0.76439,-0.24093 1.0356,-0.72346 0.28529,0.48253 0.636,0.72346 1.05161,0.72346 0.45436,0 0.81875,-0.24093 1.09348,-0.72346 0.28177,0.48253 0.64617,0.72346 1.09347,0.72346 h 0.45992 5.13509 0.17415 c 0.57058,0 0.99341,-0.24638 1.26814,-0.73948 0.20076,-0.36278 0.30127,-0.80474 0.30127,-1.32602 0,-0.25359 -0.0497,-0.52509 -0.14831,-0.8139 -0.10215,-0.30995 -0.23383,-0.54924 -0.39584,-0.7183 -0.0528,-0.0564 -0.10578,-0.0476 -0.15865,0.0264 l -0.61805,0.86093 c -0.0458,0.0634 -0.0458,0.12017 0,0.1695 0.39448,0.43323 0.5917,0.7326 0.5917,0.89814 0,0.19019 -0.25349,0.28525 -0.76068,0.28525 h -0.25373 -5.13509 -0.40721 c -0.33461,0 -0.56844,-0.10597 -0.70228,-0.31729 -0.0564,-0.0881 -0.1148,-0.28362 -0.17467,-0.58653 -0.0423,-0.21134 -0.12148,-0.31678 -0.23771,-0.31678 -0.13737,0 -0.23572,0.10544 -0.29559,0.31678 -0.10213,0.34868 -0.1655,0.54589 -0.19017,0.59168 -0.11975,0.21134 -0.31532,0.3173 -0.58653,0.3173 -0.31699,0 -0.53715,-0.10597 -0.66042,-0.3173 -0.0423,-0.0704 -0.0969,-0.26765 -0.16382,-0.59168 -0.0458,-0.21134 -0.12664,-0.31678 -0.24288,-0.31678 -0.13385,0 -0.22892,0.10544 -0.28525,0.31678 -0.0881,0.33108 -0.15195,0.52828 -0.19068,0.59168 -0.1268,0.21134 -0.3415,0.3173 -0.64441,0.3173 -0.30642,0 -0.51784,-0.10597 -0.63407,-0.3173 -0.0352,-0.0634 -0.0915,-0.2606 -0.16898,-0.59168 -0.0493,-0.21134 -0.13892,-0.31678 -0.26924,-0.31678 -0.11978,0 -0.20609,0.10544 -0.25889,0.31678 -0.0739,0.30994 -0.13731,0.5055 -0.19017,0.58653 -0.13384,0.21132 -0.35781,0.31729 -0.67128,0.31729 h -0.5333 -5.1356 -0.6811 c -0.28177,0 -0.5582,-0.0989 -0.82941,-0.29611 -0.16554,-0.11975 -0.49876,-0.42077 -0.9989,-0.9033 -0.60934,-0.58819 -1.18679,-1.11102 -1.73271,-1.5689 0.85235,-0.23246 1.83843,-0.43677 2.95847,-0.61288 l 0.34882,-1.1467 c -1.01085,0.16907 -2.36514,0.50887 -4.0628,1.01958 l -0.2589,1.24178 c 0.3663,0.23247 0.7345,0.53019 1.10432,0.89297 0.43323,0.42617 0.64958,0.75178 0.64958,0.97719 0,0.26417 -0.63753,0.39637 -1.91255,0.39637 h -5.24619 v 0.005 h -0.0372 c -0.56002,0 -0.84026,-0.2502 -0.84026,-0.75034 l 0.0109,-4.44315 c 0,-0.0916 -0.0109,-0.14072 -0.032,-0.14779 z m 20.42459,0.43356 -0.64957,0.6444 0.64957,0.6444 0.64492,-0.6444 z m 9.91154,0.35399 -0.7183,0.7183 0.7183,0.71882 0.71313,-0.71882 z m -57.20633,0.47542 -0.71882,0.7183 0.71882,0.71881 0.71831,-0.71881 z m 46.58734,0.2377 -0.65009,0.6501 0.65009,0.64441 0.64441,-0.64441 z m 1.44229,0 -0.65009,0.6501 0.65009,0.64441 0.6444,-0.64441 z m -66.29363,0.38034 -0.64492,0.64441 0.64492,0.64492 0.64957,-0.64492 z m 1.44229,0 -0.64492,0.64441 0.64492,0.64492 0.64957,-0.64492 z m 79.52796,0.0791 c -0.0247,0 -0.0476,0.041 -0.0687,0.12196 l -0.31678,1.18338 c 0.28882,0.0775 0.65486,0.30259 1.09865,0.67593 0.4931,0.41208 0.73949,0.75734 0.73949,1.0356 0,0.15498 -0.23055,0.27133 -0.69195,0.34881 -0.31347,0.0529 -0.60574,0.0791 -0.87695,0.0791 -0.4297,0 -0.71488,-0.0809 -0.85576,-0.24288 -0.074,-0.0845 -0.11986,-0.23752 -0.13746,-0.45941 -0.0141,-0.16203 -0.0775,-0.2434 -0.19017,-0.2434 -0.19726,0 -0.32401,0.23436 -0.38034,0.70281 -0.0106,0.0881 -0.016,0.17271 -0.016,0.25372 0,0.85588 0.4578,1.28364 1.37356,1.28364 1.59905,0 2.39882,-0.63918 2.39882,-1.91771 0,-0.51072 -0.21687,-1.0428 -0.65009,-1.59576 -0.36278,-0.45788 -0.79928,-0.8485 -1.31,-1.17255 -0.0563,-0.0352 -0.0951,-0.0532 -0.11627,-0.0532 z m -130.84369,0.006 -0.74001,0.8506 c 0.0775,0.2219 0.13376,0.39071 0.16898,0.50695 -0.69386,0.27824 -1.23962,0.61147 -1.63762,0.9989 -0.081,0.17611 -0.14439,0.33238 -0.19017,0.46974 -0.0986,0.29938 -0.1478,0.51245 -0.1478,0.63923 0,0.47197 0.68507,0.70797 2.05517,0.70797 l 0.4439,-0.7183 c 0.25712,0.85235 0.66904,1.27848 1.23611,1.27848 h 0.38033 0.13746 5.13509 0.50178 c 0.2712,0 0.53015,-0.0705 0.77669,-0.21137 0.24656,-0.1444 0.43883,-0.33287 0.5762,-0.56533 0.13736,0.23246 0.33077,0.42093 0.58084,0.56533 0.25359,0.1409 0.51635,0.21137 0.78755,0.21137 h 0.35915 5.13509 0.12144 c 0.43674,0 0.7678,-0.21636 0.99322,-0.64958 0.32403,0.51071 0.72773,0.76584 1.21026,0.76584 0.35926,0 0.64937,-0.11255 0.87127,-0.33796 0.22189,-0.22894 0.33331,-0.52502 0.33331,-0.8878 0,-0.54594 -0.10597,-1.01413 -0.3173,-1.40509 -0.26064,-0.47901 -0.63758,-0.71882 -1.13068,-0.71882 -0.398,0 -0.72906,0.16934 -0.99322,0.50748 -0.24303,0.31346 -0.35012,0.64616 -0.32194,0.99838 0.0141,0.15145 -0.011,0.24815 -0.0744,0.29043 -0.0775,0.0529 -0.26761,0.0796 -0.57051,0.0796 h -0.12144 -5.13509 -0.40152 c -0.42618,0 -0.71846,-0.11471 -0.87695,-0.34364 -0.081,-0.11271 -0.14819,-0.32576 -0.20102,-0.63925 -0.0387,-0.22893 -0.12125,-0.34312 -0.24805,-0.34312 -0.13032,0 -0.21663,0.11419 -0.2589,0.34312 -0.0564,0.30996 -0.13557,0.52301 -0.23771,0.63925 -0.19724,0.22893 -0.5534,0.34364 -1.06763,0.34364 h -0.29043 -5.13509 -0.13746 -0.22737 c -0.23246,0 -0.39799,-0.0475 -0.49661,-0.14263 -0.15498,-0.14792 -0.27627,-0.4615 -0.36432,-0.9405 -0.26064,-1.39125 -0.42072,-2.15552 -0.48059,-2.29288 z m 91.18771,0.99323 c -0.25711,0.17963 -0.53189,0.53528 -0.82423,1.06711 -0.31347,0.57058 -0.47026,1.05462 -0.47026,1.45263 0,0.30291 0.0847,0.56185 0.25373,0.7767 0.24655,0.30994 0.64479,0.46508 1.19424,0.46508 0.5072,0 0.90492,-0.15134 1.19373,-0.45423 0.29233,-0.30644 0.43873,-0.71341 0.43873,-1.2206 0,-0.58467 -0.19886,-1.05833 -0.59686,-1.4211 -0.26416,-0.2395 -0.66076,-0.4613 -1.18908,-0.66559 z m -31.56189,0.11626 c -0.5882,0 -1.02306,0.15679 -1.30483,0.47026 -0.16907,0.18667 -0.25373,0.35715 -0.25373,0.51211 0,0.11271 0.0497,0.16899 0.14831,0.16899 0.1585,0 0.44913,0.27695 0.87178,0.82993 -0.24655,0.19018 -0.61855,0.28524 -1.11518,0.28524 h -0.19534 -5.13508 -0.40153 c -0.42618,0 -0.71845,-0.11471 -0.87695,-0.34364 -0.081,-0.11271 -0.14822,-0.32576 -0.20102,-0.63925 -0.0387,-0.22893 -0.12125,-0.34312 -0.24805,-0.34312 -0.13032,0 -0.21663,0.11419 -0.2589,0.34312 -0.0564,0.30995 -0.13556,0.52301 -0.23771,0.63925 -0.19724,0.22893 -0.5534,0.34364 -1.06763,0.34364 h -0.29042 -5.13509 -0.89814 c -0.85235,0 -1.52156,0.24639 -2.00763,0.73949 -0.36981,0.37335 -0.555,0.75358 -0.555,1.14102 0,0.25359 0.18519,0.43331 0.555,0.53898 0.19021,0.0564 0.53166,0.10226 1.02475,0.13747 0.3663,0.0282 0.54932,0.0719 0.54932,0.13177 0,0.12327 -0.26769,0.23089 -0.80305,0.32246 -0.44379,0.0775 -0.80108,0.11627 -1.07229,0.11627 -0.796,0 -1.3718,-0.0601 -1.72754,-0.17984 -0.57763,-0.19372 -0.86662,-0.5794 -0.86662,-1.15703 0,-0.2219 0.0492,-0.46664 0.1478,-0.73433 0.0986,-0.26767 0.14831,-0.41354 0.14831,-0.43821 0,-0.14793 -0.083,-0.22221 -0.24856,-0.22221 -0.1268,0 -0.30108,0.2431 -0.52297,0.72916 -0.23246,0.50718 -0.34881,0.93876 -0.34881,1.29449 0,1.30671 0.89318,1.9601 2.6789,1.9601 0.8594,0 1.5674,-0.11473 2.1239,-0.34366 0.78896,-0.32756 1.18339,-0.85911 1.18339,-1.59524 0,-0.21839 -0.10215,-0.37682 -0.30644,-0.47543 -0.15849,-0.0775 -0.43873,-0.14083 -0.84026,-0.19017 -0.32051,-0.0387 -0.56145,-0.0671 -0.72347,-0.0847 -0.18667,-0.0247 -0.28008,-0.0738 -0.28008,-0.1478 0,-0.12327 0.1038,-0.21669 0.31161,-0.28009 0.1444,-0.0423 0.29573,-0.0636 0.45423,-0.0636 0.1902,0 0.47373,0.0268 0.8506,0.0796 0.38039,0.0529 0.66556,0.0791 0.85576,0.0791 h 0.31729 5.13509 0.50178 c 0.2712,0 0.53014,-0.0705 0.77669,-0.21136 0.24655,-0.1444 0.43883,-0.33288 0.57619,-0.56534 0.13737,0.23246 0.33077,0.42094 0.58085,0.56534 0.25359,0.14089 0.51635,0.21136 0.78755,0.21136 h 0.35915 5.13508 v -5.2e-4 c 0.69706,-0.007 1.31164,-0.308 1.84382,-0.90279 0.24303,0.29939 0.45279,0.5037 0.6289,0.61289 0.31347,0.19371 0.7221,0.29042 1.22577,0.29042 h 0.15296 5.13508 0.5023 c 0.27121,0 0.53015,-0.0705 0.7767,-0.21136 0.24654,-0.1444 0.43831,-0.33288 0.57567,-0.56534 0.13736,0.23246 0.33129,0.42094 0.58136,0.56534 0.2536,0.14089 0.51583,0.21136 0.78703,0.21136 h 0.35916 5.13508 0.0584 c 0.51423,0 0.9174,-0.2393 1.20974,-0.7183 0.19724,0.28529 0.46164,0.48086 0.79272,0.58652 0.24303,0.0775 0.57573,0.11576 0.99839,0.11576 1.17639,0 2.06412,-0.25514 2.66288,-0.76584 0.49662,-0.42618 0.74466,-0.9703 0.74466,-1.63246 0,-0.35222 -0.13003,-0.63739 -0.39067,-0.85577 -0.24303,-0.2078 -0.54457,-0.3116 -0.90382,-0.3116 -0.45436,0 -0.99848,0.28517 -1.63246,0.85576 -0.41914,0.38039 -0.8327,0.83655 -1.24127,1.36839 -0.29233,0 -0.5021,-0.10761 -0.6289,-0.32246 -0.0423,-0.0704 -0.10399,-0.26766 -0.185,-0.5917 -0.0528,-0.21484 -0.14244,-0.32246 -0.26924,-0.32246 -0.10917,0 -0.18674,0.10762 -0.23254,0.32246 -0.0599,0.2853 -0.13364,0.48251 -0.22169,0.5917 -0.16906,0.21485 -0.46679,0.32246 -0.89297,0.32246 h -5.00331 -0.40153 c -0.42617,0 -0.71845,-0.11471 -0.87695,-0.34365 -0.081,-0.11271 -0.14815,-0.32576 -0.20102,-0.63924 -0.0387,-0.22894 -0.12125,-0.34313 -0.24805,-0.34313 -0.13032,0 -0.21663,0.11419 -0.2589,0.34313 -0.0564,0.30995 -0.13557,0.52301 -0.23771,0.63924 -0.19724,0.22894 -0.55288,0.34365 -1.06712,0.34365 h -0.29094 -5.13508 -0.29042 c -0.58467,0 -0.97746,-0.0863 -1.17823,-0.2589 0.30643,-0.24655 0.49491,-0.40498 0.56535,-0.47543 0.23598,-0.23597 0.35398,-0.45285 0.35398,-0.65008 0,-0.27474 -0.16388,-0.49653 -0.49144,-0.66559 -0.28178,-0.14443 -0.60245,-0.21654 -0.9617,-0.21654 z m -37.84318,0.28474 c -0.39095,0 -0.72911,0.289 -1.0144,0.86662 -0.23598,0.47549 -0.35399,0.90161 -0.35399,1.27848 0,0.17609 0.0246,0.32743 0.0739,0.45423 0.0493,0.12327 0.13017,0.22544 0.24288,0.30644 0.11623,0.081 0.26757,0.14111 0.45424,0.17984 0.19019,0.0352 0.42455,0.0527 0.7028,0.0527 h 0.14779 c 0.0669,-0.003 0.13575,-0.005 0.20619,-0.005 h 0.20102 c 0.0669,-0.003 0.11607,-0.005 0.1478,-0.005 0,0.34518 -0.32613,0.77674 -0.97772,1.2945 -0.59172,0.47197 -1.2025,0.82266 -1.83296,1.05161 -0.0458,0.0141 -0.0687,0.0316 -0.0687,0.0527 0,0.0141 0.0262,0.0316 0.0791,0.0527 0.52127,0.17964 1.22382,0.26925 2.10788,0.26925 0.0528,0 0.17793,-0.10545 0.37517,-0.31678 0.62695,-0.66921 0.94052,-1.46517 0.94052,-2.38797 v -0.82475 c 0,-0.54946 -0.10216,-1.04061 -0.30644,-1.47382 -0.26416,-0.56353 -0.63895,-0.84542 -1.12501,-0.84542 z m -22.20019,0.61856 c 0.12328,0.46494 0.21833,0.81514 0.28526,1.05111 -0.92633,0 -1.45131,-0.0967 -1.57459,-0.29043 0.11271,-0.20076 0.54264,-0.45425 1.28933,-0.76068 z m 26.64851,0.0264 c -0.0247,0 -0.046,0.0197 -0.0636,0.0584 l -0.51263,1.08313 c 0.18668,0.14089 0.38225,0.33975 0.58653,0.59685 0.23951,0.30291 0.35915,0.53891 0.35915,0.70797 0,0.40506 -0.32889,0.86122 -0.98753,1.3684 -0.57059,0.44027 -1.18353,0.77842 -1.83865,1.01441 -0.0458,0.0176 -0.0687,0.0335 -0.0687,0.0475 0,0.0247 0.0262,0.0438 0.0791,0.0579 0.45788,0.17964 1.16095,0.26925 2.1084,0.26925 0.0493,0 0.17605,-0.1071 0.38034,-0.32196 0.27473,-0.28528 0.49489,-0.6043 0.66043,-0.95652 0.22894,-0.49662 0.34313,-1.02818 0.34313,-1.59525 0,-0.87348 -0.32777,-1.63776 -0.98289,-2.29288 -0.0317,-0.0247 -0.0524,-0.0372 -0.063,-0.0372 z m -8.54832,0.11109 c 0.19019,0 0.36992,0.15134 0.53898,0.45425 0.14793,0.26767 0.22169,0.50696 0.22169,0.7183 0,0.36629 -0.12674,0.54983 -0.38033,0.54983 -0.21133,0 -0.39435,-0.16059 -0.54932,-0.48111 -0.1268,-0.26768 -0.19017,-0.52117 -0.19017,-0.76067 0,-0.32052 0.11964,-0.4806 0.35915,-0.4806 z m 73.24618,0.005 c 0.6199,0.20076 1.1028,0.5056 1.44797,0.91417 0.0881,0.10566 0.0772,0.19691 -0.032,0.2744 -0.18667,0.13383 -0.46146,0.20101 -0.82424,0.20101 -0.24303,0 -0.45609,-0.0426 -0.63924,-0.12711 -0.20428,-0.0951 -0.30644,-0.22184 -0.30644,-0.38034 0,-0.32755 0.11801,-0.62148 0.35399,-0.88212 z m -10.82001,0.0847 c 0.23949,0 0.45256,0.0508 0.63923,0.15296 0.23246,0.12329 0.34882,0.29428 0.34882,0.51263 0,0.11273 -0.1393,0.21981 -0.41755,0.32195 -0.35221,0.13032 -0.83296,0.19586 -1.44229,0.19586 -0.25712,0 -0.52974,-0.0109 -0.81855,-0.032 0.67272,-0.76782 1.23597,-1.15135 1.69034,-1.15135 z m -58.57473,0.26407 c 0.074,0 0.15318,0.0175 0.23771,0.0527 0.0845,0.0352 0.1654,0.0844 0.24288,0.14779 0.081,0.0634 0.15529,0.13768 0.22221,0.22221 0.0669,0.0845 0.11992,0.17578 0.15865,0.2744 -0.29234,0.0423 -0.52834,0.0636 -0.70797,0.0636 -0.39448,0 -0.59221,-0.12345 -0.59221,-0.37 0,-0.0528 0.0125,-0.10199 0.0372,-0.14779 0.0247,-0.0493 0.058,-0.0914 0.10025,-0.12661 0.0423,-0.0352 0.0898,-0.0636 0.14263,-0.0848 0.0528,-0.0211 0.10582,-0.0315 0.15865,-0.0315 z m -13.85807,3.16983 -0.64957,0.64441 0.64957,0.65008 0.64493,-0.65008 z m 1.44281,0 -0.65009,0.64441 0.65009,0.65008 0.6444,-0.65008 z"
         style="font-weight:bold;font-size:10.11909962px;line-height:1.25;font-family:Nazli;-inkscape-font-specification:'Nazli, Bold';letter-spacing:0px;word-spacing:0px;fill:#ffffff;stroke-width:0.252978"
         id="path17364"
         inkscape:connector-curvature="0" />
    </g>
  </g>
</svg>
