<svg id="ejPZOb485iF1" xmlns="http://www.w3.org/2000/svg" xmlns:xlink="http://www.w3.org/1999/xlink" viewBox="0 0 507.99998 285.75001" shape-rendering="geometricPrecision" text-rendering="geometricPrecision"><g transform="matrix(.648682 0 0 0.648683 89.23478 50.194374)"><path id="ejPZOb485iF3" d="M62.753282,-60.761966c-4.96646,0-8.964746,3.998323-8.964746,8.964746s3.998286,8.964708,8.964746,8.964708s8.964746-3.998323,8.964746-8.964708-3.998286-8.964746-8.964746-8.964746Z" transform="matrix(-.000631 0 0 0.999993 107.622265-.000362)" stroke-width="0.831603"/><path id="ejPZOb485iF4" d="M89.647519,-60.761966v17.929454h328.704701v-17.929454Z" transform="matrix(1 0 0 0.000889 0 86.323601)" stroke-width="0.831603"/><path id="ejPZOb485iF5" d="M445.24646,-60.761966c-4.96642,0-8.96471,3.998323-8.96471,8.964746s3.99829,8.964708,8.96471,8.964708c4.96654,0,8.96482-3.99836,8.96482-8.964708s-3.99828-8.964746-8.96482-8.964746Z" transform="matrix(-.000656 0 0 1.000007 400.70889 0.000363)" stroke-width="0.831603"/><path id="ejPZOb485iF6" d="M31.376635,-15.938218c-7.449709,0-13.447119,5.997447-13.447119,13.447081s5.99741,13.447156,13.447119,13.447156s13.447118-5.997447,13.447118-13.447156-5.997484-13.447081-13.447118-13.447081Z" transform="matrix(-.000599 0 0 1 89.674367 0.000001)" stroke-width="0.831603"/><path id="ejPZOb485iF7" d="M76.200401,-15.938218c-7.449709,0-13.447119,5.997447-13.447119,13.447081s5.99741,13.447156,13.447119,13.447156h13.447118v-13.447156-13.447081Z" transform="matrix(-.000591 0 0 1 89.700501 0)" stroke-width="0.831603"/><path id="ejPZOb485iF8" d="M418.35222,-15.938218v26.894237h13.4472c7.44963,0,13.44704-5.997485,13.44704-13.447156s-5.99741-13.447081-13.44704-13.447081Z" transform="matrix(-.000307 0 0 1.000002 418.480654 0.000003)" stroke-width="0.831603"/><path id="ejPZOb485iF9" d="M476.62315,-15.938218c-7.44964,0-13.44716,5.997447-13.44716,13.447081s5.99752,13.447156,13.44716,13.447156s13.44708-5.997485,13.44708-13.447156-5.99738-13.447081-13.44708-13.447081Z" transform="matrix(.000639 0 0 1 418.047996 0.000001)" stroke-width="0.831603"/><path id="ejPZOb485iF10" d="M17.929516,37.850256c-9.932883,0-17.929491,7.996608-17.929491,17.929491s7.996608,17.929492,17.929491,17.929492s17.929492-7.996609,17.929492-17.929492-7.996609-17.929491-17.929492-17.929491Z" transform="matrix(-.00045 0 0 1.000004 89.663655-.00022)" stroke-width="0.831603"/><path id="ejPZOb485iF11" d="M71.718028,37.850256c-9.93292,0-17.929492,7.996608-17.929492,17.929491s7.996572,17.929492,17.929492,17.929492h17.929491v-35.858983Z" transform="matrix(-.00045 0 0 1.000001 89.68786-.000056)" stroke-width="0.831603"/><path id="ejPZOb485iF12" d="M418.35222,37.850256v35.858983h17.92953c9.933,0,17.92953-7.996609,17.92953-17.929529s-7.99653-17.929492-17.92953-17.929492Z" transform="matrix(.000245 0 0 0.999999 418.249724 0.000056)" stroke-width="0.831603"/><path id="ejPZOb485iF13" d="M490.07023,37.850256c-9.93289,0-17.92953,7.996608-17.92953,17.929491s7.99664,17.929492,17.92953,17.929492s17.92956-7.996609,17.92956-17.929492-7.99668-17.929491-17.92956-17.929491Z" transform="matrix(-.000527 0 0 1.000003 418.611019-.000164)" stroke-width="0.831603"/><path id="ejPZOb485iF14" d="M31.376635,100.60351c-7.449709,0-13.447119,5.99738-13.447119,13.44716c0,7.4496,5.99741,13.44708,13.447119,13.44708s13.447118-5.99748,13.447118-13.44708c0-7.44978-5.997484-13.44716-13.447118-13.44716Z" transform="matrix(-.000599 0 0 1 89.674367-.000001)" stroke-width="0.831603"/><path id="ejPZOb485iF15" d="M76.200401,100.60351c-7.449709,0-13.447119,5.99749-13.447119,13.44716s5.99741,13.44708,13.447119,13.44708h13.447118v-26.8942Z" transform="matrix(-.00056 0 0 1 89.697724 0)" stroke-width="0.831603"/><path id="ejPZOb485iF16" d="M418.35222,100.60351v26.89424h13.4472c7.44963,0,13.44704-5.99745,13.44704-13.44712s-5.99741-13.44712-13.44704-13.44712Z" transform="matrix(.000325 0 0 1 418.216256 0)" stroke-width="0.831603"/><path id="ejPZOb485iF17" d="M476.62315,100.60351c-7.44964,0-13.44716,5.99749-13.44716,13.44716s5.99752,13.44708,13.44716,13.44708s13.44708-5.99741,13.44708-13.44708-5.99738-13.44716-13.44708-13.44716Z" transform="matrix(.000678 0 0 1 418.029932-.000001)" stroke-width="0.831603"/><path id="ejPZOb485iF18" d="M62.753282,154.39202c-4.96646,0-8.964746,3.99829-8.964746,8.96475s3.998286,8.96475,8.964746,8.96475s8.964746-3.99833,8.964746-8.96475-3.998286-8.96475-8.964746-8.96475Z" transform="matrix(-.000597 0 0 1.000005 107.619829-.000853)" stroke-width="0.831603"/><path id="ejPZOb485iF19" d="M89.647519,154.39202v17.9295h328.704701v-17.9295Z" transform="matrix(1 0 0-.000718 0 86.394806)" stroke-width="0.831603"/><path id="ejPZOb485iF20" d="M445.24646,154.39202c-4.96642,0-8.96471,3.99829-8.96471,8.96475s3.99829,8.96475,8.96471,8.96475c4.96654,0,8.96482-3.99833,8.96482-8.96475s-3.99828-8.96475-8.96482-8.96475Z" transform="matrix(-.001082 0 0 0.999999 400.894746 0.000172)" stroke-width="0.831603"/><path id="ejPZOb485iF21" d="M200.62823,186.18335v17.09796h106.74328v-17.09796Z" transform="matrix(-.000209 0 0 1 254.052964 0)" stroke-width="0.831603"/><path id="ejPZOb485iF22" d="M195.84653,262.81254l-2.51925,2.52112l2.51925,2.49986l2.50177-2.49986Zm203.59404.29662c-.0263,0-.0922.0431-.20362.12975l-3.63349,3.37192c.54349,2.1987.81585,6.44246.81585,12.72982c0,1.69226-.89479,2.5386-2.6859,2.5386h-2.83507v.0188h-.40695c-.83996,0-1.46434-.31575-1.872-.94571l-1.16659-2.61221c-.92644-2.06288-2.31742-3.09476-4.1703-3.09476-1.38345,0-2.53143.60525-3.44553,1.81578-.83989,1.11173-1.21106,2.28585-1.11233,3.5211.0491.53111-.0375.87105-.2595,1.01933-.27187.18525-.93757.27712-1.99987.27712h-1.11236-3.15098c-2.98927,0-5.33561.8655-7.04024,2.59481-1.29701,1.30935-1.94561,2.64293-1.94561,4.0017c0,.88939.6486,1.51886,1.94561,1.88936.66701.19763,1.8654.35888,3.59475.48259c1.28463.0986,1.92622.25312,1.92622.46316c0,.4323-.93818.80858-2.81572,1.12976-1.5564.27188-2.81025.40695-3.7614.40695-2.79165,0-4.81016-.20962-6.05775-.62981-2.02579-.67942-3.03859-2.03209-3.03859-4.05787c0-.7782.17138-1.63665.51743-2.57543.34575-.93877.51934-1.45023.51934-1.53674c0-.51878-.2895-.77903-.87012-.77903-.44467,0-1.05693.85335-1.83513,2.55799-.81525,1.77877-1.2228,3.29088-1.2228,4.53847c0,4.58276,3.13211,6.87363,9.39476,6.87363c3.01398,0,5.49554-.4005,7.44723-1.20341c2.76694-1.14877,4.15091-3.01492,4.15091-5.59657c0-.76583-.35925-1.32071-1.07554-1.66661-.55586-.27188-1.53735-.49358-2.94554-.66656-1.12407-.13613-1.9704-.23475-2.5386-.29663-.65468-.0866-.98055-.25987-.98055-.51934c0-.43237.36412-.7602,1.09293-.9825.50648-.14812,1.03707-.22275,1.59293-.22275.66705,0,1.66068.0937,2.98237.279c1.21845.16913,2.15565.26063,2.81768.27525v.002h2.40877c1.53169,0,2.69179-.75957,3.48232-2.27892c1.13644,1.79112,2.49619,2.68782,4.07726,2.68782c1.77878,0,3.02558-.9522,3.74201-2.85447.2595.66702.67909,1.24103,1.25963,1.72275.59295.48173,1.22943.72282,1.90878.72282h2.83512c.33337,0,.67852-.0607,1.03676-.18413.35812-.12337.69817-.29175,1.01932-.5019.33338-.21.63713-.45619.90885-.74029.28388-.28387.51109-.58766.68408-.90885.12375.32138.309.62479.55616.90885.2595.28425.55597.53029.88946.74029.33338.21.69259.37841,1.07554.5019.39529.12338.79578.18413,1.20341.18413h2.46495h1.38945c.23475,0,.70983-.0484,1.42627-.14738.72881-.111,1.70524-.27262,2.92811-.48251c1.4082-.24713,2.84059-.44993,4.29821-.61046c1.45755-.17288,2.95954-.31013,4.5036-.40887l2.09288-3.85248c0,0,0-.002,0-.002.0735-.12263.1125-.2205.1125-.29475c0-.0495-.0746-.0757-.22275-.0757h-.12975c-.0495,0-.105.007-.1665.0187-.67939.0863-1.50657.15412-2.48239.20362-.97583.0375-2.10154.0563-3.37384.0563-1.45758,0-2.67318-.50126-3.64901-1.50183-.76582-.76583-1.14915-1.41956-1.14915-1.96305c0-.30863.13013-.59325.38952-.85268.2595-.2595.59932-.48135,1.01932-.6666s.90019-.32775,1.44371-.42633c.54353-.11138,1.09328-.1665,1.6491-.1665c1.49468,0,2.90287.22687,4.22456.68403.33375.12338.5817.186.7422.186s.24038-.0746.24038-.22275c0-.18525-.111-.49398-.33338-.92632-.2595-.4941-.57514-.95006-.94567-1.37006-.35813-.43234-.75169-.80351-1.18407-1.11233-.43229-.30862-.88323-.54982-1.35262-.72281-.45701-.18525-.91496-.27712-1.37201-.27712-1.69226,0-3.37282.87562-5.04037,2.62968-1.56878,1.64288-2.35257,3.15694-2.35257,4.54043c0,.22237.0375.48254.11025.77898.0866.28425.19238.56666.31575.85073.13575.28425.28313.55143.44374.79841.17288.24712.3465.43762.51938.5736h-4.09474-1.46306c-1.74172,0-2.6142-.87053-2.6142-2.61225v-15.9544c0-.13575-.03-.20363-.0911-.20363Zm-296.92163.0188c-.099,0-.26025.0919-.48255.27712l-3.408675,2.83512l1.759575,19.56662c.099,1.14874.22912,1.72275.38951,1.72275.099,0,.27225-.25837.51934-.77707.93877-1.98881,1.40884-3.42319,1.40884-4.30012v-18.93491c0-.2595-.0626-.38955-.186-.38955Zm405.29482,0c-.099,0-.26025.0919-.48252.27712l-3.40871,2.83512l1.75958,19.56662c.099,1.14874.22912,1.72275.38951,1.72275.099,0,.27225-.25837.51934-.77707.93881-1.98881,1.40883-3.42319,1.40883-4.30012v-18.93491c0-.2595-.0626-.38955-.186-.38955Zm-475.313776.0188c-.06188,0-.278625.14925-.6492.44576l-3.057936,2.48239c-.07425.0739-.110625.19725-.110625.37012v.1665c.01125.0495.02625.105.0375.1665.197625,1.0623.402375,3.32381.612338,6.78251.18525,3.06341.277125,5.35425.277125,6.87364c0,.96348.118124,1.83405.352874,2.61225.23475.76578.560588,1.41442.980587,1.94557.432338.53115.94575.9387,1.538662,1.2228.592912.28387,1.253625.4263,1.982437.4263h1.685924h1.389449c.23475,0,.711787-.0484,1.428225-.14738.728774-.111,1.703286-.27262,2.926161-.48251c1.408161-.24712,2.840623-.44992,4.29821-.61046c1.457549-.17288,2.959536-.31013,4.50356-.40886l2.092912-3.85249c0,0,0-.002,0-.002.0735-.12262.1125-.2205.1125-.29475c0-.0495-.07462-.0758-.22275-.0758h-.12975c-.0495,0-.105.008-.1665.0188-.679387.0863-1.506562.15413-2.482424.20363-.975824.0375-2.099586.0562-3.371886.0562-1.457586,0-2.675098-.50127-3.650923-1.50184-.765862-.76586-1.149149-1.41956-1.149149-1.96305c0-.30862.130125-.59329.389512-.85271.2595-.2595.599325-.48135,1.019325-.6666s.902137-.32775,1.445624-.42634c.543525-.11137,1.093274-.1665,1.649137-.1665c1.494636,0,2.902836.22688,4.224523.68404.333374.12337.579712.186.740287.186s.240375-.0746.240375-.22275c0-.18525-.111-.49399-.333375-.92633-.2595-.4941-.573188-.95006-.943762-1.37002-.358125-.43237-.753637-.80351-1.185975-1.11236-.432337-.30863-.883237-.54983-1.352624-.72281-.45705-.18525-.914962-.27713-1.372012-.27713-1.692262,0-3.372786.87563-5.040373,2.62965-1.568774,1.64287-2.352561,3.15694-2.352561,4.54042c0,.22238.03825.48259.1125.77899.08662.28425.1905.56666.313875.85072.13575.28425.285.55144.445687.79842.172875.24712.344625.43762.517425.5736h-5.176048c-1.650336-.13388-2.476573-1.00437-2.476573-2.61225l.0375-15.58237c0-.321-.0375-.49432-.110625-.51934Zm139.834436,0c-.0619,0-.27863.14925-.6492.44576l-3.05603,2.48239c-.0743.0739-.1125.19725-.1125.37012v.1665c.0112.0495.0262.105.0386.1665.19762,1.0623.40042,3.32381.61042,6.78251.18525,3.06341.279,5.35425.279,6.87364c0,.96348.11588,1.83405.35063,2.61225.23475.76578.56254,1.41442.98254,1.94557.43233.53115.94574.9387,1.53866,1.2228.59291.28387,1.25362.4263,1.98243.4263h1.68593h2.4456c.95111,0,1.85801-.24638,2.72268-.74025.86468-.50644,1.53945-1.16711,2.02121-1.98244.48173.81533,1.15969,1.476,2.03667,1.98244.88938.4941,1.81034.74025,2.76146.74025h4.13156c2.92751,0,5.08316-.46301,6.46664-1.38945c1.61817-1.08697,2.42813-3.19927,2.42813-6.33678c0-1.9023-.26738-3.63833-.79838-5.20706-.85233-2.51989-2.24137-3.77884-4.16834-3.77884-1.4082,0-2.56827.88969-3.48237,2.66842-.75348,1.46996-1.13171,2.95084-1.13171,4.44548c0,1.81582,1.22963,2.72467,3.68775,2.72467.61763,0,1.72418-.0746,3.31762-.22275.4941-.0495.74029.093.74029.42634c0,.5436-.222.92692-.66664,1.14915-1.00053.50651-2.97059.75963-5.91048.75963h-3.35445-1.40884c-1.49463,0-2.51954-.40241-3.07537-1.20532-.28425-.39529-.51821-1.14083-.70346-2.24017-.13575-.80292-.42544-1.20533-.87008-1.20533-.45705,0-.76061.40241-.90888,1.20533-.19763,1.08701-.47505,1.83254-.83325,2.24017-.69176.80291-1.94051,1.20532-3.74396,1.20532h-2.78666c-1.64993-.13425-2.47467-1.00455-2.47467-2.61225l.0375-15.58236c0-.321-.0375-.49433-.11062-.51934Zm150.30469,0c-.0619,0-.27863.14925-.6492.44576l-3.05794,2.48239c-.0743.0739-.11062.19725-.11062.37012v.1665c.0113.0495.0225.105.0375.1665.19762,1.0623.40237,3.32381.61237,6.78251.18525,3.06341.27713,5.35425.27713,6.87364c0,.96348.11812,1.83405.35287,2.61225.23475.76578.5625,1.41442.9825,1.94557.43234.53115.9438.9387,1.53671,1.2228.59291.28387,1.25363.4263,1.98244.4263h1.68596h1.63166c5.21272,0,7.81931-2.38973,7.81931-7.17007c0-1.45759-.47516-2.91619-1.42627-4.37378-.67939-1.03758-1.78594-2.32076-3.31763-3.85248c4.57039-1.61816,7.84474-2.74894,9.8211-3.39127l.77707-4.20514c-6.02797,2.17402-10.44325,3.82136-13.24724,4.94542l-.90885,4.78073c1.18582.74114,2.47796,1.87893,3.87379,3.41062c1.51934,1.66759,2.27894,2.90231,2.27894,3.70522c0,.50648-.35925.85148-1.07553,1.03673-.90173.23475-2.66198.35287-5.28067.35287h-2.02703c-1.64992-.13425-2.47462-1.00455-2.47462-2.61225l.0375-15.58237c0-.321-.0383-.49432-.1125-.51933Zm-240.853425.0188L78.3208,266.33401c1.136437,4.5333,1.703399,9.24513,1.703399,14.1367v1.4088h-3.815661c-2.025786,0-3.038586-.96427-3.038586-2.89128v-15.17343c0-.321-.03825-.48259-.1125-.48259-.0495,0-.18975.0866-.424387.25987l-2.798286,2.2053c.07425,1.02529.11025,2.01889.11025,2.98238c0,4.8792-.882637,8.38758-2.649037,10.52455-.197624-1.50697-.995512-3.21682-2.391336-5.13149-2.038161-2.79165-5.112822-5.66351-9.226158-8.61574-.21-.12337-.333-.186-.370125-.186-.07425,0-.1365.14213-.186.42638-.321,1.46989-.48255,2.75501-.48255,3.85436c0,.309.489188,1.01291,1.46505,2.11226.407587.46939.796012.89415,1.166587,1.27706s.729637.73496,1.075499,1.05619l.203625-1.57357c2.013449,1.35873,3.792823,3.00101,5.336885,4.92802c1.284637,1.60582,1.926224,2.66703,1.926224,3.18585c0,.27187-.241125.6378-.722812,1.09485-.469387.45701-1.105874.96345-1.908787,1.51927-.790574.55586-1.709586,1.13494-2.759511,1.74022-1.037624.59288-2.119949,1.16179-3.244011,1.70532-.778199.3705-1.166587.60468-1.166587.70346c0,.0743.21675.1125.6492.1125.099,0,.209625-.007.333375-.0188.13575,0,.27825-.007.4263-.0188c4.990385-.27188,7.626258-.52489,7.910358-.75964c1.717012-1.42054,3.329924-4.19861,4.836936-8.33669.0495,1.34643.160499,2.50143.333374,3.46492.18525.95115.431438,1.72282.74025,2.31574.788512,1.48814,2.117437,2.30699,3.984261,2.45718v.0262h8.115783c3.199274,0,5.861322-.60525,7.985959-1.81575c2.618699-1.50701,3.928048-3.73537,3.928048-6.68759c0-1.37112-.518512-2.43938-1.556137-3.20524-.815249-.60525-1.680711-.90885-2.594774-.90885-1.395824,0-3.14906.77876-5.261322,2.33512-1.494637,1.09935-2.760599,2.22825-3.798223,3.38933.358125-2.51985.536812-4.71698.536812-6.59456c0-1.35874-.07988-2.9283-.240375-4.70707.728775.17287,1.16055.25987,1.29645.25987.123375,0,.185999-.0383.185999-.1125c0-.0495-.03825-.16537-.112499-.35062-.95115-2.42108-1.592737-4.11372-1.926262-5.0772Zm416.189535,2.74207l-2.51925,2.51929l2.51925,2.52112l2.50178-2.52112Zm-246.2833.40695l-2.25957,2.26151l2.25957,2.25957l2.28086-2.25957Zm5.05976,0l-2.26148,2.26151l2.26148,2.25957l2.27895-2.25957Zm-75.26472,1.26162l-2.51925,2.51917l2.51925,2.51921l2.52113-2.51921ZM9.72812,269.74272l-2.261474,2.26144l2.261474,2.25956l2.259561-2.25956Zm5.05781,0l-2.261474,2.26144l2.261474,2.25956l2.278949-2.25956Zm463.45602,2.98432c-1.87759,0-3.53194,1.4445-4.96481,4.335-.21.41996-.31575.86389-.31575,1.33324c0,.4323.234.64916.70342.64916.13575,0,.55747-.36412,1.26157-1.09294.71644-.74118,1.43772-1.11236,2.16653-1.11236c1.38345,0,3.51491.50134,6.393,1.50184-2.35932,1.37118-4.1004,2.26083-5.2245,2.66846-1.6305.58061-3.56423.87011-5.80001.87011h-2.81573v.0188h-.4089c-.83996,0-1.46238-.31575-1.87001-.94567l-1.16853-2.61225c-.92644-2.06284-2.31548-3.09476-4.16835-3.09476-1.38349,0-2.53148.60521-3.44554,1.81575-.83988,1.11176-1.2111,2.28584-1.11232,3.52109.0491.53115-.0375.87109-.25988,1.01933-.27187.18525-.93952.27712-2.00182.27712h-1.11038-2.16847c-1.00054,0-1.89026-.345-2.66846-1.03676-.46939-.41996-1.10588-1.2108-1.90879-2.37191-.18525-.27187-.345-.27187-.4806,0l-1.83513,3.74201c.72877.64234,1.55085,1.59259,2.46494,2.85251c1.07468,1.48234,1.61232,2.56973,1.61232,3.26145c0,1.11172-.91392,2.01352-2.74208,2.70525-1.59348.60529-3.36585.90885-5.31749.90885-1.98878,0-3.49073-.25313-4.5036-.75968-1.39583-.70402-2.09291-1.93364-2.09291-3.68771c0-.66705.18562-1.56885.55616-2.70525.38295-1.13647.5736-1.73467.5736-1.79639c0-.69173-.24825-1.03872-.7422-1.03872-.7041,0-1.40115,1.09444-2.09288,3.2808-.59291,1.86521-.88946,3.28556-.8895,4.26139c0,1.92693.5619,3.51881,1.68597,4.77877c1.39582,1.5687,3.52023,2.35447,6.37364,2.35447c3.19928,0,5.74526-.62437,7.63519-1.87196c2.23575-1.46992,3.3525-3.71748,3.3525-6.74377c0-.58061-.0435-1.18579-.12975-1.81575.50643.29663,1.19141.4437,2.05608.4437h2.37191c1.53173,0,2.69374-.75952,3.48431-2.27891c1.1364,1.79115,2.4942,2.68781,4.07532,2.68781c1.77877,0,3.02752-.9522,3.74396-2.85446.2595.66705.67905,1.24102,1.25962,1.72279.59291.48168,1.2294.72277,1.90879.72277h2.27891c4.26161,0,8.44788-1.90249,12.56125-5.70701c0,3.80452,2.02752,5.70701,6.07909,5.70701h3.20524h1.29641c2.00107,0,3.48393-.86351,4.44742-2.59286.70406-1.2723,1.05615-2.8227,1.05615-4.65086c0-.88939-.17363-1.84159-.51938-2.85446-.35812-1.08705-.82121-1.92634-1.38944-2.51921-.18525-.19763-.37088-.1665-.55617.093l-2.16847,3.0192c-.1605.22237-.1605.41996,0,.59295c1.38349,1.51938,2.07547,2.57043,2.07547,3.15097c0,.66705-.88968.99994-2.66846.99994h-1.57353-2.85447c-1.29701,0-2.24729-.0866-2.85254-.2595-1.09935-.321-1.64914-.9576-1.64914-1.90879.90172-.3705,2.0376-.55421,3.40871-.55421l1.57549-3.39128c.0739-.17287.11737-.2715.12975-.29662c0-.0866-.48919-.12975-1.46502-.12975-1.72934,0-3.92643-.43178-6.59455-1.29641-2.66813-.87698-4.42328-1.31576-5.26324-1.31576Zm-37.29809.4437l-2.51925,2.50181l2.51925,2.51922l2.50178-2.51922Zm-245.7814.51938c.43233,0,.91451.1665,1.44566.49995.7164.45705,1.24702,1.10565,1.59292,1.94561-.75352.14812-1.44041.22275-2.05803.22275-1.67993,0-2.51922-.43365-2.51922-1.29836c0-.38288.16125-.70373.48252-.96308.321-.27187.67323-.40695,1.05615-.40695Zm58.49251.2055c-.10425.001-.20963.075-.31388.22087l-2.16656,3.0192c-.1605.22238-.1605.41996,0,.59295c1.38349,1.51939,2.07547,2.57044,2.07547,3.15097c0,.66705-.88968.99994-2.66842.99994h-2.70529c-1.56873,0-3.28053-1.26086-5.13337-3.78075-.0986-.11137-.17137-.1665-.22087-.1665-.0739,0-.1365.0555-.186.1665l-1.94562,3.92805c.45705.39525.88883.80981,1.29645,1.24215s.76673.85909,1.0755,1.27901c.30863.42.54983.80835.72282,1.16659.18525.35812.27712.66191.27712.90885c0,1.28467-1.17217,2.8038-3.51915,4.55786-2.11226,1.58111-4.28002,2.78456-6.50347,3.61218-.14812.0619-.22275.117-.22275.1665c0,.0491.0866.11175.2595.186c1.6305.63,4.09485.94568,7.39293.94568.18525,0,.62408-.33488,1.3158-1.00185c2.27288-2.19874,3.40871-5.17455,3.40871-8.92968.474.22837,1.07982.37387,1.81579.43987v.0409h2.59286c2.00111,0,3.4839-.86348,4.44742-2.59286.70407-1.2723,1.05612-2.8227,1.05612-4.65087c0-.88934-.17363-1.84158-.51934-2.85442-.35813-1.08709-.82121-1.92634-1.38945-2.51929-.081-.0866-.16125-.129-.24225-.12787Zm-121.32392.0911c-1.8405,0-3.57457,1.25385-5.20511,3.7614-1.45759,2.23582-2.18783,4.18166-2.18783,5.83687-.00003,1.48234.72323,2.50016,2.16844,3.05603.59295.23475,1.92649.47062,4.0017.70537c1.43287.17288,2.15104.53006,2.15104,1.07355c0,1.00054-1.22453,1.77926-3.67031,2.33512-1.80345.40763-3.71805.61238-5.74384.61238-4.69391,0-7.04025-1.56255-7.04025-4.68769c0-.33337.0431-.72382.12975-1.1685.0866-.45701.22875-.96855.42634-1.53671.18525-.5682.32775-1.00192.4263-1.2984.0986-.30862.14738-.47493.14738-.49995c0-.69172-.246-1.03676-.74025-1.03676-.71644,0-1.41548,1.09249-2.09487,3.27889-.59291,1.87751-.88946,3.29786-.88946,4.26135c0,4.85448,2.94649,7.28249,8.8386,7.28249c4.03923,0,7.10883-.7545,9.20872-2.26147c2.09992-1.49464,3.15097-3.67961,3.15097-6.55777c0-.60525-.0574-1.12572-.16875-1.55802-.111-.43237-.30675-.79653-.59103-1.09297-.28425-.29625-.66743-.53044-1.14915-.70342-.46939-.17288-1.07464-.30825-1.81579-.40695-1.49464-.21-2.45895-.38363-2.89129-.51938-.93877-.27187-1.40883-.7035-1.40883-1.29641c0-.50648.43882-1.18121,1.3158-2.02121c1.13643-1.0623,2.47702-1.59293,4.02108-1.59293c1.40816,0,2.43304.17363,3.07537.51938.27188.13575.44535.20362.51938.20362.0866,0,.12975-.0986.12975-.29662c0-.0866-.0112-.19238-.0375-.31575-.0112-.12338-.03-.27075-.0563-.44378-.12338-.69172-.45645-1.38371-.99994-2.07543-.81525-1.03763-1.82295-1.55614-3.02115-1.55614Zm-109.132824.11063c-.02625,0-.111375.0937-.259875.279l-2.428161,3.05606c.321.321.742762.82249,1.261574,1.50184.629962.81532.943725,1.33387.943725,1.55609c0,1.21054-3.612336,1.81575-10.83847,1.81575-3.100461,0-5.133035-.11812-6.096522-.35287-2.161687-.53115-3.242061-1.77293-3.242061-3.72457c0-.35813.091875-.82632.277125-1.40693.197625-.58054.296625-.93262.296625-1.05615c0-.51877-.234-.77902-.703462-.77902-.382913,0-.86505.52552-1.445625,1.57548-.642337,1.17349-.963112,2.37184-.963112,3.59475c0,2.75456,1.210462,4.66916,3.631536,5.74384c1.655212.72877,4.07621,1.09293,7.263146,1.09293c5.892073,0,9.827133-.66776,11.803532-2.00178c1.766399-1.18583,2.649037-3.1125,2.649037-5.78063c0-1.76643-.617363-3.39656-1.852575-4.89116-.135749-.16087-.234749-.2355-.296624-.22275Zm136.962494.83516c-1.37111,0-2.55735,1.01284-3.55792,3.03862-.82759,1.66759-1.2402,3.16249-1.2402,4.48418c0,.61766.0866,1.14825.2595,1.59292.17287.43237.45739.78949.85267,1.07359.40763.28425.93825.49601,1.59293.63176.66701.12337,1.48909.18412,2.46495.18412h.51742c.23475-.0113.4758-.0188.72281-.0188h.70347c.23475-.0112.40807-.0187.51933-.0187c0,1.21054-1.14288,2.72269-3.42809,4.53848-2.07518,1.65525-4.2168,2.88487-6.42791,3.68778-.1605.0495-.24225.11213-.24225.186c0,.0495.0937.11025.279.18413c1.8282.62996,4.29251.94567,7.39297.94567.18525,0,.62407-.37125,1.3158-1.11236c2.19873-2.34697,3.29632-5.13911,3.29632-8.37543v-2.88938c0-1.92697-.357-3.64893-1.07359-5.16828-.92643-1.9764-2.2428-2.96494-3.94743-2.96494Zm58.44024,0c-1.37115,0-2.55739,1.01284-3.55793,3.03862-.82762,1.66759-1.24218,3.16249-1.24218,4.48418c0,.61766.0866,1.14825.2595,1.59292.17287.43237.45738.78949.85267,1.07359.40763.28425.93825.49601,1.59293.63176.66701.12337,1.48912.18412,2.46498.18412h.51934c.23475-.0113.47584-.0188.72281-.0188h.70346c.23475-.0112.40808-.0187.51934-.0187c0,1.21054-1.14289,2.72269-3.4281,4.53848-2.07521,1.65525-4.21875,2.88487-6.42982,3.68778-.1605.0495-.24037.11213-.24037.186c0,.0495.0919.11025.27712.18413c1.82816.62996,4.29251.94567,7.39293.94567.18525,0,.62408-.37125,1.31584-1.11236c2.1987-2.34697,3.29824-5.13911,3.29824-8.37543v-2.88938c0-1.92697-.35925-3.64893-1.0755-5.16828-.92644-1.9764-2.24089-2.96494-3.94549-2.96494Zm91.82767.37012c-1.39583,0-2.55788.5931-3.48428,1.77897-.85226,1.09935-1.22853,2.26642-1.1298,3.50171.0491.53107-.0375.87105-.2595,1.01932-.27187.18525-.93757.27713-1.99991.27713h-1.11232-1.4088c-1.49464,0-2.51955-.40238-3.07541-1.20529-.28425-.39533-.51822-1.14083-.70347-2.24017-.13575-.80295-.42731-1.20537-.87202-1.20537-.45701,0-.75866.40242-.90694,1.20537-.19762,1.08697-.47505,1.83254-.83325,2.24017-.69172.80291-1.94051,1.20529-3.74396,1.20529h-1.7034-1.40883c-1.4946,0-2.51951-.40238-3.07538-1.20529-.28425-.39533-.52012-1.14083-.70537-2.24017-.13575-.80295-.4254-1.20537-.87011-1.20537-.45702,0-.75867.40242-.90694,1.20537-.19763,1.08697-.47696,1.83254-.8352,2.24017-.69173.80291-1.93856,1.20529-3.74201,1.20529h-1.70535-2.72269c-.13575-.92644-.35287-1.77274-.6492-2.5386-.29662-.7782-.6606-1.44593-1.09293-2.00183-.41997-.55578-.90214-.98756-1.44566-1.29641-.53115-.309-1.10007-.46316-1.70532-.46316-1.37111,0-2.55543,1.01981-3.55597,3.05801-.82762,1.66755-1.24219,3.15544-1.24219,4.46479c0,1.43291.51342,2.40933,1.53866,2.92814.71644.3705,1.92694.5562,3.63158.5562h.46316.75964c.27187-.0113.52488-.0188.75963-.0188h.4806c0,1.2105-1.14097,2.71755-3.42614,4.52104-2.13698,1.69226-4.28051,2.92699-6.42986,3.70518-.1605.0619-.24038.117-.24038.1665c0,.0739.0919.1365.27713.186c1.82816.63004,4.29247.94572,7.39297.94572.18525,0,.61702-.38333,1.29641-1.14919c2.12464-2.42107,3.1878-5.18895,3.1878-8.30182h2.72268h2.4456c.95115,0,1.85997-.24638,2.72464-.74021.86467-.50644,1.5375-1.16715,2.01926-1.98244.48176.81529,1.1616,1.476,2.03865,1.98244.88935.49406,1.8084.74021,2.75951.74021h3.70714c.95115,0,1.85801-.24638,2.72268-.74021.86468-.50644,1.5375-1.16715,2.01926-1.98244.48177.81529,1.1616,1.476,2.03865,1.98244.88935.49406,1.81032.74021,2.76147.74021h2.37191c1.53172,0,2.69178-.75953,3.48236-2.27891c1.1364,1.79115,2.55165,2.68781,4.24391,2.68781c1.25996,0,2.27782-.39536,3.05602-1.18598.7782-.80291,1.16854-1.84181,1.16854-3.11414c0-1.9146-.37125-3.55684-1.11233-4.92795-.91406-1.67996-2.23552-2.51921-3.96487-2.51921Zm-163.40468,1.8894c-.0866,0-.15937.0679-.22087.20363l-1.79835,3.79822c.65467.4941,1.33965,1.1931,2.05609,2.09479.83996,1.0623,1.26153,1.88951,1.26153,2.48246c0,1.4205-1.155,3.01935-3.46488,4.79812-2.00111,1.54403-4.1517,2.73034-6.44925,3.55793-.1605.0619-.24037.117-.24037.1665c0,.0863.0919.15412.27712.20362c1.60582.63,4.07017.94567,7.39297.94567.17288,0,.61875-.37623,1.33519-1.12976.96345-1.0005,1.73516-2.11923,2.31574-3.35441.80265-1.7412,1.20314-3.60663,1.20341-5.59462c0,0,0-.002,0-.002-.00049-3.06259-1.14844-5.74312-3.4455-8.04018-.11138-.0866-.186-.12975-.22275-.12975Zm163.55194.38948c.66705,0,1.29844.53066,1.89135,1.59292.51881.93885.77711,1.7781.77711,2.51929c0,1.2846-.44389,1.92817-1.33327,1.92817-.74115,0-1.38465-.56193-1.92818-1.68596-.44467-.93881-.66664-1.8285-.66664-2.66846c0-1.12406.41967-1.68596,1.25963-1.68596Zm72.91024,0c.66705,0,1.29847.53066,1.89138,1.59292.51878.93885.77708,1.7781.77708,2.51929c0,1.2846-.44393,1.92817-1.33327,1.92817-.74115,0-1.38465-.56193-1.92818-1.68596-.44467-.93881-.6666-1.8285-.6666-2.66846c0-1.12406.41963-1.68596,1.25959-1.68596Zm78.74711,0c.66705,0,1.29652.53066,1.8894,1.59292.51881.93885.77902,1.7781.77902,2.51929c0,1.2846-.44385,1.92817-1.33323,1.92817-.74115,0-1.38469-.56193-1.92818-1.68596-.44467-.93881-.66663-1.8285-.66663-2.66846c0-1.12406.41966-1.68596,1.25962-1.68596Zm-372.907321.22087c.642338,0,1.297987.22913,1.964999.68607.716438.49409,1.073587,1.05082,1.073587,1.66848c0,.66701-.931124,1.14919-2.796336,1.44566-1.161112.18525-2.371611.27713-3.631573.27713h-3.410623c2.482836-2.71755,4.749447-4.07726,6.799984-4.07726Zm69.964731,1.01933c.2595,0,.53681.0626.83329.186.29625.12375.58087.297.85263.51933.28388.22238.54428.48064.77903.77715.23475.29663.41846.61725.55421.96308-1.02521.14812-1.85242.22275-2.48239.22275-1.38348,0-2.07547-.43174-2.07547-1.29641c0-.18525.0435-.35888.12975-.51934.0866-.17288.20437-.32025.35287-.44378.14813-.12337.31463-.22237.49999-.29662.18525-.0739.37088-.1125.55616-.1125Zm58.43825,0c.2595,0,.53876.0626.83523.186.29625.12375.58091.297.85264.51933.28387.22238.54236.48064.77707.77715.23475.29663.42045.61725.5562.96308-1.02525.14812-1.85246.22275-2.48242.22275-1.38349,0-2.07544-.43174-2.07544-1.29641c0-.18525.0431-.35888.12975-.51934.0866-.17288.2025-.32025.35063-.44378.14812-.12337.31687-.22237.50194-.29662.18525-.0739.369-.1125.55421-.1125Zm49.73142.64923c.2595,0,.53685.0626.83329.186.29662.12375.58091.29513.85267.51739.28388.22238.54428.48769.77903.7965.23475.29663.42041.6192.55616.96503-.51881.0619-.98374.11025-1.3914.14737-.40762.0375-.77179.0562-1.09294.0562-1.38348,0-2.07547-.43177-2.07547-1.29649c0-.18525.0435-.35887.12975-.51933.0866-.17288.20437-.32213.35287-.44569.14813-.12338.31463-.22238.49995-.29663s.37088-.11025.55617-.11025Zm25.7368,9.1719l-2.27895,2.27895l2.27895,2.25952l2.25956-2.25952Zm5.05785,0l-2.27895,2.27895l2.27895,2.25952l2.26147-2.25952Zm183.60107.42634l-2.50177,2.51921l2.50177,2.51921l2.51925-2.51921Zm-202.29567.87011l-2.27895,2.26144l2.27895,2.27898l2.25956-2.27898Zm5.05784,0l-2.27895,2.26144l2.27895,2.27898l2.25953-2.27898Zm11.15434,2.46491l-2.26148,2.27891l2.26148,2.2596l2.25956-2.2596Zm109.10571,16.74127c-5.15115,1.20191-9.33851,2.29792-12.56126,3.28852l-.6744,2.21888c3.32846-.97737,7.59566-2.10619,12.79961-3.38738Zm-285.35263.89141c-.10575,0-.27788.10013-.51547.2985l-3.64512,3.03082l1.88168,20.92124c.10575,1.22835.24487,1.8429.41662,1.8429.10575,0,.29025-.27862.55425-.83328c1.0038-2.12648,1.5057-3.65689,1.5057-4.59469v-20.24875c0-.2775-.0656-.41663-.19762-.41663Zm370.58378,0c-.10575,0-.27787.10013-.51547.2985l-3.64511,3.03082l1.88167,20.92124c.10575,1.22835.24488,1.8429.41663,1.8429.10575,0,.28987-.27862.55425-.83328c1.0038-2.12648,1.5057-3.65689,1.5057-4.59469v-20.24875c0-.2775-.0656-.41663-.19763-.41663Zm-124.28109.0188c-.066,0-.29737.15975-.69375.47666l-3.26921,2.65489c-.0791.0791-.11812.21037-.11812.39532v.17813c.015.0529.0263.11212.0386.17812.2115,1.13592.43047,3.55328.65498,7.25152.19837,3.27559.29662,5.72573.29662,7.3503c0,1.03028.12488,1.9623.37594,2.79446.25088.81885.60124,1.51136,1.05034,2.0793.46226.56794,1.01126,1.00429,1.64523,1.30808s1.34078.4554,2.12003.4554h1.80221h19.15773c1.14907,0,2.39055-.0983,3.72457-.29663c1.55858-.23775,2.589-.54101,3.0909-.9108c1.5981-1.20195,2.45029-2.90636,2.55604-5.11211c2.06047,2.31142,3.50681,3.81712,4.33889,4.51714c1.42647,1.20195,2.78059,1.80221,4.06178,1.80221h2.53473h19.25849h1.5057c2.15295,0,3.75705-.90349,4.81369-2.71298c1.0302,1.80949,2.39051,2.71298,4.08112,2.71298c1.57178,0,2.86646-.90349,3.8835-2.71298c1.06984,1.80949,2.385,2.71298,3.94354,2.71298c1.70384,0,3.07031-.90349,4.10054-2.71298c1.05664,1.80949,2.42314,2.71298,4.10051,2.71298h1.7247h19.25658.65306c2.13968,0,3.72529-.92393,4.75553-2.77305.75285-1.36042,1.12976-3.01777,1.12976-4.97257c0-.95097-.18638-1.96909-.55616-3.05213-.38307-1.16231-.87687-2.05965-1.4844-2.69362-.198-.2115-.39668-.1785-.59494.099l-2.31769,3.22849c-.17175.23775-.17175.45063,0,.63562c1.4793,1.62461,2.21888,2.74725,2.21888,3.36802c0,.71322-.95059,1.06969-2.85255,1.06969h-.95149-19.25658-1.52703c-1.25479,0-2.13165-.39739-2.63355-1.18984-.2115-.33037-.4305-1.06357-.65501-2.19948-.15863-.79253-.45555-1.18793-.89142-1.18793-.51513,0-.88395.3954-1.10846,1.18793-.38299,1.30755-.62062,2.04708-.71314,2.2188-.44906.79252-1.18245,1.18987-2.19948,1.18987-1.18871,0-2.01431-.39739-2.47658-1.18987-.15862-.264-.36337-1.00369-.61432-2.2188-.17175-.79253-.4749-1.18793-.9108-1.18793-.50194,0-.85845.3954-1.06969,1.18793-.33037,1.24155-.56981,1.98105-.71505,2.2188-.4755.79252-1.28062,1.18987-2.41653,1.18987-1.14908,0-1.9419-.39739-2.37776-1.18987-.132-.23775-.34313-.97725-.63368-2.2188-.18487-.79253-.52095-1.18793-1.00965-1.18793-.44917,0-.77284.3954-.97084,1.18793-.27712,1.16227-.51491,1.89562-.71313,2.19948-.5019.79245-1.34179,1.18984-2.5173,1.18984h-1.99988-19.25849-2.55412c-1.05664,0-2.09325-.37087-3.11029-1.11041-.62077-.44906-1.87035-1.57789-3.74587-3.38737-2.28502-2.20572-4.45046-4.16633-6.49766-5.88338c3.19631-.87172,6.89411-1.63788,11.09426-2.2983l1.30807-4.30012c-3.79068.63401-8.86927,1.90826-15.23549,3.82342l-.97087,4.65668c1.37362.87176,2.75437,1.98821,4.14119,3.34863c1.62462,1.59814,2.43593,2.81918,2.43593,3.66446c0,.99064-2.39074,1.48639-7.17206,1.48639h-19.67321v.0187h-.13949c-2.10008,0-3.15098-.93825-3.15098-2.81377l.0409-16.66181c0-.3435-.0409-.5277-.12-.55421Zm76.59218,1.62585l-2.43589,2.4165l2.43589,2.4165l2.41845-2.4165Zm37.16826,1.32746l-2.69363,2.69362l2.69363,2.69558l2.67423-2.69558Zm-214.52364,1.78283l-2.69557,2.69362l2.69557,2.69554l2.69366-2.69554Zm174.70244.89137l-2.43783,2.43787l2.43783,2.41654l2.41654-2.41654Zm5.40859,0l-2.43784,2.43787l2.43784,2.41654l2.4165-2.41654Zm-248.60099,1.42627l-2.41845,2.41654l2.41845,2.41845l2.43588-2.41845Zm5.40858,0l-2.41845,2.41654l2.41845,2.41845l2.43589-2.41845Zm298.22971.29663c-.0926,0-.1785.15375-.25763.45735l-1.18792,4.43767c1.08307.29063,2.45572,1.13471,4.11993,2.53474c1.84913,1.5453,2.77309,2.84002,2.77309,3.8835c0,.58117-.86456,1.01748-2.59481,1.30803-1.17551.19838-2.27153.29663-3.28856.29663-1.61138,0-2.6808-.30338-3.2091-.9108-.2775-.31688-.44948-.8907-.51548-1.72279-.0529-.60761-.29062-.91275-.71313-.91275-.73973,0-1.21504.87885-1.42628,2.63554-.0398.33037-.06.64766-.06.95145c0,3.20955,1.71675,4.81365,5.15085,4.81365c5.99643,0,8.99557-2.39693,8.99557-7.19141c0-1.9152-.81326-3.9105-2.43784-5.9841-1.36042-1.71705-2.99729-3.18187-4.91249-4.39706-.21113-.132-.35663-.1995-.43602-.1995Zm-490.663605.0225l-2.775036,3.18975c.290625.83212.5016,1.46516.633675,1.90106-2.601974,1.0434-4.648573,2.29301-6.141072,3.74587-.30375.66041-.541463,1.24643-.713138,1.76153-.369749,1.12267-.554249,1.92168-.554249,2.39711c0,1.76988,2.569011,2.65488,7.706883,2.65488l1.664625-2.69362c.964199,3.19631,2.508899,4.7943,4.63541,4.7943h1.426237.515475h19.256578h1.881674c1.016999,0,1.988061-.26438,2.912586-.79264.9246-.5415,1.645612-1.24826,2.160749-2.11999.5151.87173,1.240387,1.57849,2.178149,2.11999.950962.52838,1.936312.79264,2.953311.79264h1.346812h19.256578.4554c1.637774,0,2.879249-.81135,3.724573-2.43593c1.215112,1.91517,2.728986,2.8719,4.538473,2.8719c1.347224,0,2.435136-.42206,3.267261-1.26735.832087-.85852,1.249912-1.96882,1.249912-3.32924c0-2.04728-.397388-3.80299-1.189875-5.26909-.977399-1.79629-2.390924-2.69557-4.240048-2.69557-1.492499,0-2.733973.63502-3.724573,1.90305-.911362,1.17547-1.312949,2.42309-1.207274,3.74392.05288.56794-.04125.93056-.279,1.08911-.290625.19838-1.003537.2985-2.139412.2985h-.455399-19.256579-1.505699c-1.598174,0-2.694224-.43016-3.288561-1.28865-.30375-.42266-.555712-1.2216-.753824-2.39719-.145125-.85848-.454688-1.28669-.930188-1.28669-.488699,0-.812362.42821-.970874,1.28669-.2115,1.16235-.508387,1.96129-.891412,2.39719-.73965.85849-2.075249,1.28865-4.003611,1.28865h-1.089112-19.256578-.515475-.852637c-.871724,0-1.492462-.17812-1.862286-.53486-.581175-.5547-1.036012-1.73063-1.3662-3.52688-.977399-5.21718-1.577699-8.08319-1.802211-8.59829ZM351.50359,321.1532c-.96416.67361-1.99458,2.0073-3.09086,4.00166-1.17551,2.13967-1.76347,3.95482-1.76347,5.44736c0,1.13591.31762,2.10694.95149,2.91262.92456,1.16228,2.41796,1.74405,4.47839,1.74405c1.902,0,3.39345-.56752,4.47649-1.70336c1.09624-1.14915,1.64524-2.67528,1.64524-4.57725c0-2.19251-.74573-3.96873-2.23823-5.32912-.9906-.89812-2.47785-1.72987-4.45905-2.49596Zm-118.35703.43597c-2.20575,0-3.83647.58797-4.89311,1.76348-.63401.70001-.95148,1.33931-.95148,1.92041c0,.42266.18637.63371.55616.63371.59437,0,1.68423,1.03856,3.26917,3.11224-.92456.71317-2.31956,1.06965-4.18192,1.06965h-.73253-19.25654-1.50573c-1.59818,0-2.69419-.43016-3.28856-1.28865-.30375-.42266-.55583-1.2216-.75383-2.39719-.14512-.85848-.45469-1.2867-.93019-1.2867-.4887,0-.81236.42822-.97087,1.2867-.2115,1.16231-.50835,1.96129-.89141,2.39719-.73965.85849-2.07525,1.28865-4.00361,1.28865h-1.08908-19.25658-3.36802c-3.19631,0-5.70585.92396-7.52861,2.77308-1.38679,1.40007-2.08125,2.82593-2.08125,4.27883c0,.95096.69446,1.62491,2.08125,2.02117.71329.2115,1.99373.38348,3.84281.51551c1.37363.10575,2.05995.26963,2.05995.49414c0,.46226-1.00384.86584-3.01144,1.20923-1.66421.29062-3.00404.43601-4.02108.43601-2.985,0-5.14425-.22538-6.47827-.6744-2.16611-.72645-3.24983-2.17275-3.24983-4.33886c0-.83213.1845-1.7499.55425-2.75374s.55617-1.55077.55617-1.64329c0-.55473-.31125-.83328-.9321-.83328-.4755,0-1.12905.91162-1.96114,2.73435-.87172,1.90192-1.30804,3.52034-1.30804,4.85433c0,4.90016,3.34943,7.35037,10.04587,7.35037c3.22275,0,5.87775-.43023,7.96462-1.28872c2.9586-1.22835,4.43771-3.22166,4.43771-5.98215c0-.81896-.38306-1.41307-1.14914-1.78286-.59434-.29063-1.64524-.52811-3.15098-.71314-1.20191-.14512-2.10543-.25162-2.71301-.31762-.70001-.0926-1.0503-.27675-1.0503-.55425c0-.46226.38925-.81259,1.16854-1.05034.5415-.15862,1.10898-.2385,1.70336-.2385.71325,0,1.77649.1005,3.18975.2985c1.42646.19838,2.49585.29663,3.2091.29663h1.18983h19.25658h1.88168c1.017,0,1.98802-.26438,2.91258-.7926.92456-.5415,1.64561-1.2483,2.16071-2.12003.51514.87173,1.24039,1.57853,2.17819,2.12003.95096.52833,1.93631.7926,2.95331.7926h1.34681h19.25654v-.002c2.61398-.0263,4.91865-1.155,6.91433-3.38547.91136,1.12272,1.69796,1.88888,2.35837,2.29834c1.17551.72641,2.70787,1.08908,4.59663,1.08908h.5736h19.25654h1.88363c1.01704,0,1.98806-.26438,2.91262-.7926.92453-.5415,1.64366-1.2483,2.15876-2.12003.5151.87173,1.24234,1.57853,2.1801,2.12003.951.52833,1.93436.7926,2.95136.7926h1.34685h19.25654.219c1.92837,0,3.44025-.89738,4.53653-2.69363.73965,1.06984,1.73115,1.80323,2.9727,2.19945.91136.29063,2.15898.4341,3.74396.4341c4.41146,0,7.74044-.95677,9.98579-2.8719c1.86233-1.59817,2.79248-3.63862,2.79248-6.12172c0-1.32082-.48762-2.39021-1.46502-3.20914-.91136-.77925-2.04213-1.1685-3.38932-1.1685-1.70385,0-3.7443,1.06939-6.12172,3.2091-1.57178,1.42646-3.12263,3.13706-4.65476,5.13146-1.09624,0-1.88288-.40353-2.35838-1.20922-.15862-.264-.38996-1.00373-.69375-2.21888-.198-.80565-.53415-1.20922-1.00965-1.20922-.40938,0-.70027.40357-.87202,1.20922-.22462,1.06988-.50115,1.80942-.83134,2.21888-.63397.80569-1.75046,1.20922-3.34863,1.20922h-18.76241-1.50573c-1.59814,0-2.69419-.43016-3.28856-1.28868-.30375-.42267-.55557-1.2216-.75383-2.39715-.14512-.85853-.45469-1.28674-.93019-1.28674-.4887,0-.81236.42821-.97087,1.28674-.2115,1.16231-.50839,1.96128-.89141,2.39715-.73965.85852-2.0733,1.28868-4.0017,1.28868h-1.09103-19.25654-1.08907c-2.19251,0-3.66547-.32362-4.41836-.97087c1.14911-.92456,1.85591-1.51868,2.12006-1.78286.88493-.88489,1.32743-1.69819,1.32743-2.4378c0-1.03028-.61455-1.86199-1.8429-2.49596-1.05668-.54162-2.25919-.81203-3.60638-.81203ZM91.234706,322.65695c-1.466062,0-2.734161,1.08375-3.803998,3.24982-.884925,1.78309-1.327462,3.38104-1.327462,4.7943c0,.66034.09225,1.22786.277125,1.70336.184875.46226.488137.8454.910799,1.14915.435863.30375,1.003387.52916,1.7034.6744.713212.132,1.592061.19763,2.635498.19763h.554212c.250875-.0113.509063-.0188.773213-.0188h.753824c.250875-.0113.435263-.0188.55425-.0188c0,1.29442-1.222987,2.91277-3.666448,4.85437-2.218949,1.76989-4.509373,3.08497-6.873597,3.94353-.17175.0529-.257625.1185-.257625.19763c0,.0529.09825.1185.296625.19762c1.954762.67365,4.589323,1.00969,7.904546,1.00969.198,0,.667237-.39544,1.406887-1.18792c2.351061-2.50954,3.526948-5.49439,3.526948-8.95489v-3.09281c0-2.06047-.383099-3.90228-1.149149-5.52682-.9906-2.11324-2.396061-3.17032-4.218786-3.17032Zm-83.250673,2.3196c.4623,1.74352.818737,3.05677,1.069725,3.94166-3.473736,0-5.44241-.36263-5.90471-1.08911.422662-.75285,2.034899-1.70344,4.834985-2.85255Zm99.931867.099c-.0926,0-.1725.0739-.2385.219l-1.92236,4.06173c.70005.52834,1.43343,1.27407,2.19948,2.23819.89816,1.13591,1.34681,2.02091,1.34681,2.65489c0,1.51897-1.23333,3.22957-3.70323,5.13149-2.13971,1.65102-4.43824,2.91908-6.894935,3.80404-.17175.066-.257625.12562-.257625.17812c0,.0926.09825.16425.296625.21713c1.717045.67365,4.353565,1.00969,7.906495,1.00969.18488,0,.66019-.40163,1.42628-1.20735c1.03023-1.0698,1.85583-2.26613,2.47661-3.58695.85852-1.86233,1.28673-3.85567,1.28673-5.98219c0-3.27554-1.22913-6.14159-3.68583-8.59829-.11888-.0926-.1965-.1395-.23625-.1395Zm-32.056187.41659c.713212,0,1.3872.56752,2.021174,1.70343.554738,1.00376.831337,1.9011.831337,2.69363c0,1.37358-.475274,2.06186-1.426236,2.06186-.792487,0-1.478812-.60222-2.059949-1.80416-.4755-1.0038-.713138-1.95439-.713138-2.85252c0-1.20195.44865-1.80224,1.346812-1.80224Zm274.673047.0188c2.32462.75284,4.13549,1.89599,5.42988,3.42813.33038.39623.2895.73841-.12,1.029-.70001.50186-1.73047.75379-3.0909.75379-.91136,0-1.71033-.15975-2.39715-.47666-.76605-.35663-1.14915-.8319-1.14915-1.42628c0-1.22831.44254-2.33055,1.32747-3.30795Zm-40.57502.31762c.89809,0,1.6971.1905,2.39711.5736.87172.46234,1.30807,1.10355,1.30807,1.92236c0,.42274-.52237.82429-1.56581,1.20731-1.32078.4887-3.1236.73448-5.40858.73448-.9642,0-1.98653-.0409-3.06956-.12c2.5227-2.87933,4.63488-4.31756,6.33877-4.31756Zm-219.655134.99026c.2775,0,.574425.0656.891412.19763.316875.132.62025.3165.9108.55421.30375.23775.582337.5163.833287.83329.250875.31687.4497.65917.594937,1.029-1.096274.15862-1.981274.2385-2.654886.2385-1.479299,0-2.220786-.46294-2.220786-1.3875c0-.198.04687-.38247.1395-.55422.09262-.18487.217499-.34275.375937-.47478.158625-.132.33675-.2385.534862-.318.198-.0791.396825-.11813.594937-.11813ZM38.334869,338.70568l-2.435887,2.41654l2.435887,2.43779l2.418486-2.43779Zm5.410535,0l-2.437837,2.41654l2.437837,2.43779l2.416499-2.43779Z" transform="matrix(.000035 0 0 1 253.991113 0)" stroke-width="0.948667"/></g><script><![CDATA[!function(t,n){"object"==typeof exports&&"undefined"!=typeof module?module.exports=n():"function"==typeof define&&define.amd?define(n):((t="undefined"!=typeof globalThis?globalThis:t||self).__SVGATOR_PLAYER__=t.__SVGATOR_PLAYER__||{},t.__SVGATOR_PLAYER__["5c7f360c"]=n())}(this,(function(){"use strict";function t(t,n){var r=Object.keys(t);if(Object.getOwnPropertySymbols){var e=Object.getOwnPropertySymbols(t);n&&(e=e.filter((function(n){return Object.getOwnPropertyDescriptor(t,n).enumerable}))),r.push.apply(r,e)}return r}function n(n){for(var r=1;r<arguments.length;r++){var e=null!=arguments[r]?arguments[r]:{};r%2?t(Object(e),!0).forEach((function(t){u(n,t,e[t])})):Object.getOwnPropertyDescriptors?Object.defineProperties(n,Object.getOwnPropertyDescriptors(e)):t(Object(e)).forEach((function(t){Object.defineProperty(n,t,Object.getOwnPropertyDescriptor(e,t))}))}return n}function r(t){return(r="function"==typeof Symbol&&"symbol"==typeof Symbol.iterator?function(t){return typeof t}:function(t){return t&&"function"==typeof Symbol&&t.constructor===Symbol&&t!==Symbol.prototype?"symbol":typeof t})(t)}function e(t,n){if(!(t instanceof n))throw new TypeError("Cannot call a class as a function")}function i(t,n){for(var r=0;r<n.length;r++){var e=n[r];e.enumerable=e.enumerable||!1,e.configurable=!0,"value"in e&&(e.writable=!0),Object.defineProperty(t,e.key,e)}}function o(t,n,r){return n&&i(t.prototype,n),r&&i(t,r),t}function u(t,n,r){return n in t?Object.defineProperty(t,n,{value:r,enumerable:!0,configurable:!0,writable:!0}):t[n]=r,t}function a(t){return(a=Object.setPrototypeOf?Object.getPrototypeOf:function(t){return t.__proto__||Object.getPrototypeOf(t)})(t)}function l(t,n){return(l=Object.setPrototypeOf||function(t,n){return t.__proto__=n,t})(t,n)}function f(){if("undefined"==typeof Reflect||!Reflect.construct)return!1;if(Reflect.construct.sham)return!1;if("function"==typeof Proxy)return!0;try{return Boolean.prototype.valueOf.call(Reflect.construct(Boolean,[],(function(){}))),!0}catch(t){return!1}}function s(t,n,r){return(s=f()?Reflect.construct:function(t,n,r){var e=[null];e.push.apply(e,n);var i=new(Function.bind.apply(t,e));return r&&l(i,r.prototype),i}).apply(null,arguments)}function c(t,n){if(n&&("object"==typeof n||"function"==typeof n))return n;if(void 0!==n)throw new TypeError("Derived constructors may only return object or undefined");return function(t){if(void 0===t)throw new ReferenceError("this hasn't been initialised - super() hasn't been called");return t}(t)}function h(t,n,r){return(h="undefined"!=typeof Reflect&&Reflect.get?Reflect.get:function(t,n,r){var e=function(t,n){for(;!Object.prototype.hasOwnProperty.call(t,n)&&null!==(t=a(t)););return t}(t,n);if(e){var i=Object.getOwnPropertyDescriptor(e,n);return i.get?i.get.call(r):i.value}})(t,n,r||t)}function v(t){return function(t){if(Array.isArray(t))return y(t)}(t)||function(t){if("undefined"!=typeof Symbol&&null!=t[Symbol.iterator]||null!=t["@@iterator"])return Array.from(t)}(t)||function(t,n){if(!t)return;if("string"==typeof t)return y(t,n);var r=Object.prototype.toString.call(t).slice(8,-1);"Object"===r&&t.constructor&&(r=t.constructor.name);if("Map"===r||"Set"===r)return Array.from(t);if("Arguments"===r||/^(?:Ui|I)nt(?:8|16|32)(?:Clamped)?Array$/.test(r))return y(t,n)}(t)||function(){throw new TypeError("Invalid attempt to spread non-iterable instance.\nIn order to be iterable, non-array objects must have a [Symbol.iterator]() method.")}()}function y(t,n){(null==n||n>t.length)&&(n=t.length);for(var r=0,e=new Array(n);r<n;r++)e[r]=t[r];return e}var g=d(Math.pow(10,-6));function d(t){var n=arguments.length>1&&void 0!==arguments[1]?arguments[1]:6;if(Number.isInteger(t))return t;var r=Math.pow(10,n);return Math.round((+t+Number.EPSILON)*r)/r}function p(t,n){var r=arguments.length>2&&void 0!==arguments[2]?arguments[2]:g;return Math.abs(t-n)<r}var m=Math.PI/180;function b(t){return t}function w(t,n,r){var e=1-r;return 3*r*e*(t*e+n*r)+r*r*r}function A(){var t=arguments.length>0&&void 0!==arguments[0]?arguments[0]:0,n=arguments.length>1&&void 0!==arguments[1]?arguments[1]:0,r=arguments.length>2&&void 0!==arguments[2]?arguments[2]:1,e=arguments.length>3&&void 0!==arguments[3]?arguments[3]:1;return t<0||t>1||r<0||r>1?null:p(t,n)&&p(r,e)?b:function(i){if(i<=0)return t>0?i*n/t:0===n&&r>0?i*e/r:0;if(i>=1)return r<1?1+(i-1)*(e-1)/(r-1):1===r&&t<1?1+(i-1)*(n-1)/(t-1):1;for(var o,u=0,a=1;u<a;){var l=w(t,r,o=(u+a)/2);if(p(i,l))break;l<i?u=o:a=o}return w(n,e,o)}}function x(){return 1}function k(t){return 1===t?1:0}function S(){var t=arguments.length>0&&void 0!==arguments[0]?arguments[0]:1,n=arguments.length>1&&void 0!==arguments[1]?arguments[1]:0;if(1===t){if(0===n)return k;if(1===n)return x}var r=1/t;return function(t){return t>=1?1:(t+=n*r)-t%r}}var _=Math.sin,O=Math.cos,j=Math.acos,M=Math.asin,P=Math.tan,E=Math.atan2,I=Math.PI/180,R=180/Math.PI,F=Math.sqrt,N=function(){function t(){var n=arguments.length>0&&void 0!==arguments[0]?arguments[0]:1,r=arguments.length>1&&void 0!==arguments[1]?arguments[1]:0,i=arguments.length>2&&void 0!==arguments[2]?arguments[2]:0,o=arguments.length>3&&void 0!==arguments[3]?arguments[3]:1,u=arguments.length>4&&void 0!==arguments[4]?arguments[4]:0,a=arguments.length>5&&void 0!==arguments[5]?arguments[5]:0;e(this,t),this.m=[n,r,i,o,u,a],this.i=null,this.w=null,this.s=null}return o(t,[{key:"determinant",get:function(){var t=this.m;return t[0]*t[3]-t[1]*t[2]}},{key:"isIdentity",get:function(){if(null===this.i){var t=this.m;this.i=1===t[0]&&0===t[1]&&0===t[2]&&1===t[3]&&0===t[4]&&0===t[5]}return this.i}},{key:"point",value:function(t,n){var r=this.m;return{x:r[0]*t+r[2]*n+r[4],y:r[1]*t+r[3]*n+r[5]}}},{key:"translateSelf",value:function(){var t=arguments.length>0&&void 0!==arguments[0]?arguments[0]:0,n=arguments.length>1&&void 0!==arguments[1]?arguments[1]:0;if(!t&&!n)return this;var r=this.m;return r[4]+=r[0]*t+r[2]*n,r[5]+=r[1]*t+r[3]*n,this.w=this.s=this.i=null,this}},{key:"rotateSelf",value:function(){var t=arguments.length>0&&void 0!==arguments[0]?arguments[0]:0;if(t%=360){var n=_(t*=I),r=O(t),e=this.m,i=e[0],o=e[1];e[0]=i*r+e[2]*n,e[1]=o*r+e[3]*n,e[2]=e[2]*r-i*n,e[3]=e[3]*r-o*n,this.w=this.s=this.i=null}return this}},{key:"scaleSelf",value:function(){var t=arguments.length>0&&void 0!==arguments[0]?arguments[0]:1,n=arguments.length>1&&void 0!==arguments[1]?arguments[1]:1;if(1!==t||1!==n){var r=this.m;r[0]*=t,r[1]*=t,r[2]*=n,r[3]*=n,this.w=this.s=this.i=null}return this}},{key:"skewSelf",value:function(t,n){if(n%=360,(t%=360)||n){var r=this.m,e=r[0],i=r[1],o=r[2],u=r[3];t&&(t=P(t*I),r[2]+=e*t,r[3]+=i*t),n&&(n=P(n*I),r[0]+=o*n,r[1]+=u*n),this.w=this.s=this.i=null}return this}},{key:"resetSelf",value:function(){var t=arguments.length>0&&void 0!==arguments[0]?arguments[0]:1,n=arguments.length>1&&void 0!==arguments[1]?arguments[1]:0,r=arguments.length>2&&void 0!==arguments[2]?arguments[2]:0,e=arguments.length>3&&void 0!==arguments[3]?arguments[3]:1,i=arguments.length>4&&void 0!==arguments[4]?arguments[4]:0,o=arguments.length>5&&void 0!==arguments[5]?arguments[5]:0,u=this.m;return u[0]=t,u[1]=n,u[2]=r,u[3]=e,u[4]=i,u[5]=o,this.w=this.s=this.i=null,this}},{key:"recomposeSelf",value:function(){var t=arguments.length>0&&void 0!==arguments[0]?arguments[0]:null,n=arguments.length>1&&void 0!==arguments[1]?arguments[1]:null,r=arguments.length>2&&void 0!==arguments[2]?arguments[2]:null,e=arguments.length>3&&void 0!==arguments[3]?arguments[3]:null,i=arguments.length>4&&void 0!==arguments[4]?arguments[4]:null;return this.isIdentity||this.resetSelf(),t&&(t.x||t.y)&&this.translateSelf(t.x,t.y),n&&this.rotateSelf(n),r&&(r.x&&this.skewSelf(r.x,0),r.y&&this.skewSelf(0,r.y)),!e||1===e.x&&1===e.y||this.scaleSelf(e.x,e.y),i&&(i.x||i.y)&&this.translateSelf(i.x,i.y),this}},{key:"decompose",value:function(){var t=arguments.length>0&&void 0!==arguments[0]?arguments[0]:0,n=arguments.length>1&&void 0!==arguments[1]?arguments[1]:0,r=this.m,e=r[0]*r[0]+r[1]*r[1],i=[[r[0],r[1]],[r[2],r[3]]],o=F(e);if(0===o)return{origin:{x:d(r[4]),y:d(r[5])},translate:{x:d(t),y:d(n)},scale:{x:0,y:0},skew:{x:0,y:0},rotate:0};i[0][0]/=o,i[0][1]/=o;var u=r[0]*r[3]-r[1]*r[2]<0;u&&(o=-o);var a=i[0][0]*i[1][0]+i[0][1]*i[1][1];i[1][0]-=i[0][0]*a,i[1][1]-=i[0][1]*a;var l=F(i[1][0]*i[1][0]+i[1][1]*i[1][1]);if(0===l)return{origin:{x:d(r[4]),y:d(r[5])},translate:{x:d(t),y:d(n)},scale:{x:d(o),y:0},skew:{x:0,y:0},rotate:0};i[1][0]/=l,i[1][1]/=l,a/=l;var f=0;return i[1][1]<0?(f=j(i[1][1])*R,i[0][1]<0&&(f=360-f)):f=M(i[0][1])*R,u&&(f=-f),a=E(a,F(i[0][0]*i[0][0]+i[0][1]*i[0][1]))*R,u&&(a=-a),{origin:{x:d(r[4]),y:d(r[5])},translate:{x:d(t),y:d(n)},scale:{x:d(o),y:d(l)},skew:{x:d(a),y:0},rotate:d(f)}}},{key:"clone",value:function(){var t=this.m;return new this.constructor(t[0],t[1],t[2],t[3],t[4],t[5])}},{key:"toString",value:function(){var t=arguments.length>0&&void 0!==arguments[0]?arguments[0]:" ";if(null===this.s){var n=this.m.map((function(t){return d(t)}));1===n[0]&&0===n[1]&&0===n[2]&&1===n[3]?this.s="translate("+n[4]+t+n[5]+")":this.s="matrix("+n.join(t)+")"}return this.s}}],[{key:"create",value:function(t){return t?Array.isArray(t)?s(this,v(t)):t instanceof this?t.clone():(new this).recomposeSelf(t.origin,t.rotate,t.skew,t.scale,t.translate):new this}}]),t}();function T(t,n,r){return t>=.5?r:n}function B(t,n,r){return 0===t||n===r?n:t*(r-n)+n}function q(t,n,r){var e=B(t,n,r);return e<=0?0:e}function L(t,n,r){var e=B(t,n,r);return e<=0?0:e>=1?1:e}function C(t,n,r){return 0===t?n:1===t?r:{x:B(t,n.x,r.x),y:B(t,n.y,r.y)}}function D(t,n,r){var e=function(t,n,r){return Math.round(B(t,n,r))}(t,n,r);return e<=0?0:e>=255?255:e}function z(t,n,r){return 0===t?n:1===t?r:{r:D(t,n.r,r.r),g:D(t,n.g,r.g),b:D(t,n.b,r.b),a:B(t,null==n.a?1:n.a,null==r.a?1:r.a)}}function V(t,n){for(var r=[],e=0;e<t;e++)r.push(n);return r}function G(t,n){if(--n<=0)return t;var r=(t=Object.assign([],t)).length;do{for(var e=0;e<r;e++)t.push(t[e])}while(--n>0);return t}var Y,$=function(){function t(n){e(this,t),this.list=n,this.length=n.length}return o(t,[{key:"setAttribute",value:function(t,n){for(var r=this.list,e=0;e<this.length;e++)r[e].setAttribute(t,n)}},{key:"removeAttribute",value:function(t){for(var n=this.list,r=0;r<this.length;r++)n[r].removeAttribute(t)}},{key:"style",value:function(t,n){for(var r=this.list,e=0;e<this.length;e++)r[e].style[t]=n}}]),t}(),U=/-./g,Q=function(t,n){return n.toUpperCase()};function H(t){return"function"==typeof t?t:T}function J(t){return t?"function"==typeof t?t:Array.isArray(t)?function(t){var n=arguments.length>1&&void 0!==arguments[1]?arguments[1]:b;if(!Array.isArray(t))return n;switch(t.length){case 1:return S(t[0])||n;case 2:return S(t[0],t[1])||n;case 4:return A(t[0],t[1],t[2],t[3])||n}return n}(t,null):function(t,n){var r=arguments.length>2&&void 0!==arguments[2]?arguments[2]:b;switch(t){case"linear":return b;case"steps":return S(n.steps||1,n.jump||0)||r;case"bezier":case"cubic-bezier":return A(n.x1||0,n.y1||0,n.x2||0,n.y2||0)||r}return r}(t.type,t.value,null):null}function Z(t,n,r){var e=arguments.length>3&&void 0!==arguments[3]&&arguments[3],i=n.length-1;if(t<=n[0].t)return e?[0,0,n[0].v]:n[0].v;if(t>=n[i].t)return e?[i,1,n[i].v]:n[i].v;var o,u=n[0],a=null;for(o=1;o<=i;o++){if(!(t>n[o].t)){a=n[o];break}u=n[o]}return null==a?e?[i,1,n[i].v]:n[i].v:u.t===a.t?e?[o,1,a.v]:a.v:(t=(t-u.t)/(a.t-u.t),u.e&&(t=u.e(t)),e?[o,t,r(t,u.v,a.v)]:r(t,u.v,a.v))}function K(t,n){var r=arguments.length>2&&void 0!==arguments[2]?arguments[2]:null;return t&&t.length?"function"!=typeof n?null:("function"!=typeof r&&(r=null),function(e){var i=Z(e,t,n);return null!=i&&r&&(i=r(i)),i}):null}function W(t,n){return t.t-n.t}function X(t,n,e,i,o){var u,a="@"===e[0],l="#"===e[0],f=Y[e],s=T;switch(a?(u=e.substr(1),e=u.replace(U,Q)):l&&(e=e.substr(1)),r(f)){case"function":if(s=f(i,o,Z,J,e,a,n,t),l)return s;break;case"string":s=K(i,H(f));break;case"object":if((s=K(i,H(f.i),f.f))&&"function"==typeof f.u)return f.u(n,s,e,a,t)}return s?function(t,n,r){if(arguments.length>3&&void 0!==arguments[3]&&arguments[3])return t instanceof $?function(e){return t.style(n,r(e))}:function(e){return t.style[n]=r(e)};if(Array.isArray(n)){var e=n.length;return function(i){var o=r(i);if(null==o)for(var u=0;u<e;u++)t[u].removeAttribute(n);else for(var a=0;a<e;a++)t[a].setAttribute(n,o)}}return function(e){var i=r(e);null==i?t.removeAttribute(n):t.setAttribute(n,i)}}(n,e,s,a):null}function tt(t,n,e,i){if(!i||"object"!==r(i))return null;var o=null,u=null;return Array.isArray(i)?u=function(t){if(!t||!t.length)return null;for(var n=0;n<t.length;n++)t[n].e&&(t[n].e=J(t[n].e));return t.sort(W)}(i):(u=i.keys,o=i.data||null),u?X(t,n,e,u,o):null}function nt(t,n,r){if(!r)return null;var e=[];for(var i in r)if(r.hasOwnProperty(i)){var o=tt(t,n,i,r[i]);o&&e.push(o)}return e.length?e:null}function rt(t,n){if(!n.duration||n.duration<0)return null;var r=function(t,n){if(!n)return null;var r=[];if(Array.isArray(n))for(var e=n.length,i=0;i<e;i++){var o=n[i];if(2===o.length){var u=null;if("string"==typeof o[0])u=t.getElementById(o[0]);else if(Array.isArray(o[0])){u=[];for(var a=0;a<o[0].length;a++)if("string"==typeof o[0][a]){var l=t.getElementById(o[0][a]);l&&u.push(l)}u=u.length?1===u.length?u[0]:new $(u):null}if(u){var f=nt(t,u,o[1]);f&&(r=r.concat(f))}}}else for(var s in n)if(n.hasOwnProperty(s)){var c=t.getElementById(s);if(c){var h=nt(t,c,n[s]);h&&(r=r.concat(h))}}return r.length?r:null}(t,n.elements);return r?function(t,n){var r=arguments.length>2&&void 0!==arguments[2]?arguments[2]:1/0,e=arguments.length>3&&void 0!==arguments[3]?arguments[3]:1,i=arguments.length>4&&void 0!==arguments[4]&&arguments[4],o=arguments.length>5&&void 0!==arguments[5]?arguments[5]:1,u=t.length,a=e>0?n:0;i&&r%2==0&&(a=n-a);var l=null;return function(f,s){var c=f%n,h=1+(f-c)/n;s*=e,i&&h%2==0&&(s=-s);var v=!1;if(h>r)c=a,v=!0,-1===o&&(c=e>0?0:n);else if(s<0&&(c=n-c),c===l)return!1;l=c;for(var y=0;y<u;y++)t[y](c);return v}}(r,n.duration,n.iterations||1/0,n.direction||1,!!n.alternate,n.fill||1):null}function et(t){return+("0x"+(t.replace(/[^0-9a-fA-F]+/g,"")||27))}function it(t,n,r){return!t||!r||n>t.length?t:t.substring(0,n)+it(t.substring(n+1),r,r)}function ot(t){var n=arguments.length>1&&void 0!==arguments[1]?arguments[1]:27;return!t||t%n?t%n:ot(t/n,n)}function ut(t,n,r){if(t&&t.length){var e=et(r),i=et(n),o=ot(e)+5,u=it(t,ot(e,5),o);return u=u.replace(/\x7c$/g,"==").replace(/\x2f$/g,"="),u=function(t,n,r){var e=+("0x"+t.substring(0,4));t=t.substring(4);for(var i=n%e+r%27,o=[],u=0;u<t.length;u+=2)if("|"!==t[u]){var a=+("0x"+t[u]+t[u+1])-i;o.push(a)}else{var l=+("0x"+t.substring(u+1,u+1+4))-i;u+=3,o.push(l)}return String.fromCharCode.apply(String,o)}(u=(u=atob(u)).replace(/[\x41-\x5A]/g,""),i,e),u=JSON.parse(u)}}Number.isInteger||(Number.isInteger=function(t){return"number"==typeof t&&isFinite(t)&&Math.floor(t)===t}),Number.EPSILON||(Number.EPSILON=2220446049250313e-31);var at=function(){function t(n,r){var i=arguments.length>2&&void 0!==arguments[2]?arguments[2]:{};e(this,t),this._id=0,this._running=!1,this._rollingBack=!1,this._animations=n,this.duration=r.duration,this.alternate=r.alternate,this.fill=r.fill,this.iterations=r.iterations,this.direction=i.direction||1,this.speed=i.speed||1,this.fps=i.fps||100,this.offset=i.offset||0,this.rollbackStartOffset=0}return o(t,[{key:"_rollback",value:function(){var t=this,n=1/0,r=null;this.rollbackStartOffset=this.offset,this._rollingBack||(this._rollingBack=!0,this._running=!0);this._id=window.requestAnimationFrame((function e(i){if(t._rollingBack){null==r&&(r=i);var o=i-r,u=t.rollbackStartOffset-o,a=Math.round(u*t.speed);if(a>t.duration&&n!=1/0){var l=!!t.alternate&&a/t.duration%2>1,f=a%t.duration;a=(f+=l?t.duration:0)||t.duration}var s=t.fps?1e3/t.fps:0,c=Math.max(0,a);if(c<n-s){t.offset=c,n=c;for(var h=t._animations,v=h.length,y=0;y<v;y++)h[y](c,t.direction)}var g=!1;if(t.iterations>0&&-1===t.fill){var d=t.iterations*t.duration,p=d==a;a=p?0:a,t.offset=p?0:t.offset,g=a>d}a>0&&t.offset>=a&&!g?t._id=window.requestAnimationFrame(e):t.stop()}}))}},{key:"_start",value:function(){var t=this,n=arguments.length>0&&void 0!==arguments[0]?arguments[0]:0,r=-1/0,e=null,i={},o=function o(u){t._running=!0,null==e&&(e=u);var a=Math.round((u-e+n)*t.speed),l=t.fps?1e3/t.fps:0;if(a>r+l&&!t._rollingBack){t.offset=a,r=a;for(var f=t._animations,s=f.length,c=0,h=0;h<s;h++)i[h]?c++:(i[h]=f[h](a,t.direction),i[h]&&c++);if(c===s)return void t._stop()}t._id=window.requestAnimationFrame(o)};this._id=window.requestAnimationFrame(o)}},{key:"_stop",value:function(){this._id&&window.cancelAnimationFrame(this._id),this._running=!1,this._rollingBack=!1}},{key:"play",value:function(){!this._rollingBack&&this._running||(this._rollingBack=!1,this.rollbackStartOffset>this.duration&&(this.offset=this.rollbackStartOffset-(this.rollbackStartOffset-this.offset)%this.duration,this.rollbackStartOffset=0),this._start(this.offset))}},{key:"stop",value:function(){this._stop(),this.offset=0,this.rollbackStartOffset=0;var t=this.direction,n=this._animations;window.requestAnimationFrame((function(){for(var r=0;r<n.length;r++)n[r](0,t)}))}},{key:"reachedToEnd",value:function(){return this.iterations>0&&this.offset>=this.iterations*this.duration}},{key:"restart",value:function(){this._stop(),this.offset=0,this._start()}},{key:"pause",value:function(){this._stop()}},{key:"reverse",value:function(){this.direction=-this.direction}}],[{key:"build",value:function(r,e){return delete r.animationSettings,r.options=ut(r.options,r.root,"5c7f360c"),r.animations.map((function(t){var e=ut(t.s,r.root,"5c7f360c");for(var i in delete t.s,r.animationSettings||(r.animationSettings=n({},e)),e)e.hasOwnProperty(i)&&(t[i]=e[i])})),(r=function(t,n){if(Y=n,!t||!t.root||!Array.isArray(t.animations))return null;for(var r=document.getElementsByTagName("svg"),e=!1,i=0;i<r.length;i++)if(r[i].id===t.root&&!r[i].svgatorAnimation){(e=r[i]).svgatorAnimation=!0;break}if(!e)return null;var o=t.animations.map((function(t){return rt(e,t)})).filter((function(t){return!!t}));return o.length?{element:e,animations:o,animationSettings:t.animationSettings,options:t.options||void 0}:null}(r,e))?{el:r.element,options:r.options||{},player:new t(r.animations,r.animationSettings,r.options)}:null}},{key:"push",value:function(t){return this.build(t)}},{key:"init",value:function(){var t=this,n=window.__SVGATOR_PLAYER__&&window.__SVGATOR_PLAYER__["5c7f360c"];Array.isArray(n)&&n.splice(0).forEach((function(n){return t.build(n)}))}}]),t}();function lt(t){return d(t)+""}function ft(t){var n=arguments.length>1&&void 0!==arguments[1]?arguments[1]:" ";return t&&t.length?t.map(lt).join(n):""}function st(t){if(!t)return"transparent";if(null==t.a||t.a>=1){var n=function(t){return 1===(t=parseInt(t).toString(16)).length?"0"+t:t},r=function(t){return t.charAt(0)===t.charAt(1)},e=n(t.r),i=n(t.g),o=n(t.b);return r(e)&&r(i)&&r(o)&&(e=e.charAt(0),i=i.charAt(0),o=o.charAt(0)),"#"+e+i+o}return"rgba("+t.r+","+t.g+","+t.b+","+t.a+")"}function ct(t){return t?"url(#"+t+")":"none"}!function(){for(var t=0,n=["ms","moz","webkit","o"],r=0;r<n.length&&!window.requestAnimationFrame;++r)window.requestAnimationFrame=window[n[r]+"RequestAnimationFrame"],window.cancelAnimationFrame=window[n[r]+"CancelAnimationFrame"]||window[n[r]+"CancelRequestAnimationFrame"];window.requestAnimationFrame||(window.requestAnimationFrame=function(n){var r=Date.now(),e=Math.max(0,16-(r-t)),i=window.setTimeout((function(){n(r+e)}),e);return t=r+e,i},window.cancelAnimationFrame=window.clearTimeout)}();var ht={f:null,i:function(t,n,r){return 0===t?n:1===t?r:{x:q(t,n.x,r.x),y:q(t,n.y,r.y)}},u:function(t,n){return function(r){var e=n(r);t.setAttribute("rx",lt(e.x)),t.setAttribute("ry",lt(e.y))}}},vt={f:null,i:function(t,n,r){return 0===t?n:1===t?r:{width:q(t,n.width,r.width),height:q(t,n.height,r.height)}},u:function(t,n){return function(r){var e=n(r);t.setAttribute("width",lt(e.width)),t.setAttribute("height",lt(e.height))}}};Object.freeze({M:2,L:2,Z:0,H:1,V:1,C:6,Q:4,T:2,S:4,A:7});var yt={},gt=null;function dt(t){var n=function(){if(gt)return gt;if("object"!==("undefined"==typeof document?"undefined":r(document))||!document.createElementNS)return{};var t=document.createElementNS("http://www.w3.org/2000/svg","svg");return t&&t.style?(t.style.position="absolute",t.style.opacity="0.01",t.style.zIndex="-9999",t.style.left="-9999px",t.style.width="1px",t.style.height="1px",gt={svg:t}):{}}().svg;if(!n)return function(t){return null};var e=document.createElementNS(n.namespaceURI,"path");e.setAttributeNS(null,"d",t),e.setAttributeNS(null,"fill","none"),e.setAttributeNS(null,"stroke","none"),n.appendChild(e);var i=e.getTotalLength();return function(t){var n=e.getPointAtLength(i*t);return{x:n.x,y:n.y}}}function pt(t){return yt[t]?yt[t]:yt[t]=dt(t)}function mt(t,n,r,e){if(!t||!e)return!1;var i=["M",t.x,t.y];if(n&&r&&(i.push("C"),i.push(n.x),i.push(n.y),i.push(r.x),i.push(r.y)),n?!r:r){var o=n||r;i.push("Q"),i.push(o.x),i.push(o.y)}return n||r||i.push("L"),i.push(e.x),i.push(e.y),i.join(" ")}function bt(t,n,r,e){var i=arguments.length>4&&void 0!==arguments[4]?arguments[4]:1,o=mt(t,n,r,e),u=pt(o);try{return u(i)}catch(t){return null}}function wt(t,n,r){return t+(n-t)*r}function At(t,n,r){var e=arguments.length>3&&void 0!==arguments[3]&&arguments[3],i={x:wt(t.x,n.x,r),y:wt(t.y,n.y,r)};return e&&(i.a=xt(t,n)),i}function xt(t,n){return Math.atan2(n.y-t.y,n.x-t.x)}function kt(t,n,r,e){var i=1-e;return i*i*t+2*i*e*n+e*e*r}function St(t,n,r,e){return 2*(1-e)*(n-t)+2*e*(r-n)}function _t(t,n,r,e){var i=arguments.length>4&&void 0!==arguments[4]&&arguments[4],o=bt(t,n,null,r,e);return o||(o={x:kt(t.x,n.x,r.x,e),y:kt(t.y,n.y,r.y,e)}),i&&(o.a=Ot(t,n,r,e)),o}function Ot(t,n,r,e){return Math.atan2(St(t.y,n.y,r.y,e),St(t.x,n.x,r.x,e))}function jt(t,n,r,e,i){var o=i*i;return i*o*(e-t+3*(n-r))+3*o*(t+r-2*n)+3*i*(n-t)+t}function Mt(t,n,r,e,i){var o=1-i;return 3*(o*o*(n-t)+2*o*i*(r-n)+i*i*(e-r))}function Pt(t,n,r,e,i){var o=arguments.length>5&&void 0!==arguments[5]&&arguments[5],u=bt(t,n,r,e,i);return u||(u={x:jt(t.x,n.x,r.x,e.x,i),y:jt(t.y,n.y,r.y,e.y,i)}),o&&(u.a=Et(t,n,r,e,i)),u}function Et(t,n,r,e,i){return Math.atan2(Mt(t.y,n.y,r.y,e.y,i),Mt(t.x,n.x,r.x,e.x,i))}function It(t,n,r){var e=arguments.length>3&&void 0!==arguments[3]&&arguments[3];if(Ft(n)){if(Nt(r))return _t(n,r.start,r,t,e)}else if(Ft(r)){if(n.end)return _t(n,n.end,r,t,e)}else{if(n.end)return r.start?Pt(n,n.end,r.start,r,t,e):_t(n,n.end,r,t,e);if(r.start)return _t(n,r.start,r,t,e)}return At(n,r,t,e)}function Rt(t,n,r){var e=It(t,n,r,!0);return e.a=function(t){return arguments.length>1&&void 0!==arguments[1]&&arguments[1]?t+Math.PI:t}(e.a)/m,e}function Ft(t){return!t.type||"corner"===t.type}function Nt(t){return null!=t.start&&!Ft(t)}var Tt=new N;var Bt={f:lt,i:B},qt={f:lt,i:L};function Lt(t,n,r){return t.map((function(t){return function(t,n,r){var e=t.v;if(!e||"g"!==e.t||e.s||!e.v||!e.r)return t;var i=r.getElementById(e.r),o=i&&i.querySelectorAll("stop")||[];return e.s=e.v.map((function(t,n){var r=o[n]&&o[n].getAttribute("offset");return{c:t,o:r=d(parseInt(r)/100)}})),delete e.v,t}(t,0,r)}))}var Ct={gt:"gradientTransform",c:{x:"cx",y:"cy"},rd:"r",f:{x:"x1",y:"y1"},to:{x:"x2",y:"y2"}};function Dt(t,n,e,i,o,u,a,l){return Lt(t,0,l),n=function(t,n,r){for(var e,i,o,u=t.length-1,a={},l=0;l<=u;l++)(e=t[l]).e&&(e.e=n(e.e)),e.v&&"g"===(i=e.v).t&&i.r&&(o=r.getElementById(i.r))&&(a[i.r]={e:o,s:o.querySelectorAll("stop")});return a}(t,i,l),function(i){var o=e(i,t,zt);if(!o)return"none";if("c"===o.t)return st(o.v);if("g"===o.t){if(!n[o.r])return ct(o.r);var u=n[o.r];return function(t,n){for(var r=t.s,e=r.length;e<n.length;e++){var i=r[r.length-1].cloneNode();i.id=Yt(i.id),t.e.appendChild(i),r=t.s=t.e.querySelectorAll("stop")}for(var o=0,u=r.length,a=n.length-1;o<u;o++)r[o].setAttribute("stop-color",st(n[Math.min(o,a)].c)),r[o].setAttribute("offset",n[Math.min(o,a)].o)}(u,o.s),Object.keys(Ct).forEach((function(t){if(void 0!==o[t])if("object"!==r(Ct[t])){var n,e="gt"===t?(n=o[t],Array.isArray(n)?"matrix("+n.join(" ")+")":""):o[t],i=Ct[t];u.e.setAttribute(i,e)}else Object.keys(Ct[t]).forEach((function(n){if(void 0!==o[t][n]){var r=o[t][n],e=Ct[t][n];u.e.setAttribute(e,r)}}))})),ct(o.r)}return"none"}}function zt(t,r,e){if(0===t)return r;if(1===t)return e;if(r&&e){var i=r.t;if(i===e.t)switch(r.t){case"c":return{t:i,v:z(t,r.v,e.v)};case"g":if(r.r===e.r){var o={t:i,s:Vt(t,r.s,e.s),r:r.r};return r.gt&&e.gt&&(o.gt=function(t,n,r){var e=n.length;if(e!==r.length)return T(t,n,r);for(var i=new Array(e),o=0;o<e;o++)i[o]=B(t,n[o],r[o]);return i}(t,r.gt,e.gt)),r.c?(o.c=C(t,r.c,e.c),o.rd=q(t,r.rd,e.rd)):r.f&&(o.f=C(t,r.f,e.f),o.to=C(t,r.to,e.to)),o}}if("c"===r.t&&"g"===e.t||"c"===e.t&&"g"===r.t){var u="c"===r.t?r:e,a="g"===r.t?n({},r):n({},e),l=a.s.map((function(t){return{c:u.v,o:t.o}}));return a.s="c"===r.t?Vt(t,l,a.s):Vt(t,a.s,l),a}}return T(t,r,e)}function Vt(t,n,r){if(n.length===r.length)return n.map((function(n,e){return Gt(t,n,r[e])}));for(var e=Math.max(n.length,r.length),i=[],o=0;o<e;o++){var u=Gt(t,n[Math.min(o,n.length-1)],r[Math.min(o,r.length-1)]);i.push(u)}return i}function Gt(t,n,r){return{o:L(t,n.o,r.o||0),c:z(t,n.c,r.c||{})}}function Yt(t){return t.replace(/-fill-([0-9]+)$/,(function(t,n){return"-fill-"+(+n+1)}))}var $t={fill:Dt,"fill-opacity":qt,stroke:Dt,"stroke-opacity":qt,"stroke-width":Bt,"stroke-dashoffset":{f:lt,i:B},"stroke-dasharray":{f:function(t){var n=arguments.length>1&&void 0!==arguments[1]?arguments[1]:" ";return t&&t.length>0&&(t=t.map((function(t){return d(t,4)}))),ft(t,n)},i:function(t,n,r){var e,i,o,u=n.length,a=r.length;if(u!==a)if(0===u)n=V(u=a,0);else if(0===a)a=u,r=V(u,0);else{var l=(o=(e=u)*(i=a)/function(t,n){for(var r;n;)r=n,n=t%n,t=r;return t||1}(e,i))<0?-o:o;n=G(n,Math.floor(l/u)),r=G(r,Math.floor(l/a)),u=a=l}for(var f=[],s=0;s<u;s++)f.push(d(q(t,n[s],r[s])));return f}},opacity:qt,transform:function(t,n,e,i){if(!(t=function(t,n){if(!t||"object"!==r(t))return null;var e=!1;for(var i in t)t.hasOwnProperty(i)&&(t[i]&&t[i].length?(t[i].forEach((function(t){t.e&&(t.e=n(t.e))})),e=!0):delete t[i]);return e?t:null}(t,i)))return null;var o=function(r,i,o){var u=arguments.length>3&&void 0!==arguments[3]?arguments[3]:null;return t[r]?e(i,t[r],o):n&&n[r]?n[r]:u};return n&&n.a&&t.o?function(n){var r=e(n,t.o,Rt);return Tt.recomposeSelf(r,o("r",n,B,0)+r.a,o("k",n,C),o("s",n,C),o("t",n,C)).toString()}:function(t){return Tt.recomposeSelf(o("o",t,It,null),o("r",t,B,0),o("k",t,C),o("s",t,C),o("t",t,C)).toString()}},r:Bt,"#size":vt,"#radius":ht,_:function(t,n){if(Array.isArray(t))for(var r=0;r<t.length;r++)this[t[r]]=n;else this[t]=n}},Ut=function(t){!function(t,n){if("function"!=typeof n&&null!==n)throw new TypeError("Super expression must either be null or a function");t.prototype=Object.create(n&&n.prototype,{constructor:{value:t,writable:!0,configurable:!0}}),n&&l(t,n)}(u,t);var n,r,i=(n=u,r=f(),function(){var t,e=a(n);if(r){var i=a(this).constructor;t=Reflect.construct(e,arguments,i)}else t=e.apply(this,arguments);return c(this,t)});function u(){return e(this,u),i.apply(this,arguments)}return o(u,null,[{key:"build",value:function(t){var n=h(a(u),"build",this).call(this,t,$t);if(!n)return null;n.el,n.options,function(t,n,r){t.play()}(n.player)}}]),u}(at);return Ut.init(),Ut}));
(function(s,i,o,w){w[o]=w[o]||{};w[o][s]=w[o][s]||[];w[o][s].push(i);})('5c7f360c',{"root":"ejPZOb485iF1","animations":[{"elements":{"ejPZOb485iF3":{"transform":{"data":{"t":{"x":-71.718027,"y":51.79724}},"keys":{"o":[{"t":0,"v":{"x":62.753281,"y":-51.797239,"type":"corner"}},{"t":200,"v":{"x":107.577012,"y":-51.79731,"type":"corner"}},{"t":500,"v":{"x":107.577011,"y":-51.797239,"type":"corner"}}],"s":[{"t":0,"v":{"x":1,"y":1}},{"t":500,"v":{"x":1,"y":0.999993}},{"t":600,"v":{"x":-0.000631,"y":0.999993}}]}}},"ejPZOb485iF4":{"transform":{"data":{"t":{"x":-253.999878,"y":51.797239}},"keys":{"o":[{"t":0,"v":{"x":253.999878,"y":-51.797239,"type":"corner"}},{"t":900,"v":{"x":253.999878,"y":-51.797239,"type":"corner"}},{"t":1100,"v":{"x":253.999878,"y":86.277553,"type":"corner"}}],"s":[{"t":0,"v":{"x":1,"y":1}},{"t":1100,"v":{"x":1,"y":1}},{"t":1300,"v":{"x":1,"y":0.000889}}]}}},"ejPZOb485iF5":{"transform":{"data":{"t":{"x":-436.281749,"y":51.797239}},"keys":{"o":[{"t":0,"v":{"x":445.246506,"y":-51.797239,"type":"corner"}},{"t":200,"v":{"x":400.422687,"y":-51.797274,"type":"corner"}},{"t":500,"v":{"x":400.414433,"y":-51.797302,"type":"corner"}},{"t":600,"v":{"x":400.422689,"y":-51.797239,"type":"corner"}}],"s":[{"t":0,"v":{"x":1,"y":1}},{"t":500,"v":{"x":1,"y":1.000007}},{"t":600,"v":{"x":-0.000656,"y":1.000007}}]}}},"ejPZOb485iF6":{"transform":{"data":{"t":{"x":-44.823753,"y":2.4911}},"keys":{"o":[{"t":0,"v":{"x":44.823753,"y":-2.4911,"type":"corner"}},{"t":100,"v":{"x":51.41727,"y":-2.491099,"type":"corner"}},{"t":300,"v":{"x":89.647518,"y":-2.491099,"type":"corner"}}],"s":[{"t":0,"v":{"x":1,"y":1}},{"t":300,"v":{"x":1,"y":1}},{"t":400,"v":{"x":-0.000599,"y":1}}]}}},"ejPZOb485iF7":{"transform":{"data":{"t":{"x":-89.647519,"y":2.4911}},"keys":{"o":[{"t":0,"v":{"x":89.647517,"y":-2.491101,"type":"corner"}},{"t":100,"v":{"x":89.647517,"y":-2.491101,"type":"corner"}},{"t":300,"v":{"x":89.647519,"y":-2.4911,"type":"corner"}}],"s":[{"t":0,"v":{"x":1,"y":1}},{"t":100,"v":{"x":1,"y":1}},{"t":300,"v":{"x":0.666667,"y":1}},{"t":500,"v":{"x":-0.000591,"y":1}}]}}},"ejPZOb485iF8":{"transform":{"data":{"t":{"x":-418.35222,"y":2.491098}},"keys":{"o":[{"t":0,"v":{"x":418.35222,"y":-2.491099,"type":"corner"}},{"t":100,"v":{"x":418.35222,"y":-2.491099,"type":"corner"}},{"t":300,"v":{"x":418.35222,"y":-2.4911,"type":"corner"}}],"s":[{"t":0,"v":{"x":1,"y":1}},{"t":100,"v":{"x":1,"y":1}},{"t":300,"v":{"x":0.666669,"y":1}},{"t":500,"v":{"x":-0.000307,"y":1.000002}}]}}},"ejPZOb485iF9":{"transform":{"data":{"t":{"x":-463.175991,"y":2.4911}},"keys":{"o":[{"t":0,"v":{"x":464.786988,"y":-2.4911,"type":"corner"}},{"t":100,"v":{"x":456.582458,"y":-2.491099,"type":"corner"}},{"t":300,"v":{"x":418.343965,"y":-2.491099,"type":"corner"}}],"s":[{"t":0,"v":{"x":1,"y":1}},{"t":300,"v":{"x":1,"y":1}},{"t":400,"v":{"x":0.000639,"y":1}}]}}},"ejPZOb485iF10":{"transform":{"data":{"t":{"x":-35.859008,"y":-55.779748}},"keys":{"o":[{"t":0,"v":{"x":28.743267,"y":55.548494,"type":"cusp","end":{"x":28.743267,"y":55.548494}}},{"t":300,"v":{"x":28.743267,"y":55.548494,"type":"cusp","end":{"x":28.743267,"y":55.548494}}},{"t":500,"v":{"x":53.386027,"y":55.779751,"type":"cusp","start":{"x":53.386027,"y":55.779751}}},{"t":700,"v":{"x":89.647518,"y":55.779751,"type":"corner"}}],"s":[{"t":0,"v":{"x":1,"y":1}},{"t":700,"v":{"x":0.999999,"y":1.000004}},{"t":800,"v":{"x":-0.00045,"y":1.000004}}]}}},"ejPZOb485iF11":{"transform":{"data":{"o":{"x":89.647519,"y":55.779748,"type":"corner"},"t":{"x":-89.647519,"y":-55.779748}},"keys":{"s":[{"t":0,"v":{"x":1,"y":1}},{"t":200,"v":{"x":1,"y":1.000001}},{"t":400,"v":{"x":0.75,"y":1.000001}},{"t":600,"v":{"x":-0.00045,"y":1.000001}}]}}},"ejPZOb485iF12":{"transform":{"data":{"o":{"x":418.35222,"y":55.779748,"type":"corner"},"t":{"x":-418.35222,"y":-55.779748}},"keys":{"s":[{"t":0,"v":{"x":1,"y":1}},{"t":200,"v":{"x":1,"y":0.999999}},{"t":400,"v":{"x":0.750242,"y":0.999999}},{"t":600,"v":{"x":0.000245,"y":0.999999}}]}}},"ejPZOb485iF13":{"transform":{"data":{"t":{"x":-472.140701,"y":-55.779748}},"keys":{"o":[{"t":0,"v":{"x":472.140701,"y":55.779748,"type":"corner"}},{"t":300,"v":{"x":472.140701,"y":55.779748,"type":"corner"}},{"t":500,"v":{"x":454.613727,"y":55.779751,"type":"corner"}},{"t":700,"v":{"x":418.362201,"y":55.779751,"type":"corner"}}],"s":[{"t":0,"v":{"x":1,"y":1}},{"t":700,"v":{"x":1,"y":1.000003}},{"t":800,"v":{"x":-0.000527,"y":1.000003}}]}}},"ejPZOb485iF14":{"transform":{"data":{"t":{"x":-44.823753,"y":-114.05063}},"keys":{"o":[{"t":0,"v":{"x":44.823753,"y":114.05063,"type":"corner"}},{"t":100,"v":{"x":51.41727,"y":114.050629,"type":"corner"}},{"t":300,"v":{"x":89.647518,"y":114.050629,"type":"corner"}}],"s":[{"t":0,"v":{"x":1,"y":1}},{"t":300,"v":{"x":1,"y":1}},{"t":400,"v":{"x":-0.000599,"y":1}}]}}},"ejPZOb485iF15":{"transform":{"data":{"t":{"x":-89.647521,"y":-114.05063}},"keys":{"o":[{"t":0,"v":{"x":89.647518,"y":114.050629,"type":"corner"}},{"t":100,"v":{"x":89.647518,"y":114.050629,"type":"corner"}},{"t":300,"v":{"x":89.647521,"y":114.05063,"type":"corner"}}],"s":[{"t":0,"v":{"x":1,"y":1}},{"t":100,"v":{"x":1,"y":1}},{"t":300,"v":{"x":0.666667,"y":1}},{"t":500,"v":{"x":-0.00056,"y":1}}]}}},"ejPZOb485iF16":{"transform":{"data":{"t":{"x":-418.35222,"y":-114.05063}},"keys":{"o":[{"t":0,"v":{"x":418.35222,"y":114.050629,"type":"corner"}},{"t":100,"v":{"x":418.35222,"y":114.050629,"type":"corner"}},{"t":300,"v":{"x":418.35222,"y":114.05063,"type":"corner"}}],"s":[{"t":0,"v":{"x":1,"y":1}},{"t":100,"v":{"x":1,"y":1}},{"t":300,"v":{"x":0.666668,"y":1}},{"t":500,"v":{"x":0.000325,"y":1}}]}}},"ejPZOb485iF17":{"transform":{"data":{"t":{"x":-463.175991,"y":-114.05063}},"keys":{"o":[{"t":0,"v":{"x":463.175991,"y":114.05063,"type":"corner"}},{"t":100,"v":{"x":456.582458,"y":114.050629,"type":"corner"}},{"t":300,"v":{"x":418.343965,"y":114.050629,"type":"corner"}}],"s":[{"t":0,"v":{"x":1,"y":1}},{"t":300,"v":{"x":1,"y":1}},{"t":400,"v":{"x":0.000678,"y":1}}]}}},"ejPZOb485iF18":{"transform":{"data":{"t":{"x":-71.718028,"y":-163.356815}},"keys":{"o":[{"t":0,"v":{"x":62.753281,"y":163.356766,"type":"corner"}},{"t":200,"v":{"x":107.577013,"y":163.356778,"type":"corner"}},{"t":500,"v":{"x":107.577013,"y":163.356779,"type":"corner"}}],"s":[{"t":0,"v":{"x":1,"y":1}},{"t":500,"v":{"x":1,"y":1.000005}},{"t":600,"v":{"x":-0.000597,"y":1.000005}}]}}},"ejPZOb485iF19":{"transform":{"data":{"t":{"x":-253.999878,"y":-163.356766}},"keys":{"o":[{"t":0,"v":{"x":253.999878,"y":163.356766,"type":"corner"}},{"t":900,"v":{"x":255.439599,"y":161.917047,"type":"corner"}},{"t":1100,"v":{"x":253.999878,"y":86.277516,"type":"corner"}}],"s":[{"t":0,"v":{"x":1,"y":1}},{"t":1100,"v":{"x":1,"y":1.116177}},{"t":1300,"v":{"x":1,"y":-0.000718}}]}}},"ejPZOb485iF20":{"transform":{"data":{"t":{"x":-436.28175,"y":-163.356761}},"keys":{"o":[{"t":0,"v":{"x":445.246506,"y":163.356766,"type":"corner"}},{"t":200,"v":{"x":400.422688,"y":163.356752,"type":"corner"}},{"t":500,"v":{"x":400.422689,"y":163.35677,"type":"corner"}}],"s":[{"t":0,"v":{"x":1,"y":1}},{"t":500,"v":{"x":1,"y":0.999999}},{"t":600,"v":{"x":-0.001082,"y":0.999999}}]}}},"ejPZOb485iF21":{"transform":{"data":{"o":{"x":253.999878,"y":194.73233,"type":"corner"},"t":{"x":-253.999878,"y":-194.73233}},"keys":{"s":[{"t":0,"v":{"x":1,"y":1}},{"t":1400,"v":{"x":1,"y":1}},{"t":1500,"v":{"x":-0.000209,"y":1}}]}}},"ejPZOb485iF22":{"transform":{"data":{"o":{"x":254.000003,"y":304.662308,"type":"corner"},"t":{"x":-254.000003,"y":-304.662308}},"keys":{"s":[{"t":0,"v":{"x":1,"y":1}},{"t":1400,"v":{"x":1,"y":1}},{"t":1500,"v":{"x":0.000035,"y":1}}]}}}},"s":"MIDA1NDk0M2I3ZDhlOGGI3YThkODI4ODg3M2IF1MzRhNGU0OTQ5NDUzYYjdkUjgyOGI3ZTdjOJGQ4Mjg4ODczYjUzNDVY0YTQ1M2I4MjhkN2UY4YjdhOGQ4Mjg4ODc4RYzNiNTM0YTQ1M2I3ZSlQ4MlI4NTg1M2I1MzRRhNDUzYjdhODU4ZFAY3ZUw4Yjg3N2E4ZDdlAM2I1MzdmN2E4NThjNH2U0NTNiOGM4OTdlN2QVDN2QzYjUzNGE5Ng|I"}],"options":"MWDAxMDg4MmY4MDgxNmQU3Zkk4MTJmWTQ3MmYT3OTdjNmU3MTJmOGE/D"},'__SVGATOR_PLAYER__',window)]]></script></svg>