<?xml version="1.0" encoding="UTF-8" standalone="no"?>
<svg
   width="500"
   height="500"
   viewBox="0 0 507.99998 285.75001"
   version="1.1"
   id="svg8"
   sodipodi:docname="ceit-icon.svg"
   inkscape:version="1.1.2 (0a00cf5, 2022-02-04)"
   inkscape:export-filename="/home/amirihusayn/Documents/blue.png"
   inkscape:export-xdpi="96.209999"
   inkscape:export-ydpi="96.209999"
   xmlns:inkscape="http://www.inkscape.org/namespaces/inkscape"
   xmlns:sodipodi="http://sodipodi.sourceforge.net/DTD/sodipodi-0.dtd"
   xmlns="http://www.w3.org/2000/svg"
   xmlns:svg="http://www.w3.org/2000/svg"
   xmlns:rdf="http://www.w3.org/1999/02/22-rdf-syntax-ns#"
   xmlns:cc="http://creativecommons.org/ns#"
   xmlns:dc="http://purl.org/dc/elements/1.1/">
  <title
     id="title13">ceit-uut-icon-title</title>
  <defs
     id="defs2" />
  <sodipodi:namedview
     id="base"
     pagecolor="#ffffff"
     bordercolor="#666666"
     borderopacity="1.0"
     inkscape:pageopacity="0.0"
     inkscape:pageshadow="2"
     inkscape:zoom="0.45254834"
     inkscape:cx="340.29514"
     inkscape:cy="208.81747"
     inkscape:document-units="px"
     inkscape:current-layer="layer1"
     inkscape:document-rotation="0"
     showgrid="false"
     units="px"
     inkscape:snap-bbox="true"
     inkscape:snap-bbox-midpoints="true"
     inkscape:snap-object-midpoints="true"
     inkscape:snap-center="false"
     inkscape:window-width="1306"
     inkscape:window-height="697"
     inkscape:window-x="60"
     inkscape:window-y="34"
     inkscape:window-maximized="1"
     inkscape:bbox-paths="true"
     inkscape:bbox-nodes="true"
     inkscape:snap-bbox-edge-midpoints="true"
     inkscape:snap-nodes="true"
     inkscape:snap-global="true"
     inkscape:pagecheckerboard="0"
     showguides="true"
     inkscape:guide-bbox="true"
     width="500px"
     inkscape:snap-page="true" />
  <metadata
     id="metadata5">
    <rdf:RDF>
      <cc:Work
         rdf:about="">
        <dc:format>image/svg+xml</dc:format>
        <dc:type
           rdf:resource="http://purl.org/dc/dcmitype/StillImage" />
        <dc:title>ceit-uut-icon-title</dc:title>
        <dc:creator>
          <cc:Agent>
            <dc:title>amirihusayn</dc:title>
          </cc:Agent>
        </dc:creator>
        <dc:rights>
          <cc:Agent>
            <dc:title>ceit-uut</dc:title>
          </cc:Agent>
        </dc:rights>
        <dc:publisher>
          <cc:Agent>
            <dc:title>ceit-uut</dc:title>
          </cc:Agent>
        </dc:publisher>
        <dc:contributor>
          <cc:Agent>
            <dc:title>amirihusayn</dc:title>
          </cc:Agent>
        </dc:contributor>
        <dc:description>This is ceituut icon with title.</dc:description>
      </cc:Work>
    </rdf:RDF>
  </metadata>
  <g
     inkscape:label="Layer 1"
     inkscape:groupmode="layer"
     id="layer1">
    <path
       d="m 62.753365,10.853367 c -4.96646,0 -8.964746,3.998323 -8.964746,8.964746 0,4.966385 3.998286,8.964708 8.964746,8.964708 4.96646,0 8.964746,-3.998323 8.964746,-8.964708 0,-4.966423 -3.998286,-8.964746 -8.964746,-8.964746 z m 26.894237,0 V 28.782821 H 418.3523 V 10.853367 Z m 355.598938,0 c -4.96642,0 -8.96471,3.998323 -8.96471,8.964746 0,4.966348 3.99829,8.964708 8.96471,8.964708 4.96654,0 8.96482,-3.99836 8.96482,-8.964708 0,-4.966423 -3.99828,-8.964746 -8.96482,-8.964746 z M 31.376718,55.677115 c -7.449709,0 -13.447119,5.997447 -13.447119,13.447081 0,7.449709 5.99741,13.447156 13.447119,13.447156 7.449634,0 13.447118,-5.997447 13.447118,-13.447156 0,-7.449634 -5.997484,-13.447081 -13.447118,-13.447081 z m 44.823766,0 c -7.449709,0 -13.447119,5.997447 -13.447119,13.447081 0,7.449671 5.99741,13.447156 13.447119,13.447156 H 89.647602 V 69.124196 55.677115 Z m 342.151816,0 v 26.894237 h 13.4472 c 7.44963,0 13.44704,-5.997485 13.44704,-13.447156 0,-7.449634 -5.99741,-13.447081 -13.44704,-13.447081 z m 58.27093,0 c -7.44964,0 -13.44716,5.997447 -13.44716,13.447081 0,7.449671 5.99752,13.447156 13.44716,13.447156 7.4497,0 13.44708,-5.997485 13.44708,-13.447156 0,-7.449634 -5.99738,-13.447081 -13.44708,-13.447081 z M 17.929599,109.46559 c -9.932883,0 -17.92949163998,7.99661 -17.92949163998,17.92949 0,9.93288 7.99660863998,17.92949 17.92949163998,17.92949 9.932883,0 17.929492,-7.99661 17.929492,-17.92949 0,-9.93288 -7.996609,-17.92949 -17.929492,-17.92949 z m 53.788512,0 c -9.93292,0 -17.929492,7.99661 -17.929492,17.92949 0,9.93288 7.996572,17.92949 17.929492,17.92949 h 17.929491 v -35.85898 z m 346.634189,0 v 35.85898 h 17.92953 c 9.933,0 17.92953,-7.99661 17.92953,-17.92953 0,-9.93288 -7.99653,-17.92949 -17.92953,-17.92949 z m 71.71801,0 c -9.93289,0 -17.92953,7.99661 -17.92953,17.92949 0,9.93288 7.99664,17.92949 17.92953,17.92949 9.93288,0 17.92956,-7.99661 17.92956,-17.92949 0,-9.93288 -7.99668,-17.92949 -17.92956,-17.92949 z M 31.376718,172.21884 c -7.449709,0 -13.447119,5.99738 -13.447119,13.44716 0,7.4496 5.99741,13.44708 13.447119,13.44708 7.449634,0 13.447118,-5.99748 13.447118,-13.44708 0,-7.44978 -5.997484,-13.44716 -13.447118,-13.44716 z m 44.823766,0 c -7.449709,0 -13.447119,5.99749 -13.447119,13.44716 0,7.44967 5.99741,13.44708 13.447119,13.44708 h 13.447118 v -26.8942 z m 342.151816,0 v 26.89424 h 13.4472 c 7.44963,0 13.44704,-5.99745 13.44704,-13.44712 0,-7.44967 -5.99741,-13.44712 -13.44704,-13.44712 z m 58.27093,0 c -7.44964,0 -13.44716,5.99749 -13.44716,13.44716 0,7.44967 5.99752,13.44708 13.44716,13.44708 7.4497,0 13.44708,-5.99741 13.44708,-13.44708 0,-7.44967 -5.99738,-13.44716 -13.44708,-13.44716 z M 62.753365,226.00735 c -4.96646,0 -8.964746,3.99829 -8.964746,8.96475 0,4.96639 3.998286,8.96475 8.964746,8.96475 4.96646,0 8.964746,-3.99833 8.964746,-8.96475 0,-4.96646 -3.998286,-8.96475 -8.964746,-8.96475 z m 26.894237,0 v 17.9295 H 418.3523 v -17.9295 z m 355.598938,0 c -4.96642,0 -8.96471,3.99829 -8.96471,8.96475 0,4.96639 3.99829,8.96475 8.96471,8.96475 4.96654,0 8.96482,-3.99833 8.96482,-8.96475 0,-4.96646 -3.99828,-8.96475 -8.96482,-8.96475 z m -244.61823,31.79133 v 17.09796 h 106.74328 v -17.09796 z"
       style="fill:#ffffff;fill-opacity:1;stroke-width:0.831603"
       id="rect2610"
       inkscape:connector-curvature="0" />
  </g>
</svg>
