<?xml version="1.0" encoding="UTF-8" standalone="no"?>
<svg
   width="1080"
   height="1080"
   viewBox="0 0 285.74999 285.75001"
   version="1.1"
   id="svg8"
   sodipodi:docname="Icon-Blue.svg"
   inkscape:version="1.1 (c68e22c387, 2021-05-23)"
   inkscape:export-filename="D:\Projects\Design\Logo design\CEIT-UUT-Logo\final\Social Icon\Social-Icon-Blue2.png"
   inkscape:export-xdpi="96"
   inkscape:export-ydpi="96"
   xmlns:inkscape="http://www.inkscape.org/namespaces/inkscape"
   xmlns:sodipodi="http://sodipodi.sourceforge.net/DTD/sodipodi-0.dtd"
   xmlns="http://www.w3.org/2000/svg"
   xmlns:svg="http://www.w3.org/2000/svg"
   xmlns:rdf="http://www.w3.org/1999/02/22-rdf-syntax-ns#"
   xmlns:cc="http://creativecommons.org/ns#"
   xmlns:dc="http://purl.org/dc/elements/1.1/">
  <defs
     id="defs2" />
  <sodipodi:namedview
     id="base"
     pagecolor="#000000"
     bordercolor="#666666"
     borderopacity="1.0"
     inkscape:pageopacity="0.0"
     inkscape:pageshadow="2"
     inkscape:zoom="0.45254834"
     inkscape:cx="378.96504"
     inkscape:cy="709.31649"
     inkscape:document-units="px"
     inkscape:current-layer="layer1"
     inkscape:document-rotation="0"
     showgrid="false"
     units="px"
     inkscape:snap-bbox="true"
     inkscape:snap-bbox-midpoints="true"
     inkscape:snap-object-midpoints="true"
     inkscape:snap-center="false"
     inkscape:window-width="1321"
     inkscape:window-height="706"
     inkscape:window-x="45"
     inkscape:window-y="34"
     inkscape:window-maximized="1"
     inkscape:bbox-paths="true"
     inkscape:bbox-nodes="true"
     inkscape:snap-bbox-edge-midpoints="true"
     inkscape:snap-nodes="true"
     inkscape:snap-global="true"
     inkscape:pagecheckerboard="0"
     showguides="true"
     inkscape:guide-bbox="true"
     width="1080px" />
  <metadata
     id="metadata5">
    <rdf:RDF>
      <cc:Work
         rdf:about="">
        <dc:format>image/svg+xml</dc:format>
        <dc:type
           rdf:resource="http://purl.org/dc/dcmitype/StillImage" />
      </cc:Work>
    </rdf:RDF>
  </metadata>
  <g
     inkscape:label="Layer 1"
     inkscape:groupmode="layer"
     id="layer1">
     <path
       id="rect2610"
       style="fill:#000000;fill-opacity:1;stroke-width:0.392305"
       d="m 52.655358,80.594448 c -2.342903,0 -4.229074,1.886189 -4.229074,4.229074 0,2.342868 1.886171,4.229057 4.229074,4.229057 2.342903,0 4.229074,-1.886189 4.229074,-4.229057 0,-2.342885 -1.886171,-4.229074 -4.229074,-4.229074 z m 12.687222,0 v 8.458131 h 155.0648 v -8.458131 z m 167.75202,0 c -2.34288,0 -4.22905,1.886189 -4.22905,4.229074 0,2.34285 1.88617,4.229057 4.22905,4.229057 2.34294,0 4.22911,-1.886207 4.22911,-4.229057 0,-2.342885 -1.88617,-4.229074 -4.22911,-4.229074 z M 37.853581,101.73982 c -3.514363,0 -6.343611,2.82926 -6.343611,6.34359 0,3.51437 2.829248,6.34363 6.343611,6.34363 3.514327,0 6.343611,-2.82926 6.343611,-6.34363 0,-3.51433 -2.829284,-6.34359 -6.343611,-6.34359 z m 21.145388,0 c -3.514363,0 -6.343611,2.82926 -6.343611,6.34359 0,3.51435 2.829248,6.34363 6.343611,6.34363 h 6.343611 v -6.34363 -6.34359 z m 161.408411,0 v 12.68722 h 6.34365 c 3.51432,0 6.34357,-2.82928 6.34357,-6.34363 0,-3.51433 -2.82925,-6.34359 -6.34357,-6.34359 z m 27.48902,0 c -3.51433,0 -6.34363,2.82926 -6.34363,6.34359 0,3.51435 2.8293,6.34363 6.34363,6.34363 3.51436,0 6.34359,-2.82928 6.34359,-6.34363 0,-3.51433 -2.82923,-6.34359 -6.34359,-6.34359 z M 31.50997,127.11426 c -4.685788,0 -8.458149,3.77236 -8.458149,8.45815 0,4.68579 3.772361,8.45815 8.458149,8.45815 4.685788,0 8.458148,-3.77236 8.458148,-8.45815 0,-4.68579 -3.77236,-8.45815 -8.458148,-8.45815 z m 25.374462,0 c -4.685806,0 -8.458148,3.77236 -8.458148,8.45815 0,4.68579 3.772342,8.45815 8.458148,8.45815 h 8.458148 v -16.9163 z m 163.522948,0 v 16.9163 h 8.45817 c 4.68584,0 8.45816,-3.77236 8.45816,-8.45815 0,-4.68579 -3.77232,-8.45815 -8.45816,-8.45815 z m 33.83261,0 c -4.68579,0 -8.45817,3.77236 -8.45817,8.45815 0,4.68579 3.77238,8.45815 8.45817,8.45815 4.68579,0 8.45818,-3.77236 8.45818,-8.45815 0,-4.68579 -3.77239,-8.45815 -8.45818,-8.45815 z M 37.853581,156.71782 c -3.514363,0 -6.343611,2.82923 -6.343611,6.34361 0,3.51433 2.829248,6.34361 6.343611,6.34361 3.514327,0 6.343611,-2.82928 6.343611,-6.34361 0,-3.51438 -2.829284,-6.34361 -6.343611,-6.34361 z m 21.145388,0 c -3.514363,0 -6.343611,2.82926 -6.343611,6.34361 0,3.51434 2.829248,6.34361 6.343611,6.34361 h 6.343611 v -12.68722 z m 161.408411,0 v 12.68722 h 6.34365 c 3.51432,0 6.34357,-2.82927 6.34357,-6.34361 0,-3.51435 -2.82925,-6.34361 -6.34357,-6.34361 z m 27.48902,0 c -3.51433,0 -6.34363,2.82926 -6.34363,6.34361 0,3.51434 2.8293,6.34361 6.34363,6.34361 3.51436,0 6.34359,-2.82927 6.34359,-6.34361 0,-3.51435 -2.82923,-6.34361 -6.34359,-6.34361 z M 52.655358,182.09226 c -2.342903,0 -4.229074,1.88619 -4.229074,4.22908 0,2.34288 1.886171,4.22907 4.229074,4.22907 2.342903,0 4.229074,-1.88619 4.229074,-4.22907 0,-2.34289 -1.886171,-4.22908 -4.229074,-4.22908 z m 12.687222,0 v 8.45815 h 155.0648 v -8.45815 z m 167.75202,0 c -2.34288,0 -4.22905,1.88619 -4.22905,4.22908 0,2.34288 1.88617,4.22907 4.22905,4.22907 2.34294,0 4.22911,-1.88619 4.22911,-4.22907 0,-2.34289 -1.88617,-4.22908 -4.22911,-4.22908 z m -115.39743,14.99742 v 8.06586 h 50.35561 v -8.06586 z" />
  </g>
</svg>
