<?xml version="1.0" encoding="UTF-8" standalone="no"?>
<!-- Created with Inkscape (http://www.inkscape.org/) -->

<svg
   xmlns:dc="http://purl.org/dc/elements/1.1/"
   xmlns:cc="http://creativecommons.org/ns#"
   xmlns:rdf="http://www.w3.org/1999/02/22-rdf-syntax-ns#"
   xmlns:svg="http://www.w3.org/2000/svg"
   xmlns="http://www.w3.org/2000/svg"
   xmlns:sodipodi="http://sodipodi.sourceforge.net/DTD/sodipodi-0.dtd"
   xmlns:inkscape="http://www.inkscape.org/namespaces/inkscape"
   version="1.1"
   id="svg2"
   xml:space="preserve"
   width="368"
   height="381.33334"
   viewBox="0 0 368 381.33334"
   sodipodi:docname="UUT-logo.svg"
   inkscape:version="0.92.5 (2060ec1f9f, 2020-04-08)"><metadata
     id="metadata8"><rdf:RDF><cc:Work
         rdf:about=""><dc:format>image/svg+xml</dc:format><dc:type
           rdf:resource="http://purl.org/dc/dcmitype/StillImage" /><dc:title></dc:title></cc:Work></rdf:RDF></metadata><defs
     id="defs6" /><sodipodi:namedview
     pagecolor="#ffffff"
     bordercolor="#666666"
     borderopacity="1"
     objecttolerance="10"
     gridtolerance="10"
     guidetolerance="10"
     inkscape:pageopacity="0"
     inkscape:pageshadow="2"
     inkscape:window-width="1306"
     inkscape:window-height="697"
     id="namedview4"
     showgrid="false"
     inkscape:zoom="0.87523005"
     inkscape:cx="298.00438"
     inkscape:cy="212.01682"
     inkscape:window-x="60"
     inkscape:window-y="34"
     inkscape:window-maximized="1"
     inkscape:current-layer="g10" /><g
     id="g10"
     inkscape:groupmode="layer"
     inkscape:label="ink_ext_XXXXXX"
     transform="matrix(1.3333333,0,0,-1.3333333,0,381.33333)"><path
       inkscape:connector-curvature="0"
       id="path14"
       style="fill:#ffffff;fill-opacity:1;fill-rule:evenodd;stroke:none;stroke-width:0.1"
       d="M 55.5535,3.75664 C 55.5621,3.16445 55.4805,2.6457 55.2992,2.20977 55.118,1.77461 54.8582,1.38906 54.5156,1.06094 53.8598,0.433984 53.0582,0.122266 52.1238,0.122266 h -2.1984 c -0.9141,0 -1.6957,0.357812 -2.3449,1.076174 -0.6477,0.7164 -0.9735,1.56992 -0.9735,2.5582 v 2.90352 h 1.3071 v -3.0793 c 0,-0.5918 0.2234,-1.0918 0.6691,-1.49102 0.4457,-0.39882 0.9914,-0.59609 1.6285,-0.59609 h 1.8012 c 0.5969,0 1.0637,0.20195 1.4355,0.50859 0.4782,0.39454 0.7391,0.84844 0.7485,1.39766 0.0097,0.54609 -0.4305,0.97969 -1.3391,0.97969 h -1.9117 v 2.3914 c 0,0.74571 0.2363,1.35196 0.7074,1.81836 0.4723,0.46797 1.0668,0.70157 1.7801,0.70157 h 1.7367 V 7.9668 h -1.6894 c -0.4551,0 -0.8383,-0.20703 -1.0383,-0.66914 -0.1594,-0.36953 -0.1903,-0.91524 -0.1903,-1.59375 1.1055,0 1.8477,-0.15 2.2805,-0.33633 0.6535,-0.28125 1.0086,-0.78164 1.0207,-1.61094 z M 229.283,3.50234 c 0,-0.90273 -0.362,-1.71171 -1.076,-2.37734 -0.715,-0.666797 -1.544,-1.002734 -2.464,-1.002734 h -1.802 l -0.207,1.403514 h 1.786 c 0.702,0 1.259,0.23867 1.705,0.66953 0.261,0.25313 0.454,0.50938 0.526,0.78946 0.071,0.27773 0.114,0.51171 0.114,0.69296 -1.097,0 -1.926,0.13633 -2.474,0.41524 -0.753,0.38398 -1.142,1.13437 -1.148,2.21601 -0.008,1.19844 0.295,2.02657 0.862,2.52032 0.342,0.29843 0.883,0.47656 1.658,0.47656 1.084,0 1.815,-0.45039 2.201,-1.33906 0.204,-0.46758 0.319,-1.37774 0.319,-2.71055 z m -1.418,1.59336 v 1.4211 c 0,0.92383 -0.369,1.38554 -1.102,1.38554 -0.319,0 -0.579,-0.10625 -0.772,-0.30976 -0.195,-0.20508 -0.295,-0.61094 -0.295,-1.21016 0,-0.60234 0.225,-0.99219 0.669,-1.1582 0.219,-0.08203 0.723,-0.12852 1.5,-0.12852 z m -7.64,6.7305 c 0,0.2574 0.095,0.4758 0.272,0.6547 0.176,0.1773 0.398,0.2722 0.652,0.2722 0.258,0 0.474,-0.0906 0.655,-0.2722 0.181,-0.1809 0.272,-0.3973 0.272,-0.6547 0,-0.2547 -0.095,-0.4762 -0.272,-0.6524 -0.179,-0.1769 -0.397,-0.2715 -0.655,-0.2715 -0.254,0 -0.472,0.0918 -0.652,0.2715 -0.179,0.1801 -0.272,0.3977 -0.272,0.6524 z m 2.12,-7.89417 c 0,-1.23008 -0.344,-2.19453 -1.026,-2.83867 -0.683,-0.644922 -1.527,-0.971094 -2.497,-0.971094 h -1.865 l -0.24,1.450394 h 1.578 c 0.86,0 1.51,0.18086 1.939,0.53476 0.427,0.35313 0.646,0.84844 0.646,1.47344 v 4.49727 h 1.465 z m -5.309,-0.2543 h -1.354 v 8.99337 h 1.354 z m -3.734,0.2543 c 0,-1.23008 -0.344,-2.19453 -1.027,-2.83867 -0.682,-0.644922 -1.526,-0.971094 -2.496,-0.971094 h -1.865 l -0.24,1.450394 h 1.578 c 0.86,0 1.51,0.18086 1.939,0.53476 0.427,0.35313 0.646,0.84844 0.646,1.47344 v 4.49727 h 1.465 z m -5.206,2.02617 c 0,-0.70195 -0.206,-1.27382 -0.608,-1.67539 -0.402,-0.39961 -0.886,-0.60508 -1.436,-0.60508 h -7.414 c -0.559,0 -1.052,0.20235 -1.459,0.59961 -0.406,0.39493 -0.568,0.95821 -0.568,1.68086 v 2.11993 h 1.404 V 6.16602 c 0,-0.4211 0.072,-0.71446 0.207,-0.85391 0.137,-0.14102 0.421,-0.21641 0.845,-0.21641 h 6.555 c 0.459,0 0.772,0.10899 0.927,0.32149 0.073,0.10039 0.111,0.3539 0.111,0.74883 v 1.91211 h 1.436 z m -8.198,4.45 c 0,0.2543 0.094,0.4754 0.272,0.652 0.179,0.1777 0.397,0.2718 0.651,0.2718 0.258,0 0.476,-0.0941 0.656,-0.2718 0.177,-0.1766 0.271,-0.3977 0.271,-0.652 0,-0.2543 -0.09,-0.47382 -0.271,-0.65507 -0.182,-0.18125 -0.398,-0.27188 -0.656,-0.27188 -0.254,0 -0.47,0.09063 -0.651,0.27188 -0.182,0.18125 -0.272,0.40077 -0.272,0.65507 z m 2.599,0.0465 c 0,0.2547 0.093,0.4766 0.272,0.6551 0.178,0.1785 0.397,0.2718 0.652,0.2718 0.258,0 0.477,-0.0933 0.655,-0.2718 0.178,-0.1785 0.272,-0.4004 0.272,-0.6551 0,-0.2543 -0.095,-0.4754 -0.272,-0.65157 -0.18,-0.17774 -0.397,-0.27227 -0.655,-0.27227 -0.255,0 -0.473,0.09453 -0.652,0.27227 -0.178,0.17617 -0.272,0.39727 -0.272,0.65157 z m -9.362,-6.77697 h -8.689 c -0.208,0 -0.449,0.03438 -0.701,0.09649 -0.252,0.06211 -0.486,0.21055 -0.687,0.44453 -0.295,-0.32773 -0.694,-0.54102 -1.179,-0.54102 h -1.102 -1.654 -0.447 c 0,-0.92382 -0.353,-1.76835 -1.053,-2.52031 -0.284,-0.305467 -0.666,-0.558982 -1.131,-0.748436 -0.467,-0.190234 -0.951,-0.286718 -1.436,-0.286718 h -1.818 l -0.19,1.403514 h 1.768 c 1.033,0 1.764,0.44492 2.185,1.33906 0.108,0.23125 0.161,0.50586 0.161,0.81289 -1.138,0 -1.98,0.14844 -2.521,0.44727 -0.721,0.39961 -1.084,1.13125 -1.084,2.18398 0,1.16954 0.274,2.01641 0.83,2.52032 0.343,0.31133 0.912,0.45859 1.675,0.46172 1.242,0.00507 2.053,-0.54766 2.424,-1.675 0.149,-0.45352 0.21,-1.29532 0.19,-2.52032 h 0.447 1.654 0.544 c 0.404,0 0.675,0.06407 0.798,0.225 0.159,0.2086 0.205,0.58438 0.205,1.1168 v 6.2336 h 1.421 V 6.16602 c 0,-0.67657 0.215,-1.07032 0.655,-1.07032 h 0.494 1.779 1.389 c -0.307,0.59649 -0.426,1.15743 -0.415,1.67539 0.016,0.73125 0.214,1.39141 0.67,1.92969 0.305,0.36016 0.725,0.57031 1.204,0.6461 0.483,0.07617 1.015,0.02578 1.579,-0.15196 0.568,-0.1789 1.076,-0.49414 1.523,-0.94179 l -0.684,-1.08125 c -0.725,0.56093 -1.333,0.84492 -1.827,0.84492 -0.494,0 -0.866,-0.25703 -1.076,-0.76641 -0.155,-0.37617 -0.12,-0.83906 0.088,-1.36523 0.207,-0.52657 0.529,-0.78946 0.965,-0.78946 h 2.806 z M 177.241,5.0957 v 1.32461 c 0,0.28633 -0.032,0.51875 -0.088,0.69258 -0.057,0.17383 -0.193,0.35117 -0.407,0.52656 -0.213,0.175 -0.453,0.26289 -0.725,0.26289 -0.272,0 -0.519,-0.10664 -0.742,-0.31836 -0.221,-0.20859 -0.302,-0.60039 -0.287,-1.16367 0.014,-0.53008 0.138,-0.88593 0.406,-1.05273 0.27,-0.16836 0.886,-0.26016 1.843,-0.27188 z m -5.389,0.71914 c 0,-0.55742 -0.227,-1.06601 -0.678,-1.49961 C 170.723,3.88125 170.161,3.64922 169.493,3.64531 168.632,3.64102 168,3.86719 167.61,4.3 c -0.392,0.43516 -0.591,1.06758 -0.591,1.89805 v 1.73633 h -0.222 c -0.518,0 -0.884,-0.08633 -1.085,-0.3504 -0.2,-0.26445 -0.286,-0.62304 -0.286,-1.06718 V 0.122266 h -1.357 V 6.34141 c 0,0.87109 0.246,1.58164 0.734,2.12812 0.488,0.54649 1.163,0.82149 2.026,0.82149 h 2.407 c 1.745,0 2.616,-0.85977 2.616,-2.5668 z m -1.278,0.14336 v 0.5586 c 0,0.92383 -0.447,1.40312 -1.338,1.40312 H 168.39 V 5.9582 c 0,-0.36757 0.175,-0.63632 0.518,-0.78945 0.346,-0.15352 0.713,-0.16094 1.103,-0.02344 0.388,0.1375 0.563,0.40938 0.563,0.81289 z m -9.265,-1.37109 c -0.042,-0.60508 -0.418,-0.90938 -1.035,-0.90938 -0.722,0 -1.09,0.46329 -1.084,1.38868 0.002,0.48632 0.078,0.9289 0.222,1.30703 0.256,0.6707 0.778,1.03203 1.532,1.08437 v -0.5582 c -0.371,-0.03242 -0.661,-0.19063 -0.862,-0.4707 -0.202,-0.27813 -0.302,-0.64024 -0.302,-1.07578 0.275,0.24257 0.604,0.30078 0.98,0.17539 0.376,-0.12579 0.584,-0.44688 0.549,-0.94141 z m -10.206,5.73909 c 0,0.2574 0.093,0.4746 0.272,0.6551 0.177,0.1785 0.397,0.2718 0.652,0.2718 0.254,0 0.473,-0.0906 0.654,-0.2718 0.182,-0.1813 0.273,-0.3977 0.273,-0.652 0,-0.2574 -0.091,-0.47383 -0.273,-0.65508 -0.181,-0.18125 -0.4,-0.27149 -0.654,-0.27149 -0.255,0 -0.475,0.09297 -0.652,0.27149 -0.179,0.18047 -0.272,0.39768 -0.272,0.65198 z m 2.599,0.05 c 0,0.2539 0.091,0.4734 0.272,0.6547 0.178,0.1781 0.397,0.2687 0.652,0.2687 0.257,0 0.476,-0.0914 0.655,-0.2687 0.18,-0.1786 0.272,-0.4008 0.272,-0.6547 0,-0.2543 -0.093,-0.47542 -0.272,-0.6555 -0.18,-0.17929 -0.398,-0.26836 -0.655,-0.26836 -0.255,0 -0.475,0.08985 -0.652,0.26836 -0.179,0.18047 -0.272,0.4012 -0.272,0.6555 z m 2.058,-4.418 c 0,-0.73867 -0.167,-1.31406 -0.479,-1.68984 -0.331,-0.39883 -0.854,-0.59063 -1.533,-0.59063 h -4.549 C 148.412,3.65703 147.889,3.74219 147.605,3.9 147.334,4.05078 147.071,4.25234 147,4.58711 l -0.161,0.74844 C 145.52,4.56953 144.634,4.10156 144.176,3.92617 143.72,3.75195 143.224,3.67773 142.693,3.67773 h -1.388 -0.702 -1.723 c -0.349,0 -0.759,0.10508 -1.227,0.28672 -0.372,-0.19023 -1.119,-0.28672 -2.231,-0.28672 h -0.927 c -0.168,-0.00351 -1.775,-0.00351 -1.92,0 h -0.279 v 0.01172 c -0.206,0.01368 -0.383,0.03594 -0.529,0.06719 -0.306,0.08477 -0.546,0.23984 -0.716,0.46211 -0.137,-0.21094 -0.333,-0.35664 -0.581,-0.43867 -0.252,-0.07891 -0.497,-0.11406 -0.743,-0.10235 h -2.345 -0.684 -1.74 c -0.351,0.01172 -0.76,0.10508 -1.228,0.28672 -0.371,-0.19023 -1.117,-0.28672 -2.231,-0.28672 -0.979,0 -2.658,-0.0164 -3.383,0.63477 -0.318,0.28633 -0.479,0.82695 -0.479,1.5168 v 6.6516 h 1.404 V 6.4375 c -0.033,-0.53203 0.032,-0.87383 0.193,-1.02031 0.21,-0.19297 0.675,-0.29844 1.385,-0.32149 h 1.278 c -0.511,0.57578 -0.766,1.19571 -0.766,1.85938 0,0.66406 0.225,1.21914 0.67,1.6668 0.447,0.44687 1.063,0.66914 1.85,0.66914 0.746,-0.03204 1.325,-0.2836 1.74,-0.75704 0.412,-0.47343 0.62,-1.02343 0.62,-1.65156 0.044,-0.61679 -0.158,-1.21094 -0.606,-1.78672 h 1.293 0.684 1.9 c 0.468,0 0.755,0.08164 0.86,0.23985 0.105,0.16054 0.163,0.31836 0.167,0.47929 0.005,0.15782 0.009,0.275 0.009,0.35118 v 1.91211 h 1.403 V 6.16602 c 0,-0.42696 0.091,-0.71133 0.272,-0.85391 0.177,-0.13984 1.971,-0.21406 2.478,-0.21641 h 0.024 1.325 c -0.512,0.57578 -0.766,1.19571 -0.766,1.85938 0,0.66406 0.225,1.2207 0.669,1.6668 0.446,0.44687 1.065,0.68476 1.851,0.66914 0.745,-0.01446 1.326,-0.2836 1.739,-0.75704 0.413,-0.47226 0.599,-1.02421 0.621,-1.65156 0.02,-0.61797 -0.159,-1.21094 -0.606,-1.78672 h 1.275 0.702 1.579 c 0.458,0 0.974,0.1793 1.579,0.51172 l 2.727,1.49961 c -0.202,0.50899 -0.626,0.81289 -1.275,0.81289 h -3.333 l -0.193,1.3711 h 3.477 c 1.882,0 2.836,-0.96211 2.856,-2.88516 L 147.43,5.68633 c 0.166,-0.37617 0.597,-0.57539 1.292,-0.59922 V 5.0957 h 0.477 4.105 c 0.477,0 0.779,0.08125 0.901,0.2336 0.12,0.15117 0.152,0.43203 0.152,0.83672 v 1.91211 h 1.403 z m -20.689,6.093 c 0,0.2543 0.091,0.4722 0.269,0.6519 0.18,0.1813 0.401,0.2723 0.655,0.2723 0.254,0 0.475,-0.091 0.655,-0.2723 0.179,-0.1797 0.269,-0.3976 0.269,-0.6519 0,-0.2571 -0.09,-0.475 -0.269,-0.6551 -0.18,-0.1813 -0.401,-0.2715 -0.655,-0.2715 -0.254,0 -0.475,0.0902 -0.655,0.2715 -0.178,0.1801 -0.269,0.398 -0.269,0.6551 z m 2.693,-0.0176 c 0,0.2543 0.091,0.4746 0.272,0.6551 0.18,0.1804 0.4,0.2715 0.655,0.2715 0.254,0 0.473,-0.0918 0.652,-0.2715 0.179,-0.1813 0.272,-0.4008 0.272,-0.6551 0,-0.2543 -0.093,-0.4723 -0.272,-0.652 -0.18,-0.1796 -0.398,-0.2718 -0.652,-0.2718 -0.255,0 -0.474,0.0922 -0.655,0.2718 -0.18,0.1786 -0.272,0.3977 -0.272,0.652 z m 0.863,-5.34141 c 0.011,0.31836 -0.06,0.60234 -0.272,0.85351 -0.21,0.24766 -0.478,0.3793 -0.796,0.38321 -0.32,0.00351 -0.598,-0.10235 -0.83,-0.31914 -0.234,-0.21758 -0.348,-0.46836 -0.351,-0.74258 -0.007,-0.55196 0.392,-1.01133 1.211,-1.3711 0.692,0.33946 1.02,0.74141 1.038,1.1961 z M 127.239,1.00547 c 0,0.25156 0.09,0.46484 0.272,0.64609 0.181,0.18125 0.397,0.27188 0.654,0.27188 0.255,0 0.474,-0.09063 0.653,-0.27188 0.181,-0.18125 0.271,-0.39453 0.271,-0.64609 0,-0.248439 -0.09,-0.46797 -0.271,-0.651954 -0.179,-0.18711 -0.398,-0.2804691 -0.653,-0.2804691 -0.257,0 -0.473,0.0933591 -0.654,0.2804691 -0.182,0.183984 -0.272,0.403515 -0.272,0.651954 z m 2.663,-0.032423 c 0,0.251563 0.091,0.467973 0.272,0.646093 0.181,0.18164 0.398,0.27227 0.655,0.27227 0.254,0 0.471,-0.09063 0.652,-0.27227 0.181,-0.17812 0.272,-0.39453 0.272,-0.646093 0,-0.248438 -0.091,-0.467578 -0.272,-0.651953 -0.181,-0.18711 -0.398,-0.280469 -0.652,-0.280469 -0.257,0 -0.474,0.093359 -0.655,0.280469 -0.181,0.184375 -0.272,0.403515 -0.272,0.651953 z M 121.148,12.0512 c 0,0.2543 0.091,0.4711 0.27,0.6519 0.181,0.1813 0.4,0.2723 0.654,0.2723 0.255,0 0.474,-0.091 0.655,-0.2723 0.179,-0.1808 0.269,-0.3976 0.269,-0.6519 0,-0.2571 -0.09,-0.4735 -0.269,-0.6551 -0.181,-0.1813 -0.4,-0.2715 -0.655,-0.2715 -0.254,0 -0.473,0.0902 -0.654,0.2715 -0.179,0.1816 -0.27,0.398 -0.27,0.6551 z m 2.693,-0.0176 c 0,0.2543 0.091,0.4738 0.272,0.6551 0.182,0.1812 0.401,0.2715 0.655,0.2715 0.255,0 0.474,-0.0903 0.652,-0.2715 0.182,-0.1813 0.272,-0.4008 0.272,-0.6551 0,-0.2543 -0.09,-0.4734 -0.272,-0.652 -0.178,-0.1812 -0.397,-0.2718 -0.652,-0.2718 -0.254,0 -0.473,0.0906 -0.655,0.2718 -0.181,0.1786 -0.272,0.3977 -0.272,0.652 z m 0.863,-5.34141 c 0.032,0.31836 -0.059,0.60195 -0.272,0.85351 -0.211,0.24844 -0.477,0.37735 -0.795,0.38321 -0.322,0.00273 -0.597,-0.10235 -0.83,-0.31914 -0.235,-0.21914 -0.352,-0.46758 -0.352,-0.74258 -0.011,-0.55235 0.392,-1.01133 1.211,-1.3711 0.693,0.33946 1.038,0.73985 1.038,1.1961 z M 115.882,5.9582 c 0,-0.71132 -0.202,-1.27148 -0.608,-1.67539 -0.404,-0.40195 -0.881,-0.60508 -1.435,-0.60508 h -7.415 c -0.563,0 -1.049,0.2 -1.459,0.59961 -0.408,0.39766 -0.567,0.95821 -0.567,1.68086 v 2.11993 h 1.404 V 6.16602 c 0,-0.42618 0.069,-0.71172 0.207,-0.85391 0.139,-0.14375 0.421,-0.21641 0.845,-0.21641 h 6.555 c 0.459,0 0.769,0.10664 0.927,0.32149 0.075,0.10312 0.111,0.3539 0.111,0.74883 v 1.91211 h 1.435 z m -8.198,4.45 c 0,0.2543 0.092,0.4731 0.272,0.652 0.182,0.18 0.398,0.2718 0.652,0.2718 0.258,0 0.474,-0.0918 0.655,-0.2718 0.18,-0.1789 0.272,-0.3977 0.272,-0.652 0,-0.2543 -0.09,-0.47382 -0.272,-0.65507 -0.181,-0.18125 -0.397,-0.27188 -0.655,-0.27188 -0.254,0 -0.47,0.09063 -0.652,0.27188 -0.181,0.18125 -0.272,0.40077 -0.272,0.65507 z m 2.599,0.0465 c 0,0.2547 0.092,0.4742 0.272,0.6551 0.181,0.1808 0.398,0.2718 0.652,0.2718 0.258,0 0.474,-0.091 0.656,-0.2718 0.18,-0.1809 0.271,-0.4004 0.271,-0.6551 0,-0.2543 -0.091,-0.47306 -0.271,-0.65157 -0.182,-0.18047 -0.398,-0.27227 -0.656,-0.27227 -0.254,0 -0.47,0.0918 -0.652,0.27227 -0.18,0.17851 -0.272,0.39727 -0.272,0.65157 z m -9.232,-6.95236 c 0,-0.91523 -0.36,-1.70781 -1.076,-2.37734 C 99.2559,0.455859 98.4371,0.122266 97.5105,0.122266 H 95.7094 L 95.502,1.52578 h 1.7863 c 0.7015,0 1.2687,0.22227 1.7047,0.66953 0.2777,0.24258 0.4527,0.50586 0.5261,0.78946 0.0758,0.28046 0.1141,0.51171 0.1141,0.69296 -1.0965,0 -1.9207,0.1375 -2.4734,0.41524 -0.7543,0.3918 -1.1371,1.13125 -1.1489,2.21601 -0.0089,1.20157 0.2778,2.04063 0.8621,2.52032 0.3305,0.31875 0.8833,0.47656 1.6583,0.47656 1.0843,0 1.8187,-0.44453 2.2007,-1.33906 0.214,-0.46758 0.319,-1.3711 0.319,-2.71055 z M 99.6332,5.0957 v 1.4211 c 0,0.92383 -0.3684,1.38554 -1.1019,1.38554 -0.3192,0 -0.5766,-0.10234 -0.7723,-0.30976 -0.1988,-0.20781 -0.2949,-0.61094 -0.2949,-1.21016 0,-0.60234 0.2218,-0.98867 0.6691,-1.1582 0.2227,-0.08477 0.7227,-0.12852 1.5,-0.12852 z M 93.125,6.02266 C 93.1691,5.40547 92.9527,4.86172 92.4789,4.38789 92.0055,3.91484 91.4605,3.67773 90.8445,3.67773 h -4.5074 c -0.5906,0 -1.2195,0.13047 -1.5641,0.66954 0,-1.48829 -0.3636,-2.56407 -1.0847,-3.22774 C 82.966,0.454297 82.0762,0.122266 81.0246,0.122266 h -1.8332 c -0.9984,0 -1.8332,0.311328 -2.5027,0.932814 -0.6684,0.61992 -1.0055,1.52344 -1.0055,2.70156 v 2.93555 h 1.3566 V 3.58086 c 0,-0.57148 0.2043,-1.05977 0.6137,-1.45898 0.4082,-0.39766 1.0117,-0.5961 1.8098,-0.5961 h 1.468 c 0.6902,0 1.2636,0.18516 1.7218,0.5582 0.4555,0.3711 0.6844,0.87188 0.6844,1.49688 v 4.49727 h 1.4211 V 6.06914 c 0,-0.63633 0.5258,-0.96172 1.5785,-0.97344 h 4.525 c 0.5203,0 0.7809,0.35078 0.7809,1.05235 H 90.1605 C 89.7246,6.16016 89.3824,6.2125 89.1402,6.30898 88.4473,6.575 88.1023,7.19805 88.1023,8.17422 c 0,0.68125 0.2223,1.22851 0.6696,1.64336 0.4472,0.41522 1.0054,0.62852 1.675,0.63712 0.6695,0.0117 1.266,-0.2133 1.7867,-0.66954 0.2859,-0.2543 0.5086,-0.56094 0.6695,-0.91797 0.1578,-0.35352 0.2336,-0.76016 0.2219,-1.21914 z m -1.482,1.44961 c 0,0.50039 -0.1348,0.88046 -0.4067,1.14062 -0.2718,0.26055 -0.5758,0.3918 -0.9175,0.3918 C 90.0758,9.02539 89.8539,8.95508 89.6574,8.79727 89.4617,8.63633 89.368,8.41992 89.377,8.14219 89.3887,7.86758 89.5172,7.66563 89.7598,7.53711 89.8566,7.49297 90.1813,7.47227 90.7332,7.47227 Z M 89.377,12.209 c 0,0.2543 0.0906,0.4738 0.2718,0.6551 0.1813,0.1812 0.3977,0.2718 0.6547,0.2718 0.2547,0 0.4738,-0.0906 0.652,-0.2718 0.1816,-0.1813 0.2722,-0.4008 0.2722,-0.6551 0,-0.2543 -0.0906,-0.4735 -0.2722,-0.652 -0.1782,-0.1808 -0.3973,-0.2718 -0.652,-0.2718 -0.257,0 -0.4734,0.091 -0.6547,0.2718 -0.1812,0.1785 -0.2718,0.3977 -0.2718,0.652 z M 78.873,8.36758 c 0,0.2543 0.0918,0.47031 0.2715,0.65156 0.1789,0.18008 0.3981,0.27188 0.652,0.27188 0.2574,0 0.4742,-0.09024 0.6555,-0.27188 0.1808,-0.18086 0.2714,-0.39726 0.2714,-0.65156 0,-0.25742 -0.0906,-0.47383 -0.2714,-0.65547 -0.1813,-0.18086 -0.3981,-0.27148 -0.6555,-0.27148 -0.2539,0 -0.4731,0.09179 -0.652,0.27148 -0.1797,0.18203 -0.2715,0.39805 -0.2715,0.65547 z m -4.4527,5.08712 h -3.5234 c -0.627,0 -1.0641,-0.0645 -1.3067,-0.225 -0.1812,-0.2106 -0.3363,-0.468 -0.4617,-0.7664 l -1.2926,0.4797 c 0.3715,0.8187 0.7735,1.3601 1.2102,1.6109 0.2844,0.1633 0.7613,0.2586 1.4211,0.2723 0.8391,0.0172 1.6109,0.0144 2.3129,0.0144 h 1.6402 z M 72.4906,3.67773 h -1.3539 v 8.99337 h 1.3539 z M 68.2805,3.50234 C 68.2805,2.58906 67.9211,1.79336 67.2047,1.125 66.4867,0.455469 65.6656,0.122266 64.7398,0.122266 H 62.9387 L 62.7316,1.52578 h 1.786 c 0.7015,0 1.2566,0.23594 1.7047,0.66953 0.2644,0.25508 0.4519,0.50664 0.5261,0.78946 0.0735,0.28007 0.1145,0.51171 0.1145,0.69296 -1.0965,0 -1.9238,0.1336 -2.4738,0.41524 -0.7563,0.38711 -1.1399,1.13164 -1.1489,2.21601 -0.0105,1.20079 0.2934,2.02383 0.8621,2.52032 0.3457,0.30078 0.8832,0.47656 1.6582,0.47656 1.0844,0 1.8118,-0.44805 2.2012,-1.33906 0.2055,-0.47071 0.3188,-1.37227 0.3188,-2.71055 z M 66.8629,5.0957 v 1.4211 c 0,0.92383 -0.3688,1.38554 -1.1024,1.38554 -0.3187,0 -0.5761,-0.10351 -0.7718,-0.30976 C 64.791,7.38477 64.693,6.98164 64.693,6.38242 c 0,-0.60234 0.223,-0.98906 0.6695,-1.1582 C 65.5844,5.14023 66.0848,5.0957 66.8629,5.0957 Z M 61.357,3.93203 C 61.357,2.6918 61.0152,1.73984 60.3309,1.09336 59.6465,0.446484 58.8082,0.122266 57.834,0.122266 H 56.259 L 56.0188,1.57266 h 1.289 c 0.8594,0 1.5078,0.17851 1.9387,0.53476 0.4293,0.35508 0.6457,0.84844 0.6457,1.47344 v 4.49727 h 1.4648 v -4.1461" /><path
       inkscape:connector-curvature="0"
       id="path16"
       style="fill:#ffffff;fill-opacity:1;fill-rule:evenodd;stroke:none;stroke-width:0.1"
       d="m 51.5746,26.5563 c 0,0.1378 -0.0269,0.2644 -0.0805,0.3867 -0.0496,0.1261 -0.1183,0.2297 -0.2027,0.3215 -0.2219,0.2261 -0.4516,0.4554 -0.6887,0.689 -0.2336,0.2371 -0.4632,0.4629 -0.689,0.6774 -0.5176,-0.3645 -1.4239,-1.4454 -1.4239,-2.0746 0,-0.2985 0.1497,-0.5969 0.4481,-0.8954 v 0.0118 c 0.241,-0.2262 0.5934,-0.3368 1.0562,-0.3368 0.6446,0 1.5805,0.4664 1.5805,1.2204 z M 229.741,25.7375 c 0,-0.9566 -0.302,-1.6801 -0.907,-2.166 -0.612,-0.4938 -1.305,-0.7387 -2.074,-0.7387 h -6.02 l -0.417,2.7785 h 6.28 c 0.543,0 0.819,0.1032 0.819,0.3137 0,0.0805 -0.072,0.2066 -0.214,0.3711 v -0.0113 c -0.203,0.2144 -0.406,0.4363 -0.612,0.6582 -0.203,0.2258 -0.414,0.4441 -0.62,0.6621 -0.15,0.1644 -0.299,0.3254 -0.448,0.4824 -0.149,0.1566 -0.302,0.3137 -0.452,0.4703 v -0.0113 c -0.176,0.1914 -0.371,0.398 -0.581,0.6199 -0.211,0.218 -0.421,0.4402 -0.64,0.666 -0.217,0.2219 -0.428,0.4438 -0.639,0.6621 -0.21,0.2145 -0.398,0.4133 -0.57,0.593 l 1.761,1.7566 4.393,-4.6418 c 0.306,-0.3293 0.539,-0.6964 0.7,-1.1101 0.161,-0.4094 0.241,-0.8609 0.241,-1.3547 z m -11.132,-2.9047 h -2.296 v 12.9965 h 2.296 z m -7.206,9.4758 c 0,-0.4133 -0.146,-0.777 -0.437,-1.091 -0.294,-0.3098 -0.65,-0.4629 -1.067,-0.4629 -1.064,0 -1.596,0.5168 -1.596,1.5539 0,0.8457 0.505,1.2703 1.515,1.2703 1.057,0 1.585,-0.4246 1.585,-1.2703 z m 1.791,-5.959 c 0,-0.4629 -0.073,-0.8953 -0.219,-1.3008 -0.145,-0.4058 -0.336,-0.7656 -0.577,-1.0793 -0.284,-0.3445 -0.612,-0.6199 -0.987,-0.8265 -0.372,-0.2067 -0.762,-0.3102 -1.164,-0.3102 h -3.003 c -0.873,0 -1.9,0.186 -2.542,0.9453 -0.314,-0.4133 -0.647,-0.7082 -0.999,-0.8879 -0.352,-0.1797 -0.739,-0.2675 -1.167,-0.2675 -0.402,0 -0.831,0.107 -1.279,0.325 -0.447,0.2183 -0.887,0.5168 -1.32,0.8953 -0.39,-0.4016 -0.815,-0.7078 -1.274,-0.9106 -0.459,-0.2066 -0.957,-0.3097 -1.485,-0.3097 -0.463,0 -0.911,0.1105 -1.336,0.3367 -0.425,0.2219 -0.819,0.5394 -1.175,0.9414 -0.493,-0.5168 -1.174,-0.8383 -2.043,-0.9645 -0.448,-0.0679 -1.338,-0.0988 -2.671,-0.0996 v -0.0039 c -0.792,0 -1.493,0.1149 -2.109,0.3485 -0.612,0.2332 -1.114,0.5468 -1.5,0.9449 -0.494,-0.861 -1.378,-1.2934 -2.648,-1.2934 h -5.064 c -2.314,0 -4.431,0.2973 -4.431,3.3219 v 9.3758 h 2.319 v -8.5379 c 0,-0.6582 0.115,-1.0563 0.348,-1.1977 0.066,-0.0457 0.245,-0.084 0.54,-0.1148 0.233,-0.0211 0.538,-0.0446 0.912,-0.0688 h 5.387 c 0.359,0 0.539,0.1762 0.539,0.5282 0,0.08 -0.045,0.1718 -0.133,0.2679 v -0.0117 c -0.823,0.8688 -1.642,1.7336 -2.461,2.6023 -0.819,0.8649 -1.642,1.734 -2.472,2.5989 l -0.471,2.7015 7.42,2.6598 0.349,-2.6789 -4.585,-1.7184 c 0.165,-0.1836 0.321,-0.3636 0.471,-0.532 0.149,-0.1684 0.31,-0.3402 0.482,-0.5203 0.199,-0.2258 0.402,-0.4441 0.605,-0.6621 0.202,-0.218 0.405,-0.436 0.615,-0.6621 0.211,-0.2219 0.425,-0.459 0.652,-0.7039 0.225,-0.2489 0.451,-0.4938 0.677,-0.7426 0.229,-0.2449 0.451,-0.4899 0.673,-0.7348 0.222,-0.241 0.433,-0.4746 0.636,-0.7004 0.252,-0.2832 0.489,-0.5355 0.715,-0.7539 0.226,-0.2218 0.413,-0.3902 0.57,-0.5129 l -0.007,0.0231 c 0.214,-0.1262 0.489,-0.2297 0.822,-0.3063 0.334,-0.08 0.716,-0.1261 1.149,-0.1414 v -0.0078 h 1.752 c 0.666,0 1.11,0.0766 1.336,0.2258 0.291,0.1723 0.436,0.4977 0.436,0.9762 v 2.8586 h 2.277 v -3.2414 c 0,-0.1266 0.035,-0.2602 0.111,-0.3981 0.073,-0.1379 0.173,-0.2641 0.291,-0.375 0.249,-0.2183 0.574,-0.3254 0.976,-0.3254 0.712,0 1.064,0.2449 1.064,0.7387 v 3.6012 h 2.334 v -3.2184 c 0,-0.2602 0.142,-0.5246 0.425,-0.7848 0.226,-0.2257 0.559,-0.3367 0.999,-0.3367 0.692,0 1.041,0.2449 1.041,0.7387 v 3.6012 h 2.334 v -3.3754 c 0,-0.1953 0.18,-0.3789 0.536,-0.5512 v 0.0117 c 0.091,-0.0359 0.498,-0.0824 1.227,-0.1379 2.054,0.0012 3.154,0.0278 3.301,0.0766 0.306,0.1148 0.459,0.5512 0.459,1.3125 0,0.084 0,0.1758 0,0.2793 0,0.1074 -0.008,0.2297 -0.023,0.3715 v 0.3023 c 0,0.0227 0,0.0457 0,0.061 0,0.0195 0,0.0382 0,0.0535 0,0.1187 0,0.2605 -0.004,0.425 -0.004,0.1644 -0.008,0.3254 -0.008,0.4859 0,0.1606 0,0.3063 0,0.4324 0,0.1262 0,0.2145 0,0.2606 h 2.377 z m -14.382,7.4055 c -0.218,0 -0.41,0.0304 -0.578,0.0918 -0.168,0.0574 -0.325,0.1418 -0.467,0.2449 -0.329,0.2832 -0.494,0.6086 -0.494,0.9758 0,0.823 0.479,1.2324 1.436,1.2324 0.195,0 0.371,-0.0266 0.528,-0.0766 0.157,-0.0535 0.298,-0.1226 0.425,-0.2027 0.336,-0.2336 0.505,-0.532 0.505,-0.8957 0,-0.1797 -0.035,-0.3559 -0.1,-0.5242 -0.069,-0.1684 -0.153,-0.3137 -0.26,-0.4403 -0.127,-0.13 -0.275,-0.2253 -0.448,-0.2984 -0.172,-0.0726 -0.355,-0.107 -0.547,-0.107 z m 3.272,-1.4352 c 0,-0.3676 -0.138,-0.6773 -0.413,-0.9297 -0.28,-0.2527 -0.601,-0.3828 -0.965,-0.3828 -0.21,0 -0.405,0.0344 -0.589,0.0953 -0.184,0.0653 -0.344,0.1532 -0.482,0.2719 -0.138,0.1149 -0.249,0.2527 -0.325,0.4133 -0.081,0.1609 -0.119,0.3367 -0.119,0.532 0,0.8074 0.459,1.2133 1.381,1.2133 1.007,0 1.512,-0.4059 1.512,-1.2133 z m -3.796,0 c 0,-0.3597 -0.142,-0.6695 -0.429,-0.9297 -0.142,-0.1265 -0.287,-0.2222 -0.44,-0.2875 -0.153,-0.0609 -0.329,-0.0953 -0.521,-0.0953 -0.398,0 -0.738,0.111 -1.021,0.325 -0.33,0.2567 -0.494,0.5856 -0.494,0.9875 0,0.8074 0.467,1.2133 1.401,1.2133 1.002,0 1.504,-0.4059 1.504,-1.2133 z m -12.381,5.484 -7.064,-2.5336 -0.157,0.9875 7.175,2.5336 z M 168.766,26.6254 c 0,0.1953 -0.076,0.375 -0.225,0.5473 -0.203,0.2031 -0.395,0.4019 -0.578,0.6007 -0.184,0.1993 -0.367,0.3942 -0.555,0.5895 v 0.0113 c -0.057,0.0574 -0.099,0.1035 -0.122,0.1266 -0.023,0.0265 -0.061,0.0726 -0.111,0.1301 -0.987,-0.9645 -1.482,-1.6536 -1.482,-2.0746 0,-0.1415 0.043,-0.2868 0.123,-0.436 0.084,-0.1492 0.199,-0.2945 0.348,-0.4363 0.307,-0.2488 0.701,-0.3711 1.179,-0.3711 0.214,0 0.41,0.0305 0.582,0.0879 0.172,0.0613 0.31,0.1492 0.413,0.2601 0.287,0.3063 0.428,0.6278 0.428,0.9645 z m 2.323,-0.1457 c 0,-0.5508 -0.107,-1.0598 -0.317,-1.5266 -0.214,-0.4668 -0.501,-0.8687 -0.861,-1.2054 -0.402,-0.3676 -0.831,-0.6469 -1.29,-0.8344 -0.455,-0.1914 -0.937,-0.2871 -1.442,-0.2871 -1.065,0 -1.96,0.3941 -2.695,1.1863 -0.692,0.7848 -1.041,1.7566 -1.041,2.9121 0,0.5707 0.165,1.175 0.494,1.818 0.329,0.6429 0.796,1.2898 1.401,1.948 -0.046,0.0535 -0.084,0.0996 -0.123,0.1418 -0.038,0.0418 -0.076,0.0766 -0.111,0.1071 -0.023,0.0191 -0.053,0.0496 -0.084,0.0878 -0.034,0.0383 -0.069,0.0731 -0.103,0.1071 -0.035,0.0347 -0.062,0.0652 -0.088,0.0961 -0.027,0.0304 -0.042,0.0457 -0.05,0.0535 l 1.749,1.7601 3.643,-3.7312 c 0.613,-0.6582 0.918,-1.5348 0.918,-2.6332 z m -14.641,0.5207 c 0,0.6586 -0.153,1.0945 -0.459,1.3125 -0.111,0.1113 -0.272,0.1684 -0.483,0.1684 -0.455,0 -0.937,-0.245 -1.446,-0.7344 -0.513,-0.4899 -1.037,-1.202 -1.573,-2.1356 h 3.123 c 0.559,0 0.838,0.4629 0.838,1.3891 z m 2.319,-0.0231 c 0,-0.1335 -0.008,-0.2793 -0.023,-0.4437 -0.015,-0.1609 -0.035,-0.3215 -0.053,-0.4824 -0.023,-0.1606 -0.05,-0.3172 -0.081,-0.4703 -0.031,-0.1532 -0.061,-0.2911 -0.088,-0.4098 -0.145,-0.4746 -0.31,-0.8801 -0.505,-1.2207 -0.195,-0.3406 -0.417,-0.5856 -0.662,-0.7348 -0.463,-0.2562 -1.164,-0.3828 -2.097,-0.3828 h -4.795 c -0.593,0 -1.118,0.1301 -1.581,0.3867 -0.467,0.2602 -0.846,0.616 -1.144,1.0637 -0.773,-0.9684 -1.608,-1.4504 -2.495,-1.4504 h -2.454 -0.061 -0.769 c -0.995,0 -1.81,0.2414 -2.449,0.727 -0.318,-0.2219 -0.628,-0.4016 -0.942,-0.5317 -0.309,-0.1301 -0.597,-0.1953 -0.857,-0.1953 h -2.548 -0.031 -0.031 -0.03 -0.682 v 0.0086 c -0.333,0.0078 -0.632,0.0211 -0.899,0.0414 -0.455,0.0344 -0.811,0.0879 -1.064,0.1645 -0.253,0.0804 -0.57,0.2218 -0.949,0.4246 -0.375,0.2027 -0.75,0.4441 -1.125,0.7273 -0.387,-0.3062 -0.781,-0.5629 -1.179,-0.773 -0.394,-0.2067 -0.769,-0.3563 -1.121,-0.4481 -0.142,-0.0226 -0.444,-0.0457 -0.907,-0.0687 l -1.454,-0.0606 c -0.887,0.0102 -1.7,-0.0855 -2.43,0.3438 -0.162,0.0949 -0.329,0.2183 -0.502,0.3672 -0.317,-0.245 -0.623,-0.4285 -0.922,-0.5469 -0.303,-0.1188 -0.585,-0.1801 -0.853,-0.1801 h -3.904 -0.391 -1.335 c 0.012,-0.084 0.023,-0.1644 0.027,-0.2484 0.008,-0.0805 0.012,-0.1571 0.019,-0.2223 0,-1.3125 -0.432,-2.3687 -1.301,-3.1687 -0.876,-0.7579 -1.89,-1.1368 -3.05,-1.1368 h -2.905 c -1.527,0 -2.759,0.5899 -3.7,1.7719 -0.808,1.0563 -1.214,2.4266 -1.214,4.118 v 3.8004 h 2.365 v -4.5352 c 0,-0.3597 0.073,-0.6887 0.222,-0.9836 0.15,-0.2945 0.36,-0.5547 0.628,-0.7883 v 0.0114 c 0.249,-0.1949 0.551,-0.3446 0.911,-0.4551 0.364,-0.1074 0.758,-0.1609 1.182,-0.1609 h 2.45 c 0.642,0 1.136,0.1457 1.477,0.4363 0.195,0.1723 0.344,0.3562 0.455,0.5512 0.107,0.1953 0.161,0.4093 0.161,0.639 0,0.134 -0.497,0.2528 -1.493,0.3481 h 0.012 c -0.119,0.0078 -0.39,0.0152 -0.819,0.0195 -0.425,0.0035 -0.957,0.0035 -1.592,0.0035 l -0.199,2.7785 h 7.699 0.391 3.318 c 0.436,0 0.735,0.0766 0.903,0.2297 0.169,0.1531 0.253,0.4168 0.253,0.7918 v 3.0391 h 2.365 v -3.0391 c 0,-0.4437 0.073,-0.6965 0.214,-0.7652 0.111,-0.0953 0.295,-0.1645 0.555,-0.1988 0.22,-0.0333 0.496,-0.0516 0.831,-0.0563 1.294,0.0117 2.2,0.1223 2.713,0.3355 -0.157,0.1567 -0.314,0.3137 -0.471,0.4747 -0.157,0.1605 -0.321,0.3214 -0.494,0.4859 -0.11,0.1109 -0.229,0.2293 -0.355,0.3523 -0.13,0.1223 -0.257,0.245 -0.383,0.3711 -0.127,0.1223 -0.253,0.241 -0.383,0.3637 -0.126,0.1184 -0.241,0.2293 -0.344,0.3328 0.103,0.1875 0.222,0.402 0.355,0.6504 0.138,0.2449 0.272,0.5016 0.41,0.7691 0.138,0.2719 0.279,0.536 0.417,0.7961 0.138,0.2602 0.261,0.5016 0.364,0.7157 h 4.148 c 1.359,0 2.254,-0.5395 2.679,-1.6227 0.127,-0.3406 0.191,-0.6504 0.191,-0.9262 0,-0.4629 -0.061,-0.8761 -0.18,-1.2359 -0.118,-0.3637 -0.29,-0.6695 -0.516,-0.9223 -0.104,-0.1148 -0.23,-0.2336 -0.375,-0.3597 -0.145,-0.1266 -0.314,-0.2641 -0.509,-0.4133 0.552,-0.1016 1.259,-0.1582 2.123,-0.1672 h 0.027 0.018 c 0.777,0.0035 1.394,0.0145 1.854,0.0332 0.563,0.0231 0.907,0.05 1.026,0.0883 0.306,0.0992 0.459,0.5203 0.459,1.2664 0,0.084 0,0.1801 0,0.291 0,0.1149 -0.008,0.241 -0.023,0.3828 v 0.3137 c 0,0.023 0,0.0383 0,0.0496 0,0.0117 0,0.027 0,0.0422 0,0.1109 0,0.2488 0,0.4133 0,0.1644 0,0.3254 0,0.4859 0,0.1606 0,0.3063 0,0.4324 0,0.1262 0,0.2145 0,0.2606 h 2.388 v -3.0391 c 0,-0.4055 0.172,-0.6734 0.517,-0.807 0.103,-0.0535 0.291,-0.0961 0.559,-0.1301 0.271,-0.0348 0.62,-0.0613 1.055,-0.0844 h 2.228 c 0.746,0 1.121,0.3293 1.121,0.9875 v 3.0731 h 2.319 v -2.8821 c 0,-0.75 0.498,-1.1402 1.489,-1.1785 1.512,3.7809 3.283,5.6715 5.315,5.6715 0.238,0 0.494,-0.0457 0.766,-0.1418 0.272,-0.0918 0.539,-0.2101 0.8,-0.3519 0.635,-0.3672 1.117,-0.8688 1.446,-1.5078 0.329,-0.6352 0.494,-1.4043 0.494,-2.304 z m -19.808,5.3313 c 0,-0.2184 -0.038,-0.4172 -0.119,-0.5934 -0.076,-0.1761 -0.191,-0.3406 -0.34,-0.4976 -0.291,-0.3098 -0.643,-0.4629 -1.053,-0.4629 -1.076,0 -1.611,0.5168 -1.611,1.5539 0,0.8457 0.509,1.2703 1.523,1.2703 1.068,0 1.6,-0.4246 1.6,-1.2703 z m -8.664,-5.0594 c 0.501,0.2641 0.887,0.4899 1.163,0.6852 0.272,0.1949 0.417,0.3445 0.429,0.4476 -0.012,-0.0382 -0.081,-0.0191 -0.199,0.0575 -0.077,0.0382 -0.153,0.0687 -0.23,0.0957 -0.08,0.0269 -0.153,0.0382 -0.222,0.0382 h -2.151 c 0.061,-0.0691 0.115,-0.1339 0.169,-0.1953 0.053,-0.0652 0.107,-0.1261 0.168,-0.1875 0.046,-0.0496 0.092,-0.1031 0.146,-0.1566 0.053,-0.05 0.095,-0.0996 0.134,-0.1457 v 0.0113 c 0.111,-0.1183 0.206,-0.2219 0.286,-0.3137 0.077,-0.0879 0.18,-0.2027 0.307,-0.3367 z m -9.912,4.5196 c 0,-0.3829 -0.134,-0.7079 -0.402,-0.9758 -0.279,-0.2563 -0.601,-0.3825 -0.965,-0.3825 -0.21,0 -0.397,0.0305 -0.566,0.0954 -0.168,0.0652 -0.329,0.1531 -0.478,0.2644 -0.149,0.1258 -0.268,0.2754 -0.352,0.4473 -0.088,0.1726 -0.131,0.3562 -0.131,0.5512 0,0.7921 0.467,1.1902 1.401,1.1902 0.995,0 1.493,-0.3981 1.493,-1.1902 z m 3.777,0 c 0,-0.195 -0.035,-0.375 -0.107,-0.5395 -0.073,-0.1648 -0.169,-0.3102 -0.291,-0.4324 -0.123,-0.1227 -0.268,-0.218 -0.433,-0.2871 -0.164,-0.0653 -0.344,-0.0993 -0.539,-0.0993 -0.215,0 -0.413,0.0305 -0.586,0.0954 -0.175,0.0652 -0.336,0.1531 -0.478,0.2644 -0.149,0.1258 -0.264,0.2754 -0.348,0.4438 -0.081,0.1683 -0.123,0.3519 -0.123,0.5547 0,0.7921 0.471,1.1902 1.412,1.1902 0.996,0 1.493,-0.3981 1.493,-1.1902 z M 98.4395,22.8328 H 96.143 v 12.9965 h 2.2965 z m -5.3774,0.7539 c 0,-1.5574 -0.4555,-2.8508 -1.366,-3.8804 -0.9875,-1.0985 -2.1891,-1.6497 -3.6012,-1.6497 h -2.6906 l -0.4246,2.8247 h 2.434 c 0.4402,0 0.8496,0.0496 1.2246,0.1531 0.3789,0.0992 0.7082,0.2406 0.9949,0.4285 0.3219,0.2336 0.5742,0.4898 0.7617,0.773 0.1875,0.2832 0.2793,0.5817 0.2793,0.8954 v 6.521 h 2.3879 z m -11.5074,3.5399 c 0,0.9339 -0.4172,1.4007 -1.2516,1.4007 -0.5547,0 -0.8992,-0.1183 -1.0367,-0.3597 v 0.0461 C 79.2203,28.0723 79.182,27.8883 79.1477,27.6703 79.1133,27.448 79.098,27.184 79.098,26.8777 c 0,-0.5433 0.2637,-0.9144 0.7883,-1.1097 0.1301,-0.0496 0.3403,-0.0879 0.6313,-0.1106 0.2949,-0.023 0.639,-0.0383 1.0371,-0.0461 z m 2.3422,-4.1176 c 0,-0.7195 -0.1262,-1.3699 -0.375,-1.9559 -0.2489,-0.5816 -0.6203,-1.1019 -1.1102,-1.5574 -0.5125,-0.459 -1.0597,-0.8109 -1.6375,-1.0641 -0.5781,-0.2484 -1.1863,-0.375 -1.8219,-0.375 h -2.6214 l -0.3481,2.7786 H 78.65 c 0.8648,0 1.5461,0.2257 2.0398,0.6734 0.195,0.1727 0.3633,0.375 0.5051,0.6125 0.1414,0.2336 0.2449,0.4707 0.3141,0.7117 -0.693,0.0152 -1.3164,0.0805 -1.8828,0.2031 -0.5629,0.1184 -1.0219,0.2789 -1.3856,0.4821 -0.4937,0.3136 -0.8726,0.7539 -1.1367,1.3242 -0.2641,0.566 -0.3941,1.2625 -0.3941,2.0855 0,1.768 0.398,2.9891 1.1902,3.67 0.5242,0.4554 1.3355,0.6851 2.4379,0.6851 0.7691,0 1.4117,-0.1758 1.9211,-0.5281 0.509,-0.352 0.8992,-0.8688 1.1785,-1.55 0.1492,-0.402 0.2641,-0.9223 0.3406,-1.5535 0.0805,-0.6317 0.1188,-1.3703 0.1188,-2.216 z m -11.7297,3.907 c 0,1.091 -0.4629,1.6344 -1.3852,1.6344 -0.9453,0 -1.416,-0.5664 -1.416,-1.7031 0,-1.0215 0.4707,-1.5344 1.416,-1.5344 0.9223,0 1.3852,0.5355 1.3852,1.6031 z m 2.1129,-0.107 c 0,-0.6008 -0.0766,-1.1442 -0.2301,-1.6379 -0.1531,-0.4934 -0.3633,-0.9184 -0.6312,-1.2668 -0.3446,-0.4438 -0.7348,-0.7766 -1.175,-1.0063 -0.4438,-0.2257 -0.9262,-0.3406 -1.4583,-0.3406 -0.3632,0 -0.7308,0.0653 -1.1019,0.1953 -0.3676,0.1301 -0.7195,0.3059 -1.0445,0.5239 -1.0825,-0.4071 -4.2789,-0.7493 -5.3539,-0.084 -0.1606,0.0957 -0.3254,0.2183 -0.4977,0.3672 -0.3141,-0.245 -0.6199,-0.4285 -0.9187,-0.5469 -0.2985,-0.1188 -0.5813,-0.1801 -0.8493,-0.1801 h -4.2902 c 0,0.0129 -1.0137,-0.0598 -1.9477,0.8383 -0.2636,0.2539 -0.7043,0.6312 -1.2781,1.1711 -0.4058,-0.7809 -0.8957,-1.3434 -1.4734,-1.6918 -0.5821,-0.3481 -1.2668,-0.5242 -2.059,-0.5242 -1.068,0 -1.9824,0.3828 -2.7363,1.1445 -0.7231,0.7231 -1.0868,1.6953 -1.0868,2.9121 0,0.2832 0.0458,0.5781 0.1418,0.884 0.0918,0.3062 0.2254,0.6238 0.3981,0.9453 0.1719,0.3254 0.3785,0.6543 0.6199,0.9871 0.2449,0.3332 0.5164,0.6664 0.8149,1.0031 -0.0305,0.0383 -0.0614,0.0801 -0.0957,0.1223 -0.0344,0.0461 -0.0688,0.0879 -0.1071,0.1262 l -0.3254,0.3332 1.6918,1.7601 5.8664,-6.1574 c 0.7852,-0.8238 0.984,-0.9765 2.161,-1.0754 h 3.1129 c 0.4285,0 0.73,0.0778 0.8953,0.2297 0.1676,0.1539 0.2527,0.4133 0.2527,0.7883 v 3.023 h 2.3649 v -3.023 c 0,-0.4402 0.0726,-0.693 0.214,-0.7617 0.1113,-0.0953 0.2949,-0.1645 0.5551,-0.1988 0.2562,-0.0383 0.5894,-0.0575 1.0027,-0.0575 v -0.0109 c 0.3188,0.0062 0.5887,0.0203 0.8114,0.0414 0.3214,0.0309 0.5355,0.0691 0.6386,0.1227 0.0117,0.1031 0.0196,0.2523 0.0231,0.4437 0.0039,0.1914 0.0117,0.4324 0.023,0.7231 0.0614,1.3664 0.3942,2.4304 1.0102,3.1921 0.6129,0.7575 1.4929,1.1364 2.6445,1.1364 1.068,0 1.9402,-0.4782 2.6215,-1.4352 0.532,-0.7769 0.7965,-1.7832 0.7965,-3.0156 z M 59.5305,19.9398 c 0,-0.796 -0.4512,-1.1941 -1.3504,-1.1941 -1.0145,0 -1.5196,0.3981 -1.5196,1.1941 0,0.195 0.0344,0.3711 0.1071,0.5317 0.0691,0.1609 0.1644,0.2984 0.291,0.4133 0.1223,0.1148 0.268,0.2066 0.4324,0.2679 0.1684,0.0653 0.3445,0.0957 0.532,0.0957 1.0067,0 1.5075,-0.4363 1.5075,-1.3086 z m 3.7429,0 c 0,-0.796 -0.4632,-1.1941 -1.3851,-1.1941 -0.9914,0 -1.4848,0.3981 -1.4848,1.1941 0,0.375 0.1336,0.6887 0.4016,0.9528 0.2754,0.2371 0.5894,0.3558 0.9379,0.3558 1.0215,0 1.5304,-0.4363 1.5304,-1.3086" /><path
       inkscape:connector-curvature="0"
       id="path18"
       style="fill:#ffffff;fill-opacity:1;fill-rule:nonzero;stroke:none;stroke-width:0.1"
       d="m 65.4609,90.3859 c -2.325,3.2879 -5.5257,5.9192 -9.2398,7.4895 l 15.834,9.1416 c 9.8238,4.665 17.7996,-4.192 17.814,-13.7076 l 8e-4,4e-4 -8e-4,-33.8168 v -4e-4 0 l -20.6796,-11.9399 3e-4,28.625 c 0,6.0086 -0.1582,9.161 -3.7289,14.2082 z m 72.4841,54.5521 c 11.985,0.001 21.699,9.716 21.699,21.7 0,11.984 -9.714,21.699 -21.699,21.7 -11.984,-0.001 -21.699,-9.716 -21.699,-21.7 0,-11.984 9.715,-21.699 21.699,-21.7 z m -70.6884,2.467 17.2313,9.951 c 3.2281,1.835 5.4059,5.304 5.4062,9.282 -3e-4,3.978 -2.1781,7.447 -5.4062,9.282 l -17.2313,9.95 c 0.5688,-6.974 -2.4578,-14.232 -8.2453,-19.232 5.7875,-5 8.8141,-12.259 8.2453,-19.233 z m -37.4906,2.349 c 5.7695,-4.751 8.6664,-12.281 7.7676,-19.509 l 15.8344,9.143 c 8.9515,6.175 5.7195,17.771 -2.5145,22.541 z M 0.437109,166.638 21.1172,178.577 h 8e-4 l 20.68,-11.939 -20.68,-11.94 -4e-4,0.001 -4e-4,-0.001 z M 29.766,183.521 c 5.7695,4.752 8.6664,12.282 7.7676,19.509 l 15.8344,-9.142 c 8.9515,-6.175 5.7195,-17.771 -2.5145,-22.541 z m 89.49,53.951 -0.001,-19.898 c 0.025,-3.713 -1.891,-7.334 -5.335,-9.323 -3.446,-1.989 -7.539,-1.837 -10.742,0.041 l -17.2331,9.948 c 6.3242,2.994 11.0973,9.244 12.5332,16.756 7.2239,-2.512 15.0229,-1.504 20.7779,2.476 z m -20.7787,31.293 c 6.9997,-2.62 14.9687,-1.364 20.7787,3.028 v -18.284 c -0.872,-10.84 -12.531,-13.839 -20.7783,-9.093 z m -29.2863,16.958 4e-4,-23.879 h 4e-4 v -10e-4 l 20.6797,-11.939 -4e-4,23.878 -4e-4,0.001 v 0 z m 0.0426,-33.841 C 68.0035,244.509 62.9309,238.236 56.2227,235.4 l 15.8343,-9.141 c 9.8239,-4.665 18.2504,3.932 18.2637,13.448 z M 81,187.87 l -20.9961,12.123 10.084,17.465 20.9957,-12.122 z m -28.4172,16.407 -20.9957,12.122 10.084,17.465 20.9957,-12.121 z m 137.3622,13.963 -17.233,-9.948 c -3.203,-1.878 -7.296,-2.03 -10.741,-0.041 -3.446,1.989 -5.361,5.61 -5.336,9.323 l -0.001,19.898 c 5.755,-3.98 13.554,-4.988 20.778,-2.476 1.436,-7.512 6.209,-13.762 12.533,-16.756 z m 16.711,33.642 c 1.23,-7.373 6.303,-13.646 13.011,-16.482 l -15.834,-9.141 c -9.824,-4.665 -18.251,3.932 -18.264,13.448 z m 0.043,33.841 -20.68,-11.94 v 0 -0.001 l -0.001,-23.878 20.68,11.939 v 10e-4 0 z m -29.286,-16.958 c -7,-2.62 -14.97,-1.364 -20.779,3.028 v -18.284 c 0.872,-10.84 12.53,-13.839 20.778,-9.093 z M 127.861,226.57 v 24.244 h 20.167 l -0.001,-24.244 z m 0,32.813 v 24.244 h 20.167 v -24.244 z m 0,-41.846 v 0.427 l 20.167,0.001 v -0.001 h 0.001 v -0.391 c 0.001,-6.906 3.631,-13.307 9.639,-16.775 5.996,-3.462 13.34,-3.412 19.316,0.023 l 0.368,0.213 v 0 h 0.001 l 10.084,-17.465 h -0.001 v -10e-4 l -0.338,-0.196 c -5.98,-3.453 -9.708,-9.798 -9.708,-16.734 0,-6.936 3.728,-13.281 9.708,-16.734 l 0.339,-0.197 v 0 0 l -5.123,-8.873 -4.96,-8.592 v 0.001 l -0.001,-0.002 -0.339,0.196 c -5.981,3.452 -13.34,3.509 -19.347,0.04 -6.007,-3.468 -9.637,-9.868 -9.638,-16.774 v -0.391 h -0.001 v -10e-4 h -20.167 v 10e-4 0 0.427 c -0.014,6.892 -3.642,13.276 -9.639,16.738 -6.007,3.469 -13.365,3.412 -19.3462,-0.04 l -0.3383,-0.195 -4e-4,0.001 -0.0012,-0.001 -10.0832,17.465 8e-4,0.001 -4e-4,0.001 0.3715,0.214 c 5.9609,3.457 9.6754,9.791 9.6754,16.715 0,6.923 -3.7145,13.257 -9.6754,16.715 l -0.3715,0.214 4e-4,0.001 10.084,17.466 v 0 l 0.3688,-0.213 c 5.9757,-3.435 13.3187,-3.485 19.3167,-0.023 5.996,3.463 9.624,9.847 9.638,16.739 z m 0,-110.831 c 0,-10.083 0,-20.165 0,-30.2478 h 20.167 l -0.001,30.2478 z m 80.772,40.699 -17.231,9.951 c -3.228,1.835 -5.406,5.304 -5.406,9.282 0,3.978 2.178,7.447 5.406,9.282 l 17.231,9.95 c -0.569,-6.974 2.458,-14.232 8.246,-19.232 -5.788,-5 -8.815,-12.259 -8.246,-19.233 z m 37.491,2.349 c -5.77,-4.751 -8.667,-12.281 -7.768,-19.509 l -15.834,9.143 c -8.952,6.175 -5.72,17.771 2.514,22.541 z m 29.329,16.884 -20.68,11.939 h -0.001 l -20.68,-11.939 20.68,-11.94 v 0.001 l 0.001,-0.001 z m -29.329,16.883 c -5.77,4.752 -8.667,12.282 -7.768,19.509 l -15.834,-9.142 c -8.952,-6.175 -5.72,-17.771 2.514,-22.541 z m -61.319,21.816 20.997,12.122 10.083,-17.465 -20.996,-12.122 z m 28.417,16.407 20.996,12.122 10.084,-17.466 -20.996,-12.121 z m -18.332,-76.339 20.996,-12.122 -10.084,-17.465 -20.996,12.122 z m 28.417,-16.406 20.995,-12.122 -10.083,-17.4657 -20.996,12.1217 z m -33.216,-14.048 -17.379,10.033 c -3.203,1.878 -7.296,2.029 -10.742,0.04 -3.445,-1.989 -5.36,-5.61 -5.335,-9.322 l -0.001,-10.231 v -0.002 -3.033 -6.6325 4e-4 -19.3457 l 20.779,-11.9969 -0.001,25.4817 0.001,0.0793 v 3.2871 c 0,9.4856 5.182,17.9446 12.678,21.6416 z m 20.336,-24.5651 c 2.325,3.2879 5.526,5.9192 9.24,7.4895 l -15.834,9.1416 c -9.824,4.665 -17.8,-4.192 -17.814,-13.7076 l -0.001,4e-4 0.001,-33.8168 v -4e-4 0 l 20.68,-11.9399 -0.001,28.625 c 0,6.0086 0.159,9.161 3.729,14.2082 z M 81,145.405 60.0039,133.283 70.0879,115.818 91.0836,127.94 Z M 52.5828,128.999 31.5871,116.877 41.6711,99.4113 62.6668,111.533 Z m 33.2141,-14.048 17.3801,10.033 c 3.202,1.878 7.295,2.029 10.741,0.04 3.445,-1.989 5.36,-5.61 5.335,-9.322 l 0.001,-10.231 v -0.002 -3.033 l 10e-4,-6.6325 -10e-4,4e-4 V 76.4582 l -20.7786,-11.9969 4e-4,25.4817 -4e-4,0.0793 v 3.2871 c 0,9.4856 -5.182,17.9446 -12.6785,21.6416" /></g></svg>