<?xml version="1.0" encoding="UTF-8" standalone="no"?>
<!-- Created with Inkscape (http://www.inkscape.org/) -->

<svg
   version="1.1"
   id="svg2"
   xml:space="preserve"
   width="368"
   height="381.33334"
   viewBox="0 0 368 381.33334"
   sodipodi:docname="UUT-Icon.svg"
   inkscape:version="1.1.2 (0a00cf5, 2022-02-04)"
   xmlns:inkscape="http://www.inkscape.org/namespaces/inkscape"
   xmlns:sodipodi="http://sodipodi.sourceforge.net/DTD/sodipodi-0.dtd"
   xmlns="http://www.w3.org/2000/svg"
   xmlns:svg="http://www.w3.org/2000/svg"
   xmlns:rdf="http://www.w3.org/1999/02/22-rdf-syntax-ns#"
   xmlns:cc="http://creativecommons.org/ns#"
   xmlns:dc="http://purl.org/dc/elements/1.1/"><metadata
     id="metadata8"><rdf:RDF><cc:Work
         rdf:about=""><dc:format>image/svg+xml</dc:format><dc:type
           rdf:resource="http://purl.org/dc/dcmitype/StillImage" /></cc:Work></rdf:RDF></metadata><defs
     id="defs6" /><sodipodi:namedview
     pagecolor="#ffffff"
     bordercolor="#666666"
     borderopacity="1"
     objecttolerance="10"
     gridtolerance="10"
     guidetolerance="10"
     inkscape:pageopacity="0"
     inkscape:pageshadow="2"
     inkscape:window-width="1306"
     inkscape:window-height="697"
     id="namedview4"
     showgrid="false"
     inkscape:zoom="0.87523005"
     inkscape:cx="123.39613"
     inkscape:cy="155.959"
     inkscape:window-x="60"
     inkscape:window-y="34"
     inkscape:window-maximized="1"
     inkscape:current-layer="g10"
     inkscape:pagecheckerboard="0" /><g
     id="g10"
     inkscape:groupmode="layer"
     inkscape:label="ink_ext_XXXXXX"
     transform="matrix(1.3333333,0,0,-1.3333333,0,381.33333)"><path
       inkscape:connector-curvature="0"
       id="path18"
       style="fill:#ffffff;fill-opacity:1;fill-rule:nonzero;stroke:none;stroke-width:0.1"
       d="m 65.515849,66.748047 c -2.325,3.2879 -5.5257,5.9192 -9.2398,7.4895 l 15.834,9.1416 c 9.8238,4.665 17.7996,-4.192 17.814,-13.7076 l 8e-4,4e-4 -8e-4,-33.8168 v -4e-4 0 l -20.6796,-11.9399 3e-4,28.625 c 0,6.0086 -0.1582,9.161 -3.7289,14.2082 z m 72.484101,54.552103 c 11.985,0.001 21.699,9.716 21.699,21.7 0,11.984 -9.714,21.699 -21.699,21.7 -11.984,-0.001 -21.699,-9.716 -21.699,-21.7 0,-11.984 9.715,-21.699 21.699,-21.7 z m -70.688401,2.467 17.2313,9.951 c 3.2281,1.835 5.4059,5.304 5.4062,9.282 -3e-4,3.978 -2.1781,7.447 -5.4062,9.282 l -17.2313,9.95 c 0.5688,-6.974 -2.4578,-14.232 -8.2453,-19.232 5.7875,-5 8.8141,-12.259 8.2453,-19.233 z m -37.4906,2.349 c 5.7695,-4.751 8.6664,-12.281 7.7676,-19.509 l 15.8344,9.143 c 8.9515,6.175 5.7195,17.771 -2.5145,22.541 z m -29.32889105,16.884 20.68009105,11.939 h 8e-4 l 20.68,-11.939 -20.68,-11.94 -4e-4,0.001 -4e-4,-0.001 z m 29.32889105,16.883 c 5.7695,4.752 8.6664,12.282 7.7676,19.509 l 15.8344,-9.142 c 8.9515,-6.175 5.7195,-17.771 -2.5145,-22.541 z m 89.490001,53.951 -0.001,-19.898 c 0.025,-3.713 -1.891,-7.334 -5.335,-9.323 -3.446,-1.989 -7.539,-1.837 -10.742,0.041 l -17.233101,9.948 c 6.3242,2.994 11.0973,9.244 12.5332,16.756 7.223901,-2.512 15.022901,-1.504 20.777901,2.476 z m -20.778701,31.293 c 6.999701,-2.62 14.968701,-1.364 20.778701,3.028 v -18.284 c -0.872,-10.84 -12.531,-13.839 -20.778301,-9.093 z m -29.2863,16.958 4e-4,-23.879 h 4e-4 v -0.001 l 20.6797,-11.939 -4e-4,23.878 -4e-4,0.001 v 0 z m 0.0426,-33.841 c -1.2301,-7.373 -6.3027,-13.646 -13.0109,-16.482 l 15.8343,-9.141 c 9.8239,-4.665 18.2504,3.932 18.2637,13.448 z m 11.7664,-64.012 -20.9961,12.123 10.084,17.465 20.9957,-12.122 z m -28.4172,16.407 -20.9957,12.122 10.084,17.465 20.9957,-12.121 z m 137.362201,13.963 -17.233,-9.948 c -3.203,-1.878 -7.296,-2.03 -10.741,-0.041 -3.446,1.989 -5.361,5.61 -5.336,9.323 l -0.001,19.898 c 5.755,-3.98 13.554,-4.988 20.778,-2.476 1.436,-7.512 6.209,-13.762 12.533,-16.756 z m 16.711,33.642 c 1.23,-7.373 6.303,-13.646 13.011,-16.482 l -15.834,-9.141 c -9.824,-4.665 -18.251,3.932 -18.264,13.448 z m 0.043,33.841 -20.68,-11.94 v 0 -0.001 l -0.001,-23.878 20.68,11.939 v 0.001 0 z m -29.286,-16.958 c -7,-2.62 -14.97,-1.364 -20.779,3.028 v -18.284 c 0.872,-10.84 12.53,-13.839 20.778,-9.093 z m -49.552,-42.195 v 24.244 h 20.167 l -0.001,-24.244 z m 0,32.813 v 24.244 h 20.167 v -24.244 z m 0,-41.846 v 0.427 l 20.167,10e-4 v -10e-4 h 10e-4 v -0.391 c 0.001,-6.906 3.631,-13.307 9.639,-16.775 5.996,-3.462 13.34,-3.412 19.316,0.023 l 0.368,0.213 v 0 h 0.001 l 10.084,-17.465 h -0.001 v -0.001 l -0.338,-0.196 c -5.98,-3.453 -9.708,-9.798 -9.708,-16.734 0,-6.936 3.728,-13.281 9.708,-16.734 l 0.339,-0.197 v 0 0 l -5.123,-8.873 -4.96,-8.592 v 10e-4 l -0.001,-0.002 -0.339,0.196 c -5.981,3.452 -13.34,3.509 -19.347,0.04 -6.007,-3.468 -9.637,-9.868003 -9.638,-16.774003 v -0.391 h -10e-4 v -0.001 h -20.167 v 0.001 0 0.427 c -0.014,6.892 -3.642,13.276003 -9.639,16.738003 -6.007,3.469 -13.365,3.412 -19.346201,-0.04 l -0.3383,-0.195 -4e-4,10e-4 -0.0012,-10e-4 -10.0832,17.465 8e-4,0.001 -4e-4,0.001 0.3715,0.214 c 5.9609,3.457 9.6754,9.791 9.6754,16.715 0,6.923 -3.7145,13.257 -9.6754,16.715 l -0.3715,0.214 4e-4,0.001 10.084,17.466 v 0 l 0.3688,-0.213 c 5.975701,-3.435 13.318701,-3.485 19.316701,-0.023 5.996,3.463 9.624,9.847 9.638,16.739 z m 0,-110.831003 c 0,-10.083 0,-20.165 0,-30.2478 h 20.167 l -0.001,30.2478 z m 80.772,40.699003 -17.231,9.951 c -3.228,1.835 -5.406,5.304 -5.406,9.282 0,3.978 2.178,7.447 5.406,9.282 l 17.231,9.95 c -0.569,-6.974 2.458,-14.232 8.246,-19.232 -5.788,-5 -8.815,-12.259 -8.246,-19.233 z m 37.491,2.349 c -5.77,-4.751 -8.667,-12.281 -7.768,-19.509 l -15.834,9.143 c -8.952,6.175 -5.72,17.771 2.514,22.541 z m 29.329,16.884 -20.68,11.939 h -10e-4 l -20.68,-11.939 20.68,-11.94 v 0.001 l 10e-4,-0.001 z m -29.329,16.883 c -5.77,4.752 -8.667,12.282 -7.768,19.509 l -15.834,-9.142 c -8.952,-6.175 -5.72,-17.771 2.514,-22.541 z m -61.319,21.816 20.997,12.122 10.083,-17.465 -20.996,-12.122 z m 28.417,16.407 20.996,12.122 10.084,-17.466 -20.996,-12.121 z m -18.332,-76.339 20.996,-12.122 -10.084,-17.465003 -20.996,12.122003 z m 28.417,-16.406 20.995,-12.122003 -10.083,-17.4657 -20.996,12.1217 z m -33.216,-14.048003 -17.379,10.033003 c -3.203,1.878 -7.296,2.029 -10.742,0.04 -3.445,-1.989003 -5.36,-5.610003 -5.335,-9.322003 l -0.001,-10.231 v -0.002 -3.033 -6.6325 4e-4 -19.3457 l 20.779,-11.9969 -0.001,25.4817 0.001,0.0793 v 3.2871 c 0,9.4856 5.182,17.9446 12.678,21.6416 z m 20.336,-24.5651 c 2.325,3.2879 5.526,5.9192 9.24,7.4895 l -15.834,9.1416 c -9.824,4.665 -17.8,-4.192 -17.814,-13.7076 l -0.001,4e-4 0.001,-33.8168 v -4e-4 0 l 20.68,-11.9399 -0.001,28.625 c 0,6.0086 0.159,9.161 3.729,14.2082 z m -129.427001,55.019103 -20.9961,-12.122 10.084,-17.465003 20.9957,12.122003 z m -28.4172,-16.406 -20.9957,-12.122003 10.084,-17.4657 20.9957,12.1217 z m 33.2141,-14.048003 17.380101,10.033003 c 3.202,1.878 7.295,2.029 10.741,0.04 3.445,-1.989003 5.36,-5.610003 5.335,-9.322003 l 10e-4,-10.231 v -0.002 -3.033 l 0.001,-6.6325 -0.001,4e-4 v -19.3457 l -20.778601,-11.9969 4e-4,25.4817 -4e-4,0.0793 v 3.2871 c 0,9.4856 -5.182,17.9446 -12.6785,21.6416" /></g></svg>
