<svg xmlns="http://www.w3.org/2000/svg" viewBox="0 0 24 24"><path fill="none" stroke="currentColor" stroke-linecap="round" stroke-linejoin="round" stroke-width="2" d="M4 15v1.8c0 1.12 0 1.68.218 2.108a2 2 0 0 0 .874.874c.427.218.987.218 2.105.218H12m-8-5V9m0 6h8M4 9V7.2c0-1.12 0-1.68.218-2.108c.192-.377.497-.682.874-.874C5.52 4 6.08 4 7.2 4H12M4 9h8m0-5h4.8c1.12 0 1.68 0 2.108.218a2 2 0 0 1 .874.874c.218.427.218.987.218 2.105V9m-8-5v5m0 0v6m0-6h8m-8 6v5m0-5h8m-8 5h4.804c1.118 0 1.677 0 2.104-.218c.376-.192.682-.498.874-.874c.218-.428.218-.986.218-2.104V15m0 0V9"/></svg>