<svg xmlns="http://www.w3.org/2000/svg" viewBox="0 0 24 24"><path fill="none" stroke="currentColor" stroke-linecap="round" stroke-linejoin="round" stroke-width="2" d="M9.146 9.074a2.998 2.998 0 0 1 5.28-.838A3 3 0 0 1 12 13v1m.05 3v.1h-.1V17h.1ZM7.332 3.937L3.938 7.332l-.004.003c-.343.343-.516.516-.64.717c-.109.179-.19.374-.239.578C3 8.86 3 9.105 3 9.594v4.812c0 .489 0 .733.055.964a2 2 0 0 0 .24.578c.124.201.297.375.643.72l3.394 3.395c.346.346.518.518.72.642c.179.11.374.19.578.24c.23.055.474.055.962.055h4.816c.487 0 .732 0 .962-.055c.204-.05.4-.13.578-.24c.202-.124.375-.296.72-.642l3.395-3.394c.346-.346.519-.52.642-.721c.11-.18.19-.374.24-.578c.055-.23.055-.475.055-.964V9.594c0-.489 0-.733-.056-.964a2 2 0 0 0-.239-.578c-.123-.202-.296-.374-.642-.72L16.67 3.938c-.346-.346-.519-.52-.72-.643a1.999 1.999 0 0 0-.579-.24C15.14 3 14.895 3 14.405 3H9.594c-.49 0-.734 0-.964.055a2.02 2.02 0 0 0-.578.24c-.2.122-.37.293-.71.633l-.01.01Z"/></svg>